<svg width="49" height="48" viewBox="0 0 49 48" fill="none" xmlns="http://www.w3.org/2000/svg">
<circle cx="24.8291" cy="24" r="24" fill="#E68549"/>
<path d="M19.4951 33.3333H15.4951V20H19.4951V33.3333ZM34.1618 33.3333H30.1618V26.2107C30.1618 24.3547 29.5005 23.4307 28.1898 23.4307C27.1511 23.4307 26.4925 23.948 26.1618 24.984V33.3333H22.1618C22.1618 33.3333 22.2151 21.3333 22.1618 20H25.3191L25.5631 22.6667H25.6458C26.4658 21.3333 27.7765 20.4293 29.5738 20.4293C30.9405 20.4293 32.0458 20.8093 32.8898 21.764C33.7391 22.72 34.1618 24.0027 34.1618 25.804V33.3333Z" fill="white"/>
<path d="M17.4954 18.668C18.6368 18.668 19.562 17.7725 19.562 16.668C19.562 15.5634 18.6368 14.668 17.4954 14.668C16.354 14.668 15.4287 15.5634 15.4287 16.668C15.4287 17.7725 16.354 18.668 17.4954 18.668Z" fill="white"/>
</svg>
