<svg width="32" height="32" viewBox="0 0 32 32" fill="none" xmlns="http://www.w3.org/2000/svg">
<path d="M10.666 25.3333H6.66602V12H10.666V25.3333ZM25.3327 25.3333H21.3327V18.2107C21.3327 16.3547 20.6713 15.4307 19.3607 15.4307C18.322 15.4307 17.6633 15.948 17.3327 16.984V25.3333H13.3327C13.3327 25.3333 13.386 13.3333 13.3327 12H16.49L16.734 14.6667H16.8167C17.6367 13.3333 18.9473 12.4293 20.7447 12.4293C22.1113 12.4293 23.2167 12.8093 24.0607 13.764C24.91 14.72 25.3327 16.0027 25.3327 17.804V25.3333Z" fill="white"/>
<path d="M8.66628 10.667C9.80766 10.667 10.7329 9.77156 10.7329 8.66699C10.7329 7.56242 9.80766 6.66699 8.66628 6.66699C7.52489 6.66699 6.59961 7.56242 6.59961 8.66699C6.59961 9.77156 7.52489 10.667 8.66628 10.667Z" fill="white"/>
</svg>
