<svg width="49" height="48" viewBox="0 0 49 48" fill="none" xmlns="http://www.w3.org/2000/svg">
<circle cx="24.8281" cy="24" r="24" fill="#E1564F"/>
<path d="M24.8283 19.8337C22.5345 19.8337 20.6627 21.7056 20.6627 23.9994C20.6627 26.2931 22.5345 28.165 24.8283 28.165C27.122 28.165 28.9939 26.2931 28.9939 23.9994C28.9939 21.7056 27.122 19.8337 24.8283 19.8337ZM37.322 23.9994C37.322 22.2744 37.3377 20.565 37.2408 18.8431C37.1439 16.8431 36.6877 15.0681 35.2252 13.6056C33.7595 12.14 31.9877 11.6869 29.9877 11.59C28.2627 11.4931 26.5533 11.5087 24.8314 11.5087C23.1064 11.5087 21.397 11.4931 19.6752 11.59C17.6751 11.6869 15.9001 12.1431 14.4376 13.6056C12.972 15.0712 12.5189 16.8431 12.422 18.8431C12.3251 20.5681 12.3408 22.2775 12.3408 23.9994C12.3408 25.7212 12.3251 27.4337 12.422 29.1556C12.5189 31.1556 12.9751 32.9306 14.4376 34.3931C15.9033 35.8587 17.6751 36.3119 19.6752 36.4087C21.4002 36.5056 23.1095 36.49 24.8314 36.49C26.5564 36.49 28.2658 36.5056 29.9877 36.4087C31.9877 36.3119 33.7627 35.8556 35.2252 34.3931C36.6908 32.9275 37.1439 31.1556 37.2408 29.1556C37.3408 27.4337 37.322 25.7244 37.322 23.9994ZM24.8283 30.4087C21.2814 30.4087 18.4189 27.5462 18.4189 23.9994C18.4189 20.4525 21.2814 17.59 24.8283 17.59C28.3752 17.59 31.2377 20.4525 31.2377 23.9994C31.2377 27.5462 28.3752 30.4087 24.8283 30.4087ZM31.5002 18.8244C30.672 18.8244 30.0033 18.1556 30.0033 17.3275C30.0033 16.4994 30.672 15.8306 31.5002 15.8306C32.3283 15.8306 32.997 16.4994 32.997 17.3275C32.9973 17.5241 32.9587 17.7189 32.8836 17.9006C32.8085 18.0823 32.6982 18.2474 32.5592 18.3865C32.4201 18.5255 32.255 18.6358 32.0733 18.7109C31.8916 18.7861 31.6968 18.8246 31.5002 18.8244Z" fill="white"/>
</svg>
