<svg width="995" height="417" viewBox="0 0 995 417" fill="none" xmlns="http://www.w3.org/2000/svg">
    <path
        d="M1412.02 405L905.655 405C861.472 405 825.655 369.183 825.655 325L825.655 147.802C825.655 103.62 789.838 67.8024 745.655 67.8024L28.2765 67.8024"
        stroke="#357C8E" stroke-width="24" />
    <path
        d="M1404.36 386.85L883.766 386.85C839.583 386.85 803.766 351.032 803.766 306.85L803.766 137.516C803.766 93.3328 767.949 57.5156 723.766 57.5156L11.925 57.5155"
        stroke="#4DB0B2" stroke-width="24" />
    <path
        d="M1424.67 367.627L860.523 367.627C816.34 367.627 780.523 331.81 780.523 287.627L780.523 110.839C780.523 66.6564 744.706 30.8392 700.523 30.8392L27.0214 30.8392"
        stroke="#6AC2C0" stroke-width="24" />
    <path
        d="M1408.23 349.125L837.28 349.125C793.097 349.125 757.28 313.308 757.28 269.125L757.28 92.8567C757.28 48.6739 721.462 12.8567 677.28 12.8567L7.42997 12.8566"
        stroke="#EEBA44" stroke-width="24" />
    <path
        d="M1456.29 330.457L814.039 330.457C769.857 330.457 734.039 294.64 734.039 250.457L734.04 154.873C734.04 110.691 698.222 74.8734 654.04 74.8734L0.514798 74.8734"
        stroke="#E68549" stroke-width="24" />
    <path
        d="M1495.49 311.49L790.794 311.489C746.611 311.489 710.794 275.672 710.794 231.489L710.794 136.885C710.794 92.7024 674.977 56.8851 630.794 56.8851L17.5847 56.8851"
        stroke="#E1564F" stroke-width="24" />
</svg>
