<svg width="125" height="714" viewBox="0 0 125 714" fill="none" xmlns="http://www.w3.org/2000/svg">
    <path
        d="M24.7562 695.195L96.2502 695.195C113.279 695.195 125.145 695.176 133.848 694.039C142.454 692.914 145.994 690.906 148.007 688.537C150.287 685.856 152.204 680.891 153.219 670.147C154.217 659.582 154.227 645.302 154.227 625.387L154.227 120.1L172.422 120.1L172.422 625.9C172.422 645.191 172.422 660.333 171.334 671.857C170.252 683.305 167.977 693.134 161.873 700.315C155.502 707.809 146.465 710.732 136.207 712.073C126.184 713.383 113.121 713.383 96.925 713.383L24.7562 713.383L24.7562 695.195Z"
        fill="#357C8E" />
    <path
        d="M24.7564 671.312L107.027 671.312C124.056 671.312 135.921 671.294 144.624 670.156C153.23 669.031 156.77 667.023 158.784 664.655C161.063 661.973 162.98 657.008 163.995 646.264C164.993 635.699 165.003 621.419 165.003 601.504L165.003 96.2168L183.198 96.2168L183.198 602.017C183.198 621.308 183.198 636.45 182.11 647.974C181.029 659.422 178.753 669.251 172.649 676.432C166.278 683.926 157.242 686.849 146.983 688.19C136.96 689.5 123.897 689.5 107.701 689.5L24.7564 689.5L24.7564 671.312Z"
        fill="#4DB0B2" />
    <path
        d="M24.7548 647.429L117.802 647.429C134.831 647.429 146.697 647.411 155.4 646.273C164.006 645.148 167.546 643.14 169.559 640.772C171.839 638.09 173.756 633.125 174.771 622.382C175.769 611.816 175.778 597.536 175.778 577.621L175.778 72.334L193.974 72.334L193.974 578.134C193.974 597.425 193.974 612.568 192.885 624.091C191.804 635.539 189.529 645.368 183.424 652.549C177.054 660.043 168.017 662.967 157.759 664.307C147.736 665.617 134.672 665.617 118.477 665.617L24.7548 665.617L24.7548 647.429Z"
        fill="#6AC2C0" />
    <path
        d="M24.7554 623.557L128.714 623.557C145.713 623.557 157.557 623.538 166.245 622.402C174.836 621.277 178.369 619.27 180.379 616.903C182.655 614.222 184.568 609.26 185.581 598.522C186.577 587.961 186.587 573.688 186.587 553.783L186.587 48.7441L204.75 48.7441L204.75 554.296C204.75 573.578 204.75 588.712 203.664 600.231C202.584 611.673 200.313 621.497 194.22 628.674C187.86 636.165 178.84 639.087 168.6 640.427C158.594 641.736 145.554 641.736 129.388 641.736L24.7554 641.736L24.7554 623.557Z"
        fill="#EEBA44" />
    <path
        d="M24.7553 599.655L139.938 599.655C156.967 599.655 168.833 599.636 177.535 598.498C186.142 597.373 189.681 595.364 191.695 592.994C193.975 590.311 195.892 585.344 196.906 574.595C197.904 564.024 197.914 549.737 197.914 529.813L197.914 24.2773L216.109 24.2773L216.109 530.325C216.109 549.627 216.11 564.776 215.021 576.305C213.94 587.759 211.665 597.593 205.56 604.777C199.189 612.275 190.153 615.2 179.894 616.541C169.871 617.852 156.808 617.852 140.613 617.852L24.7553 617.852L24.7553 599.655Z"
        fill="#E68549" />
    <path
        d="M24.7565 575.781L150.715 575.781C167.744 575.781 179.61 575.762 188.313 574.625C196.919 573.5 200.459 571.492 202.472 569.123C204.752 566.442 206.669 561.477 207.684 550.733C208.682 540.168 208.691 525.888 208.691 505.973L208.692 0.685546L226.887 0.685547L226.887 506.485C226.887 525.777 226.887 540.919 225.798 552.443C224.717 563.891 222.442 573.72 216.338 580.901C209.967 588.395 200.93 591.318 190.672 592.659C180.649 593.969 167.585 593.969 151.39 593.969L24.7565 593.969L24.7565 575.781Z"
        fill="#E1564F" />
    <rect width="18.349" height="18.349" rx="9.17448"
        transform="matrix(-4.37114e-08 1 1 4.37114e-08 0 695.033)" fill="#357C8E" />
    <rect width="18.349" height="18.349" rx="9.17448"
        transform="matrix(-4.37114e-08 1 1 4.37114e-08 0 671.15)" fill="#4DB0B2" />
    <rect width="18.349" height="18.349" rx="9.17448"
        transform="matrix(-4.37114e-08 1 1 4.37114e-08 0 647.268)" fill="#6AC2C0" />
    <rect width="18.349" height="18.349" rx="9.17448"
        transform="matrix(-4.37114e-08 1 1 4.37114e-08 0 623.387)" fill="#EEBA44" />
    <rect width="18.349" height="18.349" rx="9.17448"
        transform="matrix(-4.37114e-08 1 1 4.37114e-08 0 599.502)" fill="#E68549" />
    <rect width="18.349" height="18.349" rx="9.17448"
        transform="matrix(-4.37114e-08 1 1 4.37114e-08 0 575.619)" fill="#E1564F" />
</svg>
