<svg width="24" height="24" viewBox="0 0 24 24" fill="none" xmlns="http://www.w3.org/2000/svg">
    <path fill-rule="evenodd" clip-rule="evenodd" d="M0 12C0 11.6212 0.158018 11.2579 0.439291 10.99C0.720564 10.7222 1.10205 10.5717 1.49983 10.5717H18.8769L12.4366 4.44136C12.155 4.17317 11.9968 3.80941 11.9968 3.43012C11.9968 3.05083 12.155 2.68707 12.4366 2.41887C12.7182 2.15067 13.1002 2 13.4985 2C13.8968 2 14.2787 2.15067 14.5604 2.41887L23.5594 10.9888C23.699 11.1214 23.8099 11.279 23.8855 11.4526C23.9611 11.6261 24 11.8121 24 12C24 12.1879 23.9611 12.3739 23.8855 12.5474C23.8099 12.721 23.699 12.8786 23.5594 13.0112L14.5604 21.5811C14.2787 21.8493 13.8968 22 13.4985 22C13.1002 22 12.7182 21.8493 12.4366 21.5811C12.155 21.3129 11.9968 20.9492 11.9968 20.5699C11.9968 20.1906 12.155 19.8268 12.4366 19.5586L18.8769 13.4283H1.49983C1.10205 13.4283 0.720564 13.2778 0.439291 13.01C0.158018 12.7421 0 12.3788 0 12Z" fill="#382D4D" />
</svg>
