<svg width="162" height="194" viewBox="0 0 162 194" fill="none" xmlns="http://www.w3.org/2000/svg">
<path fill-rule="evenodd" clip-rule="evenodd" d="M-4.32743e-06 95L0 194L126 194C130.418 194 134 190.418 134 186L134 134L211 134C215.418 134 219 130.418 219 126L219 7.99999C219 3.58172 215.418 -9.41623e-06 211 -9.2231e-06L93 -4.06516e-06C88.5817 -3.87203e-06 85 3.58172 85 8L85 87L8 87C3.58172 87 -4.52055e-06 90.5817 -4.32743e-06 95ZM85 87L85 126C85 130.418 88.5817 134 93 134L134 134L134 95C134 90.5817 130.418 87 126 87L85 87Z" fill="#60E771"/>
</svg>
