<svg width="239" height="259" viewBox="0 0 239 259" fill="none" xmlns="http://www.w3.org/2000/svg">
<path d="M239 251C239 255.418 235.418 259 231 259L207 259C202.582 259 199 255.418 199 251L199 219L231 219C235.418 219 239 222.582 239 227L239 251Z" fill="#FCAC5D"/>
<path fill-rule="evenodd" clip-rule="evenodd" d="M80 8C80 3.58172 76.4183 0 72 0L8 -3.14722e-06C3.58172 -3.34035e-06 0 3.58172 0 8V147L-8.39259e-06 192C-8.39276e-06 192.004 -5.5946e-06 192.008 0 192.012V211C0 215.418 3.58172 219 8 219H199V147C199 142.582 195.418 139 191 139H80L80 8Z" fill="#FCAC5D"/>
</svg>