<svg width="1440" height="420" viewBox="0 0 1440 420" fill="none" xmlns="http://www.w3.org/2000/svg">
<path d="M-27 402.281L709.565 402.281C775.584 402.281 829.103 348.762 829.103 282.743L829.103 272.645C829.103 206.626 882.622 153.107 948.642 153.107L1922.98 153.107" stroke="#357C8E" stroke-width="33.4707"/>
<path d="M-14 375.08L738.809 375.08C804.828 375.08 858.347 321.561 858.347 255.542L858.347 245.24C858.347 179.22 911.866 125.701 977.886 125.701L1944.83 125.701" stroke="#4DB0B2" stroke-width="33.4707"/>
<path d="M0 346.266L769.858 346.266C835.878 346.266 889.397 292.746 889.397 226.727L889.397 217.244C889.397 151.225 942.916 97.7056 1008.94 97.7056L1924.66 97.7055" stroke="#6AC2C0" stroke-width="33.4707"/>
<path d="M-3 318.531L800.907 318.531C866.926 318.531 920.445 265.012 920.445 198.993L920.445 190.288C920.445 124.269 973.964 70.7497 1039.98 70.7497L1922.14 70.7496" stroke="#EEBA44" stroke-width="33.4707"/>
<path d="M-17 290.555L831.956 290.555C897.975 290.555 951.494 237.036 951.494 171.016L951.494 163.338C951.494 97.3186 1005.01 43.7994 1071.03 43.7994L1931.38 43.7993" stroke="#E68549" stroke-width="33.4707"/>
<path d="M-63 262.127L863.005 262.127C929.024 262.127 982.543 208.608 982.543 142.589L982.543 136.378C982.543 70.3591 1036.06 16.84 1102.08 16.8399L1937.26 16.8399" stroke="#E1564F" stroke-width="33.4707"/>
</svg>
