<svg width="25" height="25" viewBox="0 0 25 25" fill="none" xmlns="http://www.w3.org/2000/svg">
    <path d="M22.9184 7.63867H2.08507C1.90089 7.63867 1.72426 7.71184 1.59402 7.84207C1.46379 7.9723 1.39063 8.14894 1.39062 8.33312C1.39063 8.51729 1.46379 8.69393 1.59402 8.82416C1.72426 8.9544 1.90089 9.02756 2.08507 9.02756H22.9184C23.1026 9.02756 23.2792 8.9544 23.4094 8.82416C23.5397 8.69393 23.6128 8.51729 23.6128 8.33312C23.6128 8.14894 23.5397 7.9723 23.4094 7.84207C23.2792 7.71184 23.1026 7.63867 22.9184 7.63867Z" fill="#382D4D" />
    <path d="M19.4427 11.8057H5.55382C5.36964 11.8057 5.19301 11.8788 5.06277 12.0091C4.93254 12.1393 4.85938 12.3159 4.85938 12.5001C4.85938 12.6843 4.93254 12.8609 5.06277 12.9912C5.19301 13.1214 5.36964 13.1946 5.55382 13.1946H19.4427C19.6269 13.1946 19.8035 13.1214 19.9338 12.9912C20.064 12.8609 20.1372 12.6843 20.1372 12.5001C20.1372 12.3159 20.064 12.1393 19.9338 12.0091C19.8035 11.8788 19.6269 11.8057 19.4427 11.8057Z" fill="#382D4D" />
    <path d="M15.9709 15.9722H9.02648C8.8423 15.9722 8.66566 16.0453 8.53543 16.1756C8.4052 16.3058 8.33203 16.4824 8.33203 16.6666C8.33203 16.8508 8.4052 17.0274 8.53543 17.1577C8.66566 17.2879 8.8423 17.3611 9.02648 17.3611H15.9709C16.1551 17.3611 16.3317 17.2879 16.462 17.1577C16.5922 17.0274 16.6654 16.8508 16.6654 16.6666C16.6654 16.4824 16.5922 16.3058 16.462 16.1756C16.3317 16.0453 16.1551 15.9722 15.9709 15.9722Z" fill="#382D4D" />
</svg>
