<svg version="1.1" id="Layer_1" xmlns="http://www.w3.org/2000/svg" xmlns:xlink="http://www.w3.org/1999/xlink" x="0px" y="0px"
	 viewBox="0 0 1440 238" style="enable-background:new 0 0 1440 238;" xml:space="preserve">
<style type="text/css">
	.st0{fill-rule:evenodd;clip-rule:evenodd;fill:#781AA8;}
</style>
<path class="st0" d="M328,134h784v32c0,4.4,3.6,8,8,8h240v56c0,4.4,3.6,8,8,8h64c4.4,0,8-3.6,8-8v-60.1c0.6-1.1,1-2.5,1-3.9v-32v-32
	V0L0,0l0,89.1c-0.6,1.1-1,2.5-1,3.9l0,83c0,4.4,3.6,8,8,8h313c4.4,0,8-3.6,8-8V134z"/>
</svg>
