<svg width="99" height="48" viewBox="0 0 99 48" fill="none" xmlns="http://www.w3.org/2000/svg">
    <path d="M57.4595 29.5408H54.1006V9.31445H57.4595V29.5408Z" fill="#357C8E" />
    <path
        d="M64.6016 9.31445V12.6623H61.2427V9.31445H64.6016ZM64.6016 14.5315V29.5408H61.2427V14.5315H64.6016Z"
        fill="#357C8E" />
    <path
        d="M71.7597 16.6244C72.6347 15.0621 74.2153 14.1973 76.3605 14.1973C80.0299 14.1973 81.5353 16.5221 81.5353 20.1117V29.5414H78.1764V20.9208C78.1764 18.9121 77.8941 16.9034 75.2973 16.9034C72.7005 16.9034 71.7691 18.8563 71.7691 21.5531V29.5414H68.4102V14.532H71.7597V16.6244Z"
        fill="#357C8E" />
    <path
        d="M95.0003 14.532H98.3592V34.4236H95.0003V27.5606C94.0971 29.0392 92.5164 29.8855 90.4841 29.8855C86.7583 29.8855 83.9639 26.8445 83.9639 22.0181C83.9639 17.1917 86.7583 14.1973 90.4841 14.1973C92.5164 14.1973 94.0971 15.0621 95.0003 16.5221V14.532ZM91.2368 16.9034C88.8846 16.9034 87.4733 18.8284 87.4733 22.0181C87.4733 25.2078 88.8564 27.1793 91.2368 27.1793C93.4102 27.1793 95.1602 25.4775 95.1602 22.0181C95.1602 18.5587 93.4008 16.9034 91.218 16.9034H91.2368Z"
        fill="#357C8E" />
    <path
        d="M30.1079 28.6503H37.6349V2.61185C37.6349 2.11857 37.4366 1.6455 37.0837 1.2967C36.7308 0.947904 36.2522 0.751953 35.7531 0.751953H1.88174C1.38268 0.751953 0.904045 0.947904 0.551149 1.2967C0.198253 1.6455 0 2.11857 0 2.61185V36.0899C0 36.5832 0.198253 37.0563 0.551149 37.405C0.904045 37.7538 1.38268 37.9498 1.88174 37.9498H28.2262V30.5102C28.2262 30.017 28.4244 29.5439 28.7773 29.1951C29.1302 28.8463 29.6088 28.6503 30.1079 28.6503Z"
        fill="#357C8E" />
    <path
        d="M45.1632 28.6504H37.6363V36.09C37.6363 36.5832 37.438 37.0563 37.0851 37.4051C36.7322 37.7539 36.2536 37.9498 35.7545 37.9498H28.2275V45.3894C28.2275 45.8827 28.4258 46.3558 28.7787 46.7045C29.1316 47.0533 29.6102 47.2493 30.1093 47.2493H45.1632C45.6623 47.2493 46.1409 47.0533 46.4938 46.7045C46.8467 46.3558 47.045 45.8827 47.045 45.3894V30.5103C47.045 30.017 46.8467 29.5439 46.4938 29.1951C46.1409 28.8463 45.6623 28.6504 45.1632 28.6504Z"
        fill="#357C8E" />
</svg>
