<svg width="110" height="88" viewBox="0 0 110 88" fill="none" xmlns="http://www.w3.org/2000/svg">
<path d="M64.2594 32.1962H60.5029V9.57617H64.2594V32.1962Z" fill="#50E649"/>
<path d="M72.2467 9.57617V13.3202H68.4902V9.57617H72.2467ZM72.2467 15.4106V32.1962H68.4902V15.4106H72.2467Z" fill="#50E649"/>
<path d="M80.2518 17.7505C81.2303 16.0033 82.998 15.0361 85.3971 15.0361C89.5008 15.0361 91.1843 17.6361 91.1843 21.6505V32.1961H87.4279V22.5553C87.4279 20.3089 87.1122 18.0625 84.2081 18.0625C81.304 18.0625 80.2623 20.2465 80.2623 23.2625V32.1961H76.5059V15.4105H80.2518V17.7505Z" fill="#50E649"/>
<path d="M106.243 15.4105H109.999V37.6561H106.243V29.9809C105.233 31.6345 103.465 32.5809 101.192 32.5809C97.0255 32.5809 93.9004 29.1801 93.9004 23.7825C93.9004 18.3849 97.0255 15.0361 101.192 15.0361C103.465 15.0361 105.233 16.0033 106.243 17.6361V15.4105ZM102.034 18.0625C99.4035 18.0625 97.8252 20.2153 97.8252 23.7825C97.8252 27.3497 99.3719 29.5545 102.034 29.5545C104.465 29.5545 106.422 27.6513 106.422 23.7825C106.422 19.9137 104.454 18.0625 102.013 18.0625H102.034Z" fill="#50E649"/>
<path d="M33.671 31.2H42.0888V2.08C42.0888 1.52835 41.8671 0.999292 41.4724 0.609216C41.0777 0.219141 40.5425 0 39.9843 0H2.10444C1.54631 0 1.01103 0.219141 0.616374 0.609216C0.221715 0.999292 0 1.52835 0 2.08V39.52C0 40.0716 0.221715 40.6007 0.616374 40.9908C1.01103 41.3809 1.54631 41.6 2.10444 41.6H31.5666V33.28C31.5666 32.7283 31.7883 32.1993 32.183 31.8092C32.5776 31.4191 33.1129 31.2 33.671 31.2Z" fill="#50E649"/>
<path d="M50.5083 31.2002H42.0905V39.5202C42.0905 40.0718 41.8688 40.6009 41.4742 40.991C41.0795 41.381 40.5442 41.6002 39.9861 41.6002H31.5684V49.9202C31.5684 50.4718 31.7901 51.0009 32.1847 51.391C32.5794 51.781 33.1147 52.0002 33.6728 52.0002H50.5083C51.0664 52.0002 51.6017 51.781 51.9964 51.391C52.391 51.0009 52.6127 50.4718 52.6127 49.9202V33.2802C52.6127 32.7285 52.391 32.1995 51.9964 31.8094C51.6017 31.4193 51.0664 31.2002 50.5083 31.2002Z" fill="#50E649"/>
<path d="M3.756 62.3C4.052 62.3 4.352 62.312 4.656 62.336C4.96 62.352 5.252 62.396 5.532 62.468C5.82 62.532 6.088 62.628 6.336 62.756C6.584 62.884 6.8 63.056 6.984 63.272C7.168 63.48 7.312 63.74 7.416 64.052C7.528 64.364 7.584 64.74 7.584 65.18C7.584 65.732 7.48 66.188 7.272 66.548C7.072 66.908 6.796 67.192 6.444 67.4C6.1 67.6 5.7 67.74 5.244 67.82C4.788 67.9 4.308 67.94 3.804 67.94H2.496V71H0.78V62.3H3.756ZM2.496 63.644V66.608H3.912C4.176 66.608 4.424 66.588 4.656 66.548C4.888 66.508 5.088 66.436 5.256 66.332C5.432 66.228 5.568 66.084 5.664 65.9C5.768 65.716 5.82 65.48 5.82 65.192C5.82 64.832 5.756 64.552 5.628 64.352C5.508 64.144 5.348 63.988 5.148 63.884C4.956 63.78 4.74 63.716 4.5 63.692C4.26 63.66 4.024 63.644 3.792 63.644H2.496ZM11.1801 65.696C10.7001 65.696 10.3241 65.876 10.0521 66.236C9.78806 66.588 9.65606 67.104 9.65606 67.784C9.65606 68.464 9.78806 68.98 10.0521 69.332C10.3241 69.684 10.7001 69.86 11.1801 69.86C11.6601 69.86 12.0321 69.684 12.2961 69.332C12.5681 68.98 12.7041 68.464 12.7041 67.784C12.7041 67.104 12.5681 66.588 12.2961 66.236C12.0321 65.876 11.6601 65.696 11.1801 65.696ZM11.1801 71.156C10.7561 71.156 10.3521 71.088 9.96806 70.952C9.58406 70.808 9.24406 70.596 8.94806 70.316C8.65206 70.036 8.41606 69.688 8.24006 69.272C8.06406 68.848 7.97606 68.352 7.97606 67.784C7.97606 67.216 8.06406 66.72 8.24006 66.296C8.41606 65.872 8.65206 65.52 8.94806 65.24C9.24406 64.96 9.58406 64.752 9.96806 64.616C10.3521 64.472 10.7561 64.4 11.1801 64.4C11.5961 64.4 11.9961 64.472 12.3801 64.616C12.7721 64.752 13.1161 64.96 13.4121 65.24C13.7081 65.52 13.9441 65.872 14.1201 66.296C14.2961 66.72 14.3841 67.216 14.3841 67.784C14.3841 68.352 14.2961 68.848 14.1201 69.272C13.9441 69.688 13.7081 70.036 13.4121 70.316C13.1161 70.596 12.7721 70.808 12.3801 70.952C11.9961 71.088 11.5961 71.156 11.1801 71.156ZM18.2113 64.544H19.9753L20.9953 68.996L21.8593 64.544H23.5033L21.9793 71H20.2753L19.0993 66.104L17.9113 71H16.2073L14.6953 64.544H16.3393L17.2033 69.008L18.2113 64.544ZM27.0838 71.156C26.5558 71.156 26.0878 71.068 25.6798 70.892C25.2798 70.708 24.9398 70.46 24.6598 70.148C24.3878 69.836 24.1798 69.476 24.0358 69.068C23.8998 68.652 23.8318 68.212 23.8318 67.748C23.8318 67.268 23.9078 66.824 24.0598 66.416C24.2118 66.008 24.4278 65.656 24.7078 65.36C24.9878 65.056 25.3238 64.82 25.7158 64.652C26.1078 64.484 26.5478 64.4 27.0358 64.4C27.5398 64.4 27.9878 64.492 28.3798 64.676C28.7798 64.86 29.1158 65.12 29.3878 65.456C29.6598 65.792 29.8598 66.196 29.9878 66.668C30.1238 67.14 30.1838 67.66 30.1678 68.228H25.4878C25.5038 68.708 25.6558 69.104 25.9438 69.416C26.2318 69.72 26.6078 69.872 27.0718 69.872C27.3438 69.872 27.5878 69.82 27.8038 69.716C28.0278 69.604 28.2238 69.408 28.3918 69.128H30.0958C30.0078 69.368 29.8838 69.608 29.7238 69.848C29.5718 70.088 29.3718 70.308 29.1238 70.508C28.8838 70.7 28.5958 70.856 28.2598 70.976C27.9238 71.096 27.5318 71.156 27.0838 71.156ZM26.9998 65.612C26.8318 65.612 26.6638 65.644 26.4958 65.708C26.3278 65.764 26.1718 65.856 26.0278 65.984C25.8918 66.104 25.7758 66.256 25.6798 66.44C25.5838 66.624 25.5238 66.84 25.4998 67.088H28.4878C28.4798 66.816 28.4318 66.588 28.3438 66.404C28.2558 66.212 28.1398 66.06 27.9958 65.948C27.8598 65.828 27.7038 65.744 27.5278 65.696C27.3598 65.64 27.1838 65.612 26.9998 65.612ZM34.9322 66.14C34.8122 66.124 34.6962 66.116 34.5842 66.116C34.4802 66.108 34.3682 66.104 34.2482 66.104C34.0402 66.104 33.8522 66.128 33.6842 66.176C33.5242 66.216 33.3842 66.292 33.2642 66.404C33.1442 66.516 33.0522 66.672 32.9882 66.872C32.9242 67.064 32.8922 67.312 32.8922 67.616V71H31.2362V64.544H32.8682V65.672C33.0522 65.272 33.2882 64.988 33.5762 64.82C33.8642 64.644 34.1962 64.556 34.5722 64.556C34.6282 64.556 34.6882 64.56 34.7522 64.568C34.8162 64.568 34.8762 64.572 34.9322 64.58V66.14ZM38.6151 71.156C38.0871 71.156 37.6191 71.068 37.2111 70.892C36.8111 70.708 36.4711 70.46 36.1911 70.148C35.9191 69.836 35.7111 69.476 35.5671 69.068C35.4311 68.652 35.3631 68.212 35.3631 67.748C35.3631 67.268 35.4391 66.824 35.5911 66.416C35.7431 66.008 35.9591 65.656 36.2391 65.36C36.5191 65.056 36.8551 64.82 37.2471 64.652C37.6391 64.484 38.0791 64.4 38.5671 64.4C39.0711 64.4 39.5191 64.492 39.9111 64.676C40.3111 64.86 40.6471 65.12 40.9191 65.456C41.1911 65.792 41.3911 66.196 41.5191 66.668C41.6551 67.14 41.7151 67.66 41.6991 68.228H37.0191C37.0351 68.708 37.1871 69.104 37.4751 69.416C37.7631 69.72 38.1391 69.872 38.6031 69.872C38.8751 69.872 39.1191 69.82 39.3351 69.716C39.5591 69.604 39.7551 69.408 39.9231 69.128H41.6271C41.5391 69.368 41.4151 69.608 41.2551 69.848C41.1031 70.088 40.9031 70.308 40.6551 70.508C40.4151 70.7 40.1271 70.856 39.7911 70.976C39.4551 71.096 39.0631 71.156 38.6151 71.156ZM38.5311 65.612C38.3631 65.612 38.1951 65.644 38.0271 65.708C37.8591 65.764 37.7031 65.856 37.5591 65.984C37.4231 66.104 37.3071 66.256 37.2111 66.44C37.1151 66.624 37.0551 66.84 37.0311 67.088H40.0191C40.0111 66.816 39.9631 66.588 39.8751 66.404C39.7871 66.212 39.6711 66.06 39.5271 65.948C39.3911 65.828 39.2351 65.744 39.0591 65.696C38.8911 65.64 38.7151 65.612 38.5311 65.612ZM46.9794 71V70.184C46.7714 70.544 46.4914 70.796 46.1394 70.94C45.7954 71.084 45.4554 71.156 45.1194 71.156C44.7194 71.156 44.3514 71.076 44.0154 70.916C43.6794 70.756 43.3874 70.532 43.1394 70.244C42.8914 69.948 42.6954 69.592 42.5514 69.176C42.4154 68.76 42.3474 68.292 42.3474 67.772C42.3474 67.268 42.4154 66.808 42.5514 66.392C42.6874 65.976 42.8794 65.62 43.1274 65.324C43.3754 65.028 43.6674 64.8 44.0034 64.64C44.3474 64.48 44.7194 64.4 45.1194 64.4C45.5274 64.4 45.8954 64.488 46.2234 64.664C46.5514 64.832 46.8034 65.068 46.9794 65.372V62.3H48.6354V71H46.9794ZM45.5274 69.884C45.9834 69.884 46.3474 69.7 46.6194 69.332C46.8994 68.956 47.0394 68.436 47.0394 67.772C47.0394 67.124 46.8994 66.612 46.6194 66.236C46.3474 65.86 45.9834 65.672 45.5274 65.672C45.0714 65.672 44.7154 65.868 44.4594 66.26C44.2114 66.644 44.0874 67.152 44.0874 67.784C44.0874 68.416 44.2114 68.924 44.4594 69.308C44.7154 69.692 45.0714 69.884 45.5274 69.884ZM55.9418 69.884C56.3978 69.884 56.7498 69.692 56.9978 69.308C57.2538 68.924 57.3818 68.416 57.3818 67.784C57.3818 67.152 57.2538 66.644 56.9978 66.26C56.7498 65.868 56.3978 65.672 55.9418 65.672C55.4858 65.672 55.1178 65.86 54.8378 66.236C54.5658 66.612 54.4298 67.124 54.4298 67.772C54.4298 68.436 54.5658 68.956 54.8378 69.332C55.1178 69.7 55.4858 69.884 55.9418 69.884ZM52.8338 71V62.3H54.4898V65.372C54.6658 65.068 54.9178 64.832 55.2458 64.664C55.5738 64.488 55.9418 64.4 56.3498 64.4C56.7498 64.4 57.1178 64.48 57.4538 64.64C57.7978 64.8 58.0898 65.028 58.3298 65.324C58.5778 65.62 58.7698 65.976 58.9058 66.392C59.0498 66.808 59.1218 67.268 59.1218 67.772C59.1218 68.292 59.0498 68.76 58.9058 69.176C58.7698 69.592 58.5778 69.948 58.3298 70.244C58.0818 70.532 57.7858 70.756 57.4418 70.916C57.1058 71.076 56.7418 71.156 56.3498 71.156C56.0138 71.156 55.6698 71.084 55.3178 70.94C54.9738 70.796 54.6978 70.544 54.4898 70.184V71H52.8338ZM60.1452 73.1V71.828H60.7692C60.9052 71.828 61.0252 71.824 61.1292 71.816C61.2332 71.816 61.3252 71.792 61.4052 71.744C61.4932 71.704 61.5692 71.636 61.6332 71.54C61.7052 71.452 61.7772 71.324 61.8492 71.156L61.9212 70.976L59.4492 64.544H61.2612L62.7252 69.2L64.2252 64.544H65.9052L63.5412 70.808C63.3492 71.312 63.1772 71.712 63.0252 72.008C62.8732 72.312 62.7012 72.544 62.5092 72.704C62.3172 72.864 62.0892 72.968 61.8252 73.016C61.5692 73.072 61.2412 73.1 60.8412 73.1H60.1452ZM76.9293 68.144C76.8733 68.584 76.7413 68.988 76.5333 69.356C76.3333 69.724 76.0693 70.044 75.7413 70.316C75.4133 70.58 75.0293 70.788 74.5893 70.94C74.1573 71.084 73.6813 71.156 73.1613 71.156C72.5133 71.156 71.9373 71.052 71.4333 70.844C70.9293 70.628 70.5013 70.324 70.1493 69.932C69.8053 69.532 69.5413 69.052 69.3573 68.492C69.1813 67.932 69.0933 67.304 69.0933 66.608C69.0933 65.92 69.1893 65.3 69.3813 64.748C69.5733 64.196 69.8453 63.728 70.1973 63.344C70.5573 62.96 70.9893 62.664 71.4933 62.456C72.0053 62.248 72.5773 62.144 73.2093 62.144C73.7213 62.144 74.1893 62.216 74.6133 62.36C75.0373 62.496 75.4093 62.696 75.7293 62.96C76.0493 63.216 76.3093 63.528 76.5093 63.896C76.7173 64.256 76.8573 64.664 76.9293 65.12H75.2973C75.2173 64.816 75.1053 64.564 74.9613 64.364C74.8253 64.156 74.6653 63.988 74.4813 63.86C74.3053 63.732 74.1053 63.644 73.8813 63.596C73.6653 63.54 73.4373 63.512 73.1973 63.512C72.8693 63.512 72.5613 63.58 72.2733 63.716C71.9933 63.844 71.7493 64.04 71.5413 64.304C71.3333 64.568 71.1693 64.892 71.0493 65.276C70.9293 65.66 70.8693 66.104 70.8693 66.608C70.8693 67.128 70.9293 67.588 71.0493 67.988C71.1693 68.38 71.3293 68.712 71.5293 68.984C71.7373 69.248 71.9773 69.448 72.2493 69.584C72.5293 69.72 72.8253 69.788 73.1373 69.788C73.3933 69.788 73.6373 69.76 73.8693 69.704C74.1013 69.64 74.3093 69.544 74.4933 69.416C74.6853 69.28 74.8493 69.108 74.9853 68.9C75.1213 68.692 75.2253 68.44 75.2973 68.144H76.9293ZM77.9343 73.1V71.828H78.5583C78.6943 71.828 78.8143 71.824 78.9183 71.816C79.0223 71.816 79.1143 71.792 79.1943 71.744C79.2823 71.704 79.3583 71.636 79.4223 71.54C79.4943 71.452 79.5663 71.324 79.6383 71.156L79.7103 70.976L77.2383 64.544H79.0503L80.5143 69.2L82.0143 64.544H83.6943L81.3303 70.808C81.1383 71.312 80.9663 71.712 80.8143 72.008C80.6623 72.312 80.4903 72.544 80.2983 72.704C80.1063 72.864 79.8783 72.968 79.6143 73.016C79.3583 73.072 79.0303 73.1 78.6303 73.1H77.9343ZM87.5473 69.884C88.0033 69.884 88.3553 69.692 88.6033 69.308C88.8593 68.924 88.9873 68.416 88.9873 67.784C88.9873 67.152 88.8593 66.644 88.6033 66.26C88.3553 65.868 88.0033 65.672 87.5473 65.672C87.0913 65.672 86.7233 65.86 86.4433 66.236C86.1713 66.612 86.0353 67.124 86.0353 67.772C86.0353 68.436 86.1713 68.956 86.4433 69.332C86.7233 69.7 87.0913 69.884 87.5473 69.884ZM84.4393 73.1V64.544H86.0953V65.372C86.2713 65.068 86.5233 64.832 86.8513 64.664C87.1793 64.488 87.5473 64.4 87.9553 64.4C88.3553 64.4 88.7233 64.48 89.0593 64.64C89.4033 64.8 89.6953 65.028 89.9353 65.324C90.1833 65.62 90.3753 65.976 90.5113 66.392C90.6553 66.808 90.7273 67.268 90.7273 67.772C90.7273 68.292 90.6553 68.76 90.5113 69.176C90.3753 69.592 90.1793 69.948 89.9233 70.244C89.6753 70.532 89.3793 70.756 89.0353 70.916C88.6993 71.076 88.3353 71.156 87.9433 71.156C87.6073 71.156 87.2673 71.084 86.9233 70.94C86.5793 70.796 86.3033 70.544 86.0953 70.184V73.1H84.4393ZM95.4947 66.14C95.3747 66.124 95.2587 66.116 95.1467 66.116C95.0427 66.108 94.9307 66.104 94.8107 66.104C94.6027 66.104 94.4147 66.128 94.2467 66.176C94.0867 66.216 93.9467 66.292 93.8267 66.404C93.7067 66.516 93.6147 66.672 93.5507 66.872C93.4867 67.064 93.4547 67.312 93.4547 67.616V71H91.7987V64.544H93.4307V65.672C93.6147 65.272 93.8507 64.988 94.1387 64.82C94.4267 64.644 94.7587 64.556 95.1347 64.556C95.1907 64.556 95.2507 64.56 95.3147 64.568C95.3787 64.568 95.4387 64.572 95.4947 64.58V66.14ZM100.318 70.148C100.134 70.476 99.8736 70.728 99.5376 70.904C99.2016 71.072 98.8336 71.156 98.4336 71.156C97.6576 71.156 97.1016 70.932 96.7656 70.484C96.4296 70.036 96.2616 69.416 96.2616 68.624V64.544H97.9176V68.264C97.9176 68.48 97.9296 68.684 97.9536 68.876C97.9776 69.06 98.0256 69.224 98.0976 69.368C98.1696 69.512 98.2736 69.624 98.4096 69.704C98.5536 69.784 98.7416 69.824 98.9736 69.824C99.2456 69.824 99.4696 69.772 99.6456 69.668C99.8216 69.564 99.9576 69.424 100.054 69.248C100.158 69.072 100.226 68.868 100.258 68.636C100.298 68.404 100.318 68.16 100.318 67.904V64.544H101.974V71H100.318V70.148ZM107.143 66.488C107.079 66.216 106.927 65.996 106.687 65.828C106.447 65.652 106.123 65.564 105.715 65.564C105.379 65.564 105.111 65.62 104.911 65.732C104.719 65.836 104.623 65.988 104.623 66.188C104.623 66.364 104.691 66.516 104.827 66.644C104.963 66.764 105.199 66.86 105.535 66.932L106.399 67.124C106.735 67.196 107.047 67.276 107.335 67.364C107.631 67.452 107.887 67.568 108.103 67.712C108.327 67.848 108.503 68.024 108.631 68.24C108.759 68.456 108.823 68.732 108.823 69.068C108.823 69.396 108.743 69.688 108.583 69.944C108.431 70.2 108.223 70.42 107.959 70.604C107.703 70.78 107.403 70.916 107.059 71.012C106.715 71.108 106.355 71.156 105.979 71.156C105.571 71.156 105.191 71.104 104.839 71C104.495 70.904 104.191 70.76 103.927 70.568C103.671 70.368 103.459 70.128 103.291 69.848C103.131 69.56 103.031 69.232 102.991 68.864H104.587C104.635 69.176 104.771 69.436 104.995 69.644C105.227 69.852 105.571 69.956 106.027 69.956C106.411 69.956 106.707 69.892 106.915 69.764C107.131 69.636 107.239 69.456 107.239 69.224C107.239 68.984 107.131 68.808 106.915 68.696C106.699 68.584 106.439 68.496 106.135 68.432L105.175 68.228C104.863 68.164 104.579 68.084 104.323 67.988C104.067 67.884 103.847 67.756 103.663 67.604C103.487 67.452 103.351 67.272 103.255 67.064C103.159 66.848 103.111 66.592 103.111 66.296C103.111 66.008 103.183 65.748 103.327 65.516C103.471 65.276 103.667 65.072 103.915 64.904C104.163 64.736 104.447 64.608 104.767 64.52C105.095 64.424 105.439 64.376 105.799 64.376C106.143 64.376 106.479 64.416 106.807 64.496C107.135 64.576 107.427 64.704 107.683 64.88C107.947 65.048 108.167 65.268 108.343 65.54C108.519 65.804 108.635 66.12 108.691 66.488H107.143ZM2.496 85H0.78V76.3H2.496V85ZM6.01725 77.692H3.34125V76.3H10.4213V77.692H7.73325V85H6.01725V77.692ZM13.9636 76.3H20.2996V77.692H15.6796V79.852H20.0476V81.244H15.6796V85H13.9636V76.3ZM23.8129 79.696C23.3329 79.696 22.9569 79.876 22.6849 80.236C22.4209 80.588 22.2889 81.104 22.2889 81.784C22.2889 82.464 22.4209 82.98 22.6849 83.332C22.9569 83.684 23.3329 83.86 23.8129 83.86C24.2929 83.86 24.6649 83.684 24.9289 83.332C25.2009 82.98 25.3369 82.464 25.3369 81.784C25.3369 81.104 25.2009 80.588 24.9289 80.236C24.6649 79.876 24.2929 79.696 23.8129 79.696ZM23.8129 85.156C23.3889 85.156 22.9849 85.088 22.6009 84.952C22.2169 84.808 21.8769 84.596 21.5809 84.316C21.2849 84.036 21.0489 83.688 20.8729 83.272C20.6969 82.848 20.6089 82.352 20.6089 81.784C20.6089 81.216 20.6969 80.72 20.8729 80.296C21.0489 79.872 21.2849 79.52 21.5809 79.24C21.8769 78.96 22.2169 78.752 22.6009 78.616C22.9849 78.472 23.3889 78.4 23.8129 78.4C24.2289 78.4 24.6289 78.472 25.0129 78.616C25.4049 78.752 25.7489 78.96 26.0449 79.24C26.3409 79.52 26.5769 79.872 26.7529 80.296C26.9289 80.72 27.0169 81.216 27.0169 81.784C27.0169 82.352 26.9289 82.848 26.7529 83.272C26.5769 83.688 26.3409 84.036 26.0449 84.316C25.7489 84.596 25.4049 84.808 25.0129 84.952C24.6289 85.088 24.2289 85.156 23.8129 85.156ZM31.7681 80.14C31.6481 80.124 31.5321 80.116 31.4201 80.116C31.3161 80.108 31.2041 80.104 31.0841 80.104C30.8761 80.104 30.6881 80.128 30.5201 80.176C30.3601 80.216 30.2201 80.292 30.1001 80.404C29.9801 80.516 29.8881 80.672 29.8241 80.872C29.7601 81.064 29.7281 81.312 29.7281 81.616V85H28.0721V78.544H29.7041V79.672C29.8881 79.272 30.1241 78.988 30.4121 78.82C30.7001 78.644 31.0321 78.556 31.4081 78.556C31.4641 78.556 31.5241 78.56 31.5881 78.568C31.6521 78.568 31.7121 78.572 31.7681 78.58V80.14ZM36.591 84.148C36.407 84.476 36.147 84.728 35.811 84.904C35.475 85.072 35.107 85.156 34.707 85.156C33.931 85.156 33.375 84.932 33.039 84.484C32.703 84.036 32.535 83.416 32.535 82.624V78.544H34.191V82.264C34.191 82.48 34.203 82.684 34.227 82.876C34.251 83.06 34.299 83.224 34.371 83.368C34.443 83.512 34.547 83.624 34.683 83.704C34.827 83.784 35.015 83.824 35.247 83.824C35.519 83.824 35.743 83.772 35.919 83.668C36.095 83.564 36.231 83.424 36.327 83.248C36.431 83.072 36.499 82.868 36.531 82.636C36.571 82.404 36.591 82.16 36.591 81.904V78.544H38.247V85H36.591V84.148ZM47.6763 81.244C47.6763 81.068 47.6683 80.892 47.6523 80.716C47.6363 80.532 47.5923 80.368 47.5203 80.224C47.4563 80.08 47.3523 79.964 47.2083 79.876C47.0723 79.78 46.8843 79.732 46.6443 79.732C46.3643 79.732 46.1403 79.788 45.9723 79.9C45.8043 80.004 45.6763 80.144 45.5883 80.32C45.5003 80.496 45.4403 80.7 45.4083 80.932C45.3763 81.156 45.3603 81.392 45.3603 81.64V85H43.7043V81.244C43.7043 81.068 43.6963 80.892 43.6803 80.716C43.6643 80.532 43.6203 80.368 43.5483 80.224C43.4843 80.08 43.3803 79.964 43.2363 79.876C43.1003 79.78 42.9123 79.732 42.6723 79.732C42.3923 79.732 42.1683 79.788 42.0003 79.9C41.8323 80.004 41.7043 80.144 41.6163 80.32C41.5283 80.496 41.4683 80.7 41.4363 80.932C41.4043 81.156 41.3883 81.392 41.3883 81.64V85H39.7323V78.544H41.3883V79.396C41.5723 79.076 41.8203 78.832 42.1323 78.664C42.4443 78.488 42.7963 78.4 43.1883 78.4C43.4603 78.4 43.6963 78.436 43.8963 78.508C44.1043 78.572 44.2803 78.656 44.4243 78.76C44.5683 78.856 44.6883 78.968 44.7843 79.096C44.8803 79.216 44.9603 79.336 45.0243 79.456C45.2803 79.096 45.5763 78.832 45.9123 78.664C46.2483 78.488 46.6603 78.4 47.1483 78.4C47.5563 78.4 47.8963 78.46 48.1683 78.58C48.4483 78.7 48.6723 78.872 48.8403 79.096C49.0163 79.32 49.1403 79.588 49.2123 79.9C49.2923 80.204 49.3323 80.548 49.3323 80.932V85H47.6763V81.244Z" fill="#50E649"/>
</svg>
