<svg width="202" height="236" viewBox="0 0 202 236" fill="none" xmlns="http://www.w3.org/2000/svg">
<path fill-rule="evenodd" clip-rule="evenodd" d="M8 0C3.58172 0 0 3.58172 0 8V189C0 193.418 3.58172 197 8 197H36V228C36 232.418 39.5817 236 44 236H154C158.418 236 162 232.418 162 228V118H72V8C72 3.58172 68.4183 0 64 0H8ZM72 118H44C39.5817 118 36 121.582 36 126V197H64C68.4183 197 72 193.418 72 189V118Z" fill="#F4A3DD"/>
<path d="M202 110C202 114.418 198.418 118 194 118L162 118L162 86C162 81.5817 165.582 78 170 78L194 78C198.418 78 202 81.5817 202 86L202 110Z" fill="#F4A3DD"/>
</svg>
