<svg width="60" height="44" viewBox="0 0 60 44" fill="none" xmlns="http://www.w3.org/2000/svg">
<path d="M10.9073 43.7814V40.8692C10.9073 39.7526 10.1869 39.0247 8.95195 39.0247C8.33461 39.0247 7.6657 39.2189 7.20258 39.8499C6.84258 39.3159 6.32813 39.0247 5.55633 39.0247C5.04164 39.0247 4.52742 39.1702 4.11563 39.7042V39.1218H3.03516V43.7814H4.11563V41.2088C4.11563 40.3839 4.57875 39.9954 5.29922 39.9954C6.01922 39.9954 6.37969 40.4323 6.37969 41.2088V43.7814H7.46016V41.2088C7.46016 40.3839 7.97438 39.9954 8.64328 39.9954C9.36375 39.9954 9.72375 40.4323 9.72375 41.2088V43.7814H10.9073ZM26.9084 39.1218H25.1592V37.7142H24.0788V39.1218H23.1012V40.0438H24.0785V42.1797C24.0785 43.2476 24.5416 43.8784 25.7766 43.8784C26.2397 43.8784 26.7539 43.733 27.1144 43.5388L26.8055 42.665C26.4968 42.8592 26.1368 42.9078 25.8795 42.9078C25.365 42.9078 25.1592 42.6166 25.1592 42.131V40.0438H26.9084V39.1218ZM36.0668 39.0245C35.4495 39.0245 35.0379 39.3159 34.7806 39.7042V39.1218H33.7001V43.7814H34.7806V41.1604C34.7806 40.3839 35.1405 39.947 35.8095 39.947C36.0152 39.947 36.2726 39.9956 36.4784 40.044L36.787 39.0734C36.5813 39.0247 36.2726 39.0247 36.0668 39.0247V39.0245ZM22.2265 39.5101C21.7118 39.1702 20.9916 39.0247 20.2198 39.0247C18.9851 39.0247 18.162 39.6071 18.162 40.5294C18.162 41.3061 18.7793 41.7428 19.8598 41.8885L20.3742 41.9371C20.9402 42.034 21.2489 42.1797 21.2489 42.4225C21.2489 42.7621 20.8373 43.0049 20.1169 43.0049C19.3966 43.0049 18.8306 42.7621 18.4704 42.5195L17.9559 43.2961C18.522 43.6843 19.2938 43.8784 20.0653 43.8784C21.506 43.8784 22.3294 43.2476 22.3294 42.3738C22.3294 41.5487 21.6605 41.1118 20.6313 40.9663L20.1169 40.9176C19.6538 40.869 19.2938 40.7721 19.2938 40.4809C19.2938 40.1411 19.6538 39.947 20.2198 39.947C20.8373 39.947 21.4547 40.1895 21.7634 40.3352L22.2265 39.5101ZM50.9363 39.0247C50.3187 39.0247 49.9071 39.3159 49.6498 39.7042V39.1218H48.5693V43.7814H49.6498V41.1604C49.6498 40.3839 50.01 39.947 50.6787 39.947C50.8847 39.947 51.142 39.9956 51.3478 40.044L51.6565 39.0734C51.4507 39.0247 51.142 39.0247 50.9363 39.0247ZM37.1473 41.4516C37.1473 42.8591 38.1762 43.8784 39.7713 43.8784C40.4916 43.8784 41.006 43.733 41.5205 43.3447L41.006 42.5195C40.5945 42.8107 40.1829 42.9562 39.7198 42.9562C38.8451 42.9562 38.2277 42.3738 38.2277 41.4516C38.2277 40.578 38.8451 39.9954 39.7198 39.947C40.1829 39.947 40.5945 40.0925 41.006 40.3839L41.5205 39.5587C41.006 39.1702 40.4916 39.0247 39.7713 39.0247C38.1762 39.0247 37.1473 40.044 37.1473 41.4516ZM47.1288 41.4516V39.1218H46.0484V39.7042C45.6881 39.2675 45.1737 39.0247 44.5048 39.0247C43.1156 39.0247 42.0352 40.044 42.0352 41.4516C42.0352 42.8591 43.1156 43.8784 44.5048 43.8784C45.225 43.8784 45.7397 43.6359 46.0484 43.199V43.7814H47.1288V41.4516ZM43.167 41.4516C43.167 40.6264 43.733 39.947 44.659 39.947C45.5337 39.947 46.1513 40.578 46.1513 41.4516C46.1513 42.2768 45.5337 42.9562 44.659 42.9562C43.733 42.9076 43.167 42.2768 43.167 41.4516ZM30.2529 39.0247C28.8122 39.0247 27.783 39.9954 27.783 41.4516C27.783 42.9078 28.812 43.8784 30.3042 43.8784C31.0245 43.8784 31.7449 43.6843 32.3109 43.2476L31.7963 42.5195C31.3847 42.8107 30.8702 43.0049 30.3558 43.0049C29.6869 43.0049 29.018 42.7137 28.8635 41.8883H32.5167V41.5002C32.5683 39.9954 31.642 39.0247 30.2527 39.0247H30.2529ZM30.2529 39.8983C30.9216 39.8983 31.3849 40.2868 31.4876 41.0149H28.9151C29.018 40.3839 29.4811 39.8983 30.2529 39.8983ZM57.0588 41.4516V37.2773H55.9784V39.7042C55.6181 39.2675 55.1037 39.0247 54.4348 39.0247C53.0456 39.0247 51.9652 40.044 51.9652 41.4516C51.9652 42.8591 53.0456 43.8784 54.4348 43.8784C55.1552 43.8784 55.6697 43.6359 55.9784 43.199V43.7814H57.0588V41.4516ZM53.0972 41.4516C53.0972 40.6264 53.663 39.947 54.5892 39.947C55.4639 39.947 56.0813 40.578 56.0813 41.4516C56.0813 42.2768 55.4639 42.9562 54.5892 42.9562C53.663 42.9076 53.0972 42.2768 53.0972 41.4516ZM16.9784 41.4516V39.1218H15.8979V39.7042C15.5377 39.2675 15.0232 39.0247 14.3543 39.0247C12.9652 39.0247 11.8847 40.044 11.8847 41.4516C11.8847 42.8591 12.9652 43.8784 14.3543 43.8784C15.0748 43.8784 15.5892 43.6359 15.8979 43.199V43.7814H16.9784V41.4516ZM12.9652 41.4516C12.9652 40.6264 13.5312 39.947 14.4572 39.947C15.3319 39.947 15.9495 40.578 15.9495 41.4516C15.9495 42.2768 15.3319 42.9562 14.4572 42.9562C13.5312 42.9076 12.9652 42.2768 12.9652 41.4516Z" fill="#808080"/>
<path d="M21.8672 3.7373H38.0742V31.2099H21.8672V3.7373Z" fill="#999898"/>
<path d="M22.8959 17.4737C22.8959 11.8919 25.6741 6.94094 29.9445 3.73735C26.8062 1.40756 22.8445 0 18.5227 0C8.28351 0 0 7.81453 0 17.4737C0 27.1327 8.28351 34.9475 18.5224 34.9475C22.8443 34.9475 26.8059 33.5399 29.9445 31.2099C25.6741 28.055 22.8959 23.0556 22.8959 17.4737Z" fill="#808080"/>
<path d="M59.9405 17.4737C59.9405 27.1327 51.657 34.9475 41.4181 34.9475C37.0962 34.9475 33.1346 33.5399 29.9961 31.2099C34.318 28.0066 37.0449 23.0556 37.0449 17.4737C37.0449 11.8919 34.2664 6.94094 29.9961 3.73735C33.1344 1.40756 37.0962 0 41.4181 0C51.657 0 59.9408 7.86318 59.9408 17.4737H59.9405Z" fill="#B0B0B0"/>
</svg>
