<svg width="61" height="44" viewBox="0 0 61 44" fill="none" xmlns="http://www.w3.org/2000/svg">
<g clip-path="url(#clip0_3912_26417)">
<path d="M11.3683 43.7814V40.8692C11.3683 39.7526 10.6478 39.0247 9.41289 39.0247C8.79555 39.0247 8.12664 39.2189 7.66352 39.8499C7.30352 39.3159 6.78906 39.0247 6.01727 39.0247C5.50258 39.0247 4.98836 39.1702 4.57656 39.7042V39.1218H3.49609V43.7814H4.57656V41.2088C4.57656 40.3839 5.03969 39.9954 5.76016 39.9954C6.48016 39.9954 6.84063 40.4323 6.84063 41.2088V43.7814H7.92109V41.2088C7.92109 40.3839 8.43531 39.9954 9.10422 39.9954C9.82469 39.9954 10.1847 40.4323 10.1847 41.2088V43.7814H11.3683ZM27.3693 39.1218H25.6202V37.7142H24.5397V39.1218H23.5621V40.0438H24.5395V42.1797C24.5395 43.2476 25.0026 43.8784 26.2375 43.8784C26.7006 43.8784 27.2148 43.733 27.5753 43.5388L27.2664 42.665C26.9577 42.8592 26.5977 42.9078 26.3404 42.9078C25.8259 42.9078 25.6202 42.6166 25.6202 42.131V40.0438H27.3693V39.1218ZM36.5277 39.0245C35.9104 39.0245 35.4988 39.3159 35.2415 39.7042V39.1218H34.161V43.7814H35.2415V41.1604C35.2415 40.3839 35.6015 39.947 36.2704 39.947C36.4762 39.947 36.7335 39.9956 36.9393 40.044L37.248 39.0734C37.0422 39.0247 36.7335 39.0247 36.5277 39.0247V39.0245ZM22.6874 39.5101C22.1727 39.1702 21.4525 39.0247 20.6807 39.0247C19.446 39.0247 18.6229 39.6071 18.6229 40.5294C18.6229 41.3061 19.2402 41.7428 20.3207 41.8885L20.8352 41.9371C21.4012 42.034 21.7098 42.1797 21.7098 42.4225C21.7098 42.7621 21.2983 43.0049 20.5778 43.0049C19.8576 43.0049 19.2916 42.7621 18.9313 42.5195L18.4169 43.2961C18.9829 43.6843 19.7547 43.8784 20.5263 43.8784C21.967 43.8784 22.7903 43.2476 22.7903 42.3738C22.7903 41.5487 22.1214 41.1118 21.0923 40.9663L20.5778 40.9176C20.1147 40.869 19.7547 40.7721 19.7547 40.4809C19.7547 40.1411 20.1147 39.947 20.6807 39.947C21.2983 39.947 21.9156 40.1895 22.2243 40.3352L22.6874 39.5101ZM51.3972 39.0247C50.7796 39.0247 50.3681 39.3159 50.1107 39.7042V39.1218H49.0302V43.7814H50.1107V41.1604C50.1107 40.3839 50.4709 39.947 51.1396 39.947C51.3456 39.947 51.603 39.9956 51.8088 40.044L52.1174 39.0734C51.9116 39.0247 51.603 39.0247 51.3972 39.0247ZM37.6082 41.4516C37.6082 42.8591 38.6371 43.8784 40.2323 43.8784C40.9525 43.8784 41.467 43.733 41.9814 43.3447L41.467 42.5195C41.0554 42.8107 40.6438 42.9562 40.1807 42.9562C39.306 42.9562 38.6887 42.3738 38.6887 41.4516C38.6887 40.578 39.306 39.9954 40.1807 39.947C40.6438 39.947 41.0554 40.0925 41.467 40.3839L41.9814 39.5587C41.467 39.1702 40.9525 39.0247 40.2323 39.0247C38.6371 39.0247 37.6082 40.044 37.6082 41.4516ZM47.5898 41.4516V39.1218H46.5093V39.7042C46.1491 39.2675 45.6346 39.0247 44.9657 39.0247C43.5766 39.0247 42.4961 40.044 42.4961 41.4516C42.4961 42.8591 43.5766 43.8784 44.9657 43.8784C45.6859 43.8784 46.2006 43.6359 46.5093 43.199V43.7814H47.5898V41.4516ZM43.6279 41.4516C43.6279 40.6264 44.1939 39.947 45.1199 39.947C45.9946 39.947 46.6122 40.578 46.6122 41.4516C46.6122 42.2768 45.9946 42.9562 45.1199 42.9562C44.1939 42.9076 43.6279 42.2768 43.6279 41.4516ZM30.7138 39.0247C29.2731 39.0247 28.244 39.9954 28.244 41.4516C28.244 42.9078 29.2729 43.8784 30.7652 43.8784C31.4854 43.8784 32.2059 43.6843 32.7719 43.2476L32.2572 42.5195C31.8456 42.8107 31.3312 43.0049 30.8167 43.0049C30.1478 43.0049 29.4789 42.7137 29.3245 41.8883H32.9777V41.5002C33.0292 39.9954 32.103 39.0247 30.7136 39.0247H30.7138ZM30.7138 39.8983C31.3825 39.8983 31.8459 40.2868 31.9485 41.0149H29.376C29.4789 40.3839 29.942 39.8983 30.7138 39.8983ZM57.5198 41.4516V37.2773H56.4393V39.7042C56.0791 39.2675 55.5646 39.0247 54.8957 39.0247C53.5066 39.0247 52.4261 40.044 52.4261 41.4516C52.4261 42.8591 53.5066 43.8784 54.8957 43.8784C55.6162 43.8784 56.1306 43.6359 56.4393 43.199V43.7814H57.5198V41.4516ZM53.5581 41.4516C53.5581 40.6264 54.1239 39.947 55.0502 39.947C55.9248 39.947 56.5422 40.578 56.5422 41.4516C56.5422 42.2768 55.9248 42.9562 55.0502 42.9562C54.1239 42.9076 53.5581 42.2768 53.5581 41.4516ZM17.4393 41.4516V39.1218H16.3588V39.7042C15.9986 39.2675 15.4841 39.0247 14.8152 39.0247C13.4261 39.0247 12.3456 40.044 12.3456 41.4516C12.3456 42.8591 13.4261 43.8784 14.8152 43.8784C15.5357 43.8784 16.0502 43.6359 16.3588 43.199V43.7814H17.4393V41.4516ZM13.4261 41.4516C13.4261 40.6264 13.9921 39.947 14.9181 39.947C15.7928 39.947 16.4104 40.578 16.4104 41.4516C16.4104 42.2768 15.7928 42.9562 14.9181 42.9562C13.9921 42.9076 13.4261 42.2768 13.4261 41.4516Z" fill="#F5DDB7"/>
<path opacity="0.5" d="M22.3281 3.73828H38.5352V31.2109H22.3281V3.73828Z" fill="#F5DDB7"/>
<path d="M23.3568 17.4737C23.3568 11.8919 26.1351 6.94094 30.4054 3.73735C27.2671 1.40756 23.3055 0 18.9836 0C8.74445 0 0.460938 7.81453 0.460938 17.4737C0.460938 27.1327 8.74445 34.9475 18.9834 34.9475C23.3052 34.9475 27.2669 33.5399 30.4054 31.2099C26.1351 28.055 23.3568 23.0556 23.3568 17.4737Z" fill="#F5DDB7"/>
<path d="M60.4015 17.4737C60.4015 27.1327 52.118 34.9475 41.8791 34.9475C37.5572 34.9475 33.5955 33.5399 30.457 31.2099C34.7789 28.0066 37.5059 23.0556 37.5059 17.4737C37.5059 11.8919 34.7273 6.94094 30.457 3.73735C33.5953 1.40756 37.5572 0 41.8791 0C52.118 0 60.4017 7.86318 60.4017 17.4737H60.4015Z" fill="#F5DDB7"/>
</g>
<defs>
<clipPath id="clip0_3912_26417">
<rect width="60" height="44" fill="white" transform="translate(0.460938)"/>
</clipPath>
</defs>
</svg>
