<svg width="614" height="537" viewBox="0 0 614 537" fill="none" xmlns="http://www.w3.org/2000/svg">
<path d="M184.722 431.014H361.878C366.056 431.014 369.443 434.401 369.443 438.579V540.615H184.722V431.014Z" fill="#F4A3DD"/>
<path d="M307.869 369.44H492.59V540.615H307.869V369.44Z" fill="#C859FF"/>
<path d="M618.435 -3.30675e-07C622.613 -1.48049e-07 626 3.38695 626 7.56496L626 61.5738L554.164 61.5738L554.164 7.56496C554.164 3.38695 557.551 -2.99201e-06 561.729 -2.80938e-06L618.435 -3.30675e-07Z" fill="#50E649"/>
<path d="M554.16 369.44H615.734V492.588H561.725C557.547 492.588 554.16 489.201 554.16 485.023V369.44Z" fill="#50E649"/>
<path fill-rule="evenodd" clip-rule="evenodd" d="M500.158 61.5703C495.98 61.5703 492.593 64.9573 492.593 69.1353V184.718H438.584C434.406 184.718 431.02 188.105 431.02 192.283V369.439H615.74V191.559C615.74 191.536 615.74 191.513 615.74 191.489V61.5703H500.158ZM615.74 191.489C615.702 187.743 612.654 184.718 608.899 184.718H492.593V238.726C492.593 242.904 495.98 246.291 500.158 246.291H608.175C612.353 246.291 615.74 242.904 615.74 238.726V191.489Z" fill="#C859FF"/>
<path fill-rule="evenodd" clip-rule="evenodd" d="M130.711 246.292C126.533 246.292 123.146 249.678 123.146 253.856V307.864H7.56495C3.38695 307.864 0 311.251 0 315.429V485.02C0 489.198 3.38695 492.585 7.56496 492.585H184.721V369.439H307.867V253.856C307.867 249.678 304.48 246.292 300.302 246.292H130.711ZM184.721 369.439V315.429C184.721 311.251 181.334 307.864 177.156 307.864H123.146V361.874C123.146 366.052 126.533 369.439 130.711 369.439H184.721Z" fill="#C859FF"/>
</svg>
