<svg width="174" height="545" viewBox="0 0 174 545" fill="none" xmlns="http://www.w3.org/2000/svg">
    <path d="M-80 420C-80 415.582 -76.4183 412 -72 412H41C45.4183 412 49 415.582 49 420V537C49 541.418 45.4183 545 41 545H-80V420Z" fill="#60E771" />
    <path fill-rule="evenodd" clip-rule="evenodd" d="M116 124.125C120.418 124.125 124 127.707 124 132.125V190H166C170.418 190 174 193.582 174 198V423C174 427.418 170.418 431 166 431H129V511C129 515.418 125.418 519 121 519H57C52.5817 519 49 515.418 49 511V431H-41C-45.4183 431 -49 427.418 -49 423V198C-49 193.582 -45.4183 190 -41 190H0V181.511C0.00602722 185.924 3.58544 189.5 7.99999 189.5L54 189.5C58.4183 189.5 62 185.918 62 181.5V124.125L116 124.125ZM62 124.125H8C3.58173 124.125 3.8147e-06 127.707 0 132.125V0L54 2.36042e-06C58.4183 2.55354e-06 62 3.58173 62 8L62 124.125Z" fill="#C859FF" />
</svg>
