<svg width="2340" height="325" viewBox="0 0 2340 325" fill="none" xmlns="http://www.w3.org/2000/svg">
    <path
        d="M2340 312.713L905.954 312.713C861.771 312.713 825.954 276.896 825.954 232.713L825.954 183.515C825.954 139.332 790.137 103.515 745.954 103.515L28.576 103.515"
        stroke="#357C8E" stroke-width="24" />
    <path
        d="M2338.69 294.562L884.062 294.562C839.88 294.562 804.063 258.745 804.063 214.562L804.063 165.228C804.063 121.046 768.245 85.2284 724.063 85.2284L12.2215 85.2283"
        stroke="#4DB0B2" stroke-width="24" />
    <path
        d="M2330.87 275.34L860.819 275.34C816.636 275.34 780.819 239.522 780.819 195.34L780.819 146.552C780.819 102.369 745.002 66.552 700.819 66.552L27.3159 66.552"
        stroke="#6AC2C0" stroke-width="24" />
    <path
        d="M2328.26 256.838L837.576 256.838C793.393 256.838 757.576 221.02 757.576 176.838L757.576 128.569C757.576 84.3867 721.759 48.5695 677.576 48.5695L7.72585 48.5694"
        stroke="#EEBA44" stroke-width="24" />
    <path
        d="M2324.35 238.17L814.34 238.17C770.158 238.17 734.34 202.353 734.34 158.17L734.34 110.586C734.34 66.4035 698.523 30.5862 654.34 30.5862L0.816673 30.5862"
        stroke="#E68549" stroke-width="24" />
    <path
        d="M2320.44 219.2L791.092 219.201C746.909 219.201 711.092 183.384 711.092 139.201L711.092 92.5969C711.092 48.4141 675.275 12.5969 631.092 12.5969L17.8833 12.5968"
        stroke="#E1564F" stroke-width="24" />
</svg>
