<svg width="1440" height="488" viewBox="0 0 1440 488" fill="none" xmlns="http://www.w3.org/2000/svg">
<path d="M728.313 301.463L265.929 301.463C214.627 301.463 173.038 259.874 173.038 208.572V208.572C173.038 157.27 131.45 115.681 80.1477 115.681L-742.045 115.681" stroke="#357C8E" stroke-width="28"/>
<path d="M727.777 281.182L241.541 281.182C190.197 281.182 148.574 239.559 148.574 188.215V188.215C148.574 136.87 106.951 95.2476 55.6072 95.2476L-760.32 95.2475" stroke="#4DB0B2" stroke-width="28"/>
<path d="M728.134 259.699L215.261 259.699C164.086 259.699 122.6 218.213 122.6 167.037V167.037C122.6 115.862 81.1138 74.3757 29.9381 74.3757L-743.45 74.3756" stroke="#6AC2C0" stroke-width="28"/>
<path d="M713.81 239.019L188.998 239.019C137.982 239.019 96.6262 197.663 96.6262 146.648V146.648C96.6262 95.6326 55.2701 54.2764 4.25474 54.2764L-741.342 54.2764" stroke="#EEBA44" stroke-width="28"/>
<path d="M685.162 218.16L162.641 218.16C111.837 218.16 70.6521 176.975 70.6521 126.171V126.171C70.6521 75.3671 29.4672 34.1822 -21.3369 34.1822L-749.073 34.1822" stroke="#E68549" stroke-width="28"/>
<path d="M662.482 196.965L136.119 196.965C85.6175 196.965 44.6777 156.025 44.6777 105.523V105.523C44.6777 55.0215 3.73793 14.0817 -46.7639 14.0817L-753.994 14.0816" stroke="#E1564F" stroke-width="28"/>
<path d="M2392.13 473.092L1503.87 473.092C1456.48 473.092 1418.05 434.67 1418.05 387.274V387.274C1418.05 339.878 1379.63 301.457 1332.24 301.457L698.604 301.457" stroke="#357C8E" stroke-width="28"/>
<path d="M2400.73 455.057L1479.61 455.057C1431.58 455.057 1392.64 416.115 1392.64 368.077V368.077C1392.64 320.04 1353.69 281.098 1305.66 281.098L698.604 281.098" stroke="#4DB0B2" stroke-width="28"/>
<path d="M2395.95 434.902L1454.08 434.902C1405.8 434.902 1366.66 395.763 1366.66 347.483V347.483C1366.66 299.202 1327.52 260.063 1279.24 260.063L699.065 260.063" stroke="#6AC2C0" stroke-width="28"/>
<path d="M2394.04 415.502L1428.93 415.502C1380.19 415.502 1340.69 375.997 1340.69 327.265V327.265C1340.69 278.532 1301.18 239.027 1252.45 239.027L684.342 239.027" stroke="#EEBA44" stroke-width="28"/>
<path d="M2392.13 395.935L1403.68 395.935C1354.55 395.935 1314.71 356.103 1314.71 306.967V306.967C1314.71 257.831 1274.88 217.999 1225.74 217.999L656.505 217.999" stroke="#E68549" stroke-width="28"/>
<path d="M2413.14 376.049L1378.28 376.049C1328.83 376.049 1288.74 335.958 1288.74 286.504V286.504C1288.74 237.05 1248.65 196.959 1199.19 196.959L633.5 196.959" stroke="#E1564F" stroke-width="28"/>
</svg>
