<svg width="360" height="247" viewBox="0 0 360 247" fill="none" xmlns="http://www.w3.org/2000/svg">
    <path
        d="M551.494 220.07V142.299C551.494 123.774 551.474 110.867 550.237 101.4C549.013 92.0383 546.829 88.1879 544.252 85.9976C541.335 83.5176 535.934 81.4323 524.247 80.3284C512.754 79.2428 497.22 79.2322 475.557 79.2322H-74.0938V59.4395H476.115C497.1 59.4394 513.572 59.4393 526.107 60.6233C538.56 61.7996 549.252 64.2744 557.063 70.9148C565.215 77.8449 568.396 87.675 569.854 98.834C571.279 109.737 571.279 123.947 571.279 141.565V220.07H551.494Z"
        fill="#357C8E" />
    <path
        d="M525.514 220.07V130.576C525.514 112.052 525.494 99.1444 524.257 89.6775C523.033 80.3157 520.849 76.4652 518.272 74.2749C515.355 71.7949 509.954 69.7096 498.267 68.6058C486.774 67.5202 471.24 67.5095 449.577 67.5095H-100.074V47.7168H450.135C471.12 47.7167 487.592 47.7166 500.127 48.9007C512.58 50.0769 523.272 52.5518 531.083 59.1922C539.235 66.1222 542.416 75.9523 543.874 87.1113C545.299 98.0143 545.299 112.225 545.299 129.842V220.07H525.514Z"
        fill="#4DB0B2" />
    <path
        d="M499.535 220.072V118.855C499.535 100.331 499.514 87.4237 498.277 77.9568C497.053 68.595 494.869 64.7445 492.293 62.5542C489.375 60.0742 483.974 57.9889 472.288 56.8851C460.795 55.7995 445.261 55.7888 423.598 55.7888H-126.053V35.9961H424.155C445.141 35.996 461.612 35.9959 474.148 37.18C486.6 38.3562 497.292 40.8311 505.104 47.4715C513.256 54.4015 516.436 64.2316 517.895 75.3906C519.32 86.2936 519.32 100.504 519.319 118.121V220.072H499.535Z"
        fill="#6AC2C0" />
    <path
        d="M473.565 220.071V106.985C473.565 88.4938 473.545 75.6094 472.308 66.1594C471.085 56.8142 468.902 52.9706 466.326 50.7842C463.411 48.3087 458.012 46.2271 446.331 45.1252C434.844 44.0415 419.318 44.0309 397.665 44.0309H-151.716V24.2734H398.222C419.198 24.2733 435.661 24.2733 448.19 25.4552C460.637 26.6293 471.324 29.0998 479.131 35.7283C487.279 42.6461 490.458 52.4586 491.916 63.5977C493.34 74.4813 493.34 88.6663 493.34 106.252V220.071H473.565Z"
        fill="#EEBA44" />
    <path
        d="M447.565 220.071V94.7754C447.565 76.2511 447.545 63.3436 446.307 53.8768C445.083 44.5149 442.898 40.6644 440.32 38.4741C437.401 35.9942 431.998 33.9088 420.305 32.805C408.806 31.7194 393.265 31.7087 371.591 31.7087H-178.33V11.916H372.149C393.145 11.9159 409.624 11.9158 422.166 13.0999C434.625 14.2761 445.322 16.751 453.137 23.3914C461.293 30.3214 464.475 40.1515 465.934 51.3106C467.36 62.2135 467.36 76.4239 467.36 94.0414V220.071H447.565Z"
        fill="#E68549" />
    <path
        d="M421.596 220.07V83.0527C421.596 64.5284 421.576 51.6209 420.338 42.1541C419.115 32.7923 416.93 28.9418 414.354 26.7515C411.436 24.2715 406.036 22.1862 394.349 21.0823C382.856 19.9967 367.322 19.9861 345.659 19.9861H-203.992V0.193361H346.216C367.202 0.193262 383.673 0.193192 396.209 1.37722C408.661 2.55346 419.354 5.02832 427.165 11.6687C435.317 18.5988 438.497 28.4289 439.956 39.5879C441.381 50.4909 441.381 64.7012 441.38 82.3187V220.07H421.596Z"
        fill="#E1564F" />
</svg>
