<svg width="479" height="8" viewBox="0 0 479 8" fill="none" xmlns="http://www.w3.org/2000/svg">
<line y1="-1" x2="6" y2="-1" transform="matrix(0.707107 -0.707107 -0.707107 -0.707107 0.236328 5.24414)" stroke="#357C8E" stroke-width="2"/>
<line y1="-1" x2="6" y2="-1" transform="matrix(0.707107 -0.707107 -0.707107 -0.707107 16.9023 5.24414)" stroke="#357C8E" stroke-width="2"/>
<line y1="-1" x2="6" y2="-1" transform="matrix(0.707107 -0.707107 -0.707107 -0.707107 33.5684 5.24414)" stroke="#357C8E" stroke-width="2"/>
<line y1="-1" x2="6" y2="-1" transform="matrix(0.707107 -0.707107 -0.707107 -0.707107 50.2344 5.24414)" stroke="#357C8E" stroke-width="2"/>
<line y1="-1" x2="6" y2="-1" transform="matrix(0.707107 -0.707107 -0.707107 -0.707107 66.9004 5.24414)" stroke="#357C8E" stroke-width="2"/>
<line y1="-1" x2="6" y2="-1" transform="matrix(0.707107 -0.707107 -0.707107 -0.707107 83.5664 5.24414)" stroke="#357C8E" stroke-width="2"/>
<line y1="-1" x2="6" y2="-1" transform="matrix(0.707107 -0.707107 -0.707107 -0.707107 100.232 5.24414)" stroke="#357C8E" stroke-width="2"/>
<line y1="-1" x2="6" y2="-1" transform="matrix(0.707107 -0.707107 -0.707107 -0.707107 116.898 5.24414)" stroke="#357C8E" stroke-width="2"/>
<line y1="-1" x2="6" y2="-1" transform="matrix(0.707107 -0.707107 -0.707107 -0.707107 133.564 5.24414)" stroke="#357C8E" stroke-width="2"/>
<line y1="-1" x2="6" y2="-1" transform="matrix(0.707107 -0.707107 -0.707107 -0.707107 150.23 5.24414)" stroke="#357C8E" stroke-width="2"/>
<line y1="-1" x2="6" y2="-1" transform="matrix(0.707107 -0.707107 -0.707107 -0.707107 166.896 5.24414)" stroke="#357C8E" stroke-width="2"/>
<line y1="-1" x2="6" y2="-1" transform="matrix(0.707107 -0.707107 -0.707107 -0.707107 183.562 5.24414)" stroke="#357C8E" stroke-width="2"/>
<line y1="-1" x2="6" y2="-1" transform="matrix(0.707107 -0.707107 -0.707107 -0.707107 200.229 5.24414)" stroke="#357C8E" stroke-width="2"/>
<line y1="-1" x2="6" y2="-1" transform="matrix(0.707107 -0.707107 -0.707107 -0.707107 216.895 5.24414)" stroke="#357C8E" stroke-width="2"/>
<line y1="-1" x2="6" y2="-1" transform="matrix(0.707107 -0.707107 -0.707107 -0.707107 233.561 5.24414)" stroke="#357C8E" stroke-width="2"/>
<line y1="-1" x2="6" y2="-1" transform="matrix(0.707107 -0.707107 -0.707107 -0.707107 250.227 5.24414)" stroke="#357C8E" stroke-width="2"/>
<line y1="-1" x2="6" y2="-1" transform="matrix(0.707107 -0.707107 -0.707107 -0.707107 266.893 5.24414)" stroke="#357C8E" stroke-width="2"/>
<line y1="-1" x2="6" y2="-1" transform="matrix(0.707107 -0.707107 -0.707107 -0.707107 283.559 5.24414)" stroke="#357C8E" stroke-width="2"/>
<line y1="-1" x2="6" y2="-1" transform="matrix(0.707107 -0.707107 -0.707107 -0.707107 384.555 5.24023)" stroke="#357C8E" stroke-width="2"/>
<line y1="-1" x2="6" y2="-1" transform="matrix(0.707107 -0.707107 -0.707107 -0.707107 300.225 5.24414)" stroke="#357C8E" stroke-width="2"/>
<line y1="-1" x2="6" y2="-1" transform="matrix(0.707107 -0.707107 -0.707107 -0.707107 401.221 5.24023)" stroke="#357C8E" stroke-width="2"/>
<line y1="-1" x2="6" y2="-1" transform="matrix(0.707107 -0.707107 -0.707107 -0.707107 316.891 5.24414)" stroke="#357C8E" stroke-width="2"/>
<line y1="-1" x2="6" y2="-1" transform="matrix(0.707107 -0.707107 -0.707107 -0.707107 417.887 5.24023)" stroke="#357C8E" stroke-width="2"/>
<line y1="-1" x2="6" y2="-1" transform="matrix(0.707107 -0.707107 -0.707107 -0.707107 333.557 5.24414)" stroke="#357C8E" stroke-width="2"/>
<line y1="-1" x2="6" y2="-1" transform="matrix(0.707107 -0.707107 -0.707107 -0.707107 434.553 5.24023)" stroke="#357C8E" stroke-width="2"/>
<line y1="-1" x2="6" y2="-1" transform="matrix(0.707107 -0.707107 -0.707107 -0.707107 350.223 5.24414)" stroke="#357C8E" stroke-width="2"/>
<line y1="-1" x2="6" y2="-1" transform="matrix(0.707107 -0.707107 -0.707107 -0.707107 451.219 5.24023)" stroke="#357C8E" stroke-width="2"/>
<line y1="-1" x2="6" y2="-1" transform="matrix(0.707107 -0.707107 -0.707107 -0.707107 366.889 5.24414)" stroke="#357C8E" stroke-width="2"/>
<line y1="-1" x2="6" y2="-1" transform="matrix(0.707107 -0.707107 -0.707107 -0.707107 467.885 5.24023)" stroke="#357C8E" stroke-width="2"/>
<g opacity="0.2">
<line y1="-1" x2="6" y2="-1" transform="matrix(0.707107 -0.707107 -0.707107 -0.707107 5.47852 6.24414)" stroke="#357C8E" stroke-width="2"/>
<line y1="-1" x2="6" y2="-1" transform="matrix(0.707107 -0.707107 -0.707107 -0.707107 22.1445 6.24414)" stroke="#357C8E" stroke-width="2"/>
<line y1="-1" x2="6" y2="-1" transform="matrix(0.707107 -0.707107 -0.707107 -0.707107 38.8105 6.24414)" stroke="#357C8E" stroke-width="2"/>
<line y1="-1" x2="6" y2="-1" transform="matrix(0.707107 -0.707107 -0.707107 -0.707107 55.4766 6.24414)" stroke="#357C8E" stroke-width="2"/>
<line y1="-1" x2="6" y2="-1" transform="matrix(0.707107 -0.707107 -0.707107 -0.707107 72.1426 6.24414)" stroke="#357C8E" stroke-width="2"/>
<line y1="-1" x2="6" y2="-1" transform="matrix(0.707107 -0.707107 -0.707107 -0.707107 88.8086 6.24414)" stroke="#357C8E" stroke-width="2"/>
<line y1="-1" x2="6" y2="-1" transform="matrix(0.707107 -0.707107 -0.707107 -0.707107 105.475 6.24414)" stroke="#357C8E" stroke-width="2"/>
<line y1="-1" x2="6" y2="-1" transform="matrix(0.707107 -0.707107 -0.707107 -0.707107 122.141 6.24414)" stroke="#357C8E" stroke-width="2"/>
<line y1="-1" x2="6" y2="-1" transform="matrix(0.707107 -0.707107 -0.707107 -0.707107 138.807 6.24414)" stroke="#357C8E" stroke-width="2"/>
<line y1="-1" x2="6" y2="-1" transform="matrix(0.707107 -0.707107 -0.707107 -0.707107 155.473 6.24414)" stroke="#357C8E" stroke-width="2"/>
<line y1="-1" x2="6" y2="-1" transform="matrix(0.707107 -0.707107 -0.707107 -0.707107 172.139 6.24414)" stroke="#357C8E" stroke-width="2"/>
<line y1="-1" x2="6" y2="-1" transform="matrix(0.707107 -0.707107 -0.707107 -0.707107 188.805 6.24414)" stroke="#357C8E" stroke-width="2"/>
<line y1="-1" x2="6" y2="-1" transform="matrix(0.707107 -0.707107 -0.707107 -0.707107 205.471 6.24414)" stroke="#357C8E" stroke-width="2"/>
<line y1="-1" x2="6" y2="-1" transform="matrix(0.707107 -0.707107 -0.707107 -0.707107 222.137 6.24414)" stroke="#357C8E" stroke-width="2"/>
<line y1="-1" x2="6" y2="-1" transform="matrix(0.707107 -0.707107 -0.707107 -0.707107 238.803 6.24414)" stroke="#357C8E" stroke-width="2"/>
<line y1="-1" x2="6" y2="-1" transform="matrix(0.707107 -0.707107 -0.707107 -0.707107 255.469 6.24414)" stroke="#357C8E" stroke-width="2"/>
<line y1="-1" x2="6" y2="-1" transform="matrix(0.707107 -0.707107 -0.707107 -0.707107 272.135 6.24414)" stroke="#357C8E" stroke-width="2"/>
<line y1="-1" x2="6" y2="-1" transform="matrix(0.707107 -0.707107 -0.707107 -0.707107 288.801 6.24414)" stroke="#357C8E" stroke-width="2"/>
<line y1="-1" x2="6" y2="-1" transform="matrix(0.707107 -0.707107 -0.707107 -0.707107 389.797 6.24023)" stroke="#357C8E" stroke-width="2"/>
<line y1="-1" x2="6" y2="-1" transform="matrix(0.707107 -0.707107 -0.707107 -0.707107 305.467 6.24414)" stroke="#357C8E" stroke-width="2"/>
<line y1="-1" x2="6" y2="-1" transform="matrix(0.707107 -0.707107 -0.707107 -0.707107 406.463 6.24023)" stroke="#357C8E" stroke-width="2"/>
<line y1="-1" x2="6" y2="-1" transform="matrix(0.707107 -0.707107 -0.707107 -0.707107 322.133 6.24414)" stroke="#357C8E" stroke-width="2"/>
<line y1="-1" x2="6" y2="-1" transform="matrix(0.707107 -0.707107 -0.707107 -0.707107 423.129 6.24023)" stroke="#357C8E" stroke-width="2"/>
<line y1="-1" x2="6" y2="-1" transform="matrix(0.707107 -0.707107 -0.707107 -0.707107 338.799 6.24414)" stroke="#357C8E" stroke-width="2"/>
<line y1="-1" x2="6" y2="-1" transform="matrix(0.707107 -0.707107 -0.707107 -0.707107 439.795 6.24023)" stroke="#357C8E" stroke-width="2"/>
<line y1="-1" x2="6" y2="-1" transform="matrix(0.707107 -0.707107 -0.707107 -0.707107 355.465 6.24414)" stroke="#357C8E" stroke-width="2"/>
<line y1="-1" x2="6" y2="-1" transform="matrix(0.707107 -0.707107 -0.707107 -0.707107 456.461 6.24023)" stroke="#357C8E" stroke-width="2"/>
<line y1="-1" x2="6" y2="-1" transform="matrix(0.707107 -0.707107 -0.707107 -0.707107 372.131 6.24414)" stroke="#357C8E" stroke-width="2"/>
<line y1="-1" x2="6" y2="-1" transform="matrix(0.707107 -0.707107 -0.707107 -0.707107 473.127 6.24023)" stroke="#357C8E" stroke-width="2"/>
</g>
</svg>
