<svg width="2355" height="535" viewBox="0 0 2355 535" fill="none" xmlns="http://www.w3.org/2000/svg">
<path d="M2311.68 476.222V308.119C2311.68 268.078 2311.64 240.179 2308.96 219.716C2306.32 199.48 2301.6 191.158 2296.03 186.423C2289.72 181.063 2278.05 176.555 2252.79 174.169C2227.94 171.823 2194.37 171.8 2147.54 171.8L5.80451 171.8V129.018L2148.75 129.018C2194.11 129.017 2229.71 129.017 2256.81 131.577C2283.72 134.119 2306.83 139.468 2323.72 153.822C2341.34 168.801 2348.21 190.049 2351.37 214.169C2354.45 237.736 2354.45 268.452 2354.44 306.532V476.222H2311.68Z" fill="#357C8E"/>
<path d="M2255.52 476.013V282.572C2255.52 242.532 2255.48 214.632 2252.81 194.169C2250.16 173.933 2245.44 165.611 2239.87 160.876C2233.56 155.516 2221.89 151.008 2196.63 148.622C2171.79 146.276 2138.21 146.253 2091.39 146.253L5.80451 146.253V103.471L2092.59 103.471C2137.95 103.47 2173.55 103.47 2200.65 106.03C2227.57 108.572 2250.68 113.922 2267.56 128.275C2285.18 143.254 2292.06 164.502 2295.21 188.622C2298.29 212.189 2298.29 242.905 2298.29 280.985V476.013H2255.52Z" fill="#4DB0B2"/>
<path d="M2199.37 476.013V257.232C2199.37 217.192 2199.32 189.292 2196.65 168.829C2194.01 148.594 2189.28 140.271 2183.71 135.536C2177.41 130.176 2165.74 125.669 2140.47 123.283C2115.63 120.936 2082.06 120.913 2035.23 120.913H2.54307V78.1309L2036.44 78.1309C2081.8 78.1306 2117.4 78.1305 2144.49 80.6898C2171.41 83.2322 2194.52 88.5817 2211.41 102.935C2229.03 117.914 2235.9 139.162 2239.05 163.283C2242.13 186.849 2242.13 217.565 2242.13 255.646V476.013H2199.37Z" fill="#6AC2C0"/>
<path d="M2143.24 476.014V231.577C2143.24 191.608 2143.19 163.758 2140.52 143.332C2137.88 123.132 2133.16 114.824 2127.59 110.098C2121.29 104.747 2109.62 100.248 2084.37 97.8661C2059.54 95.5238 2025.98 95.5008 1979.18 95.5008L0.912356 95.5008V52.7949L1980.38 52.7949C2025.72 52.7947 2061.31 52.7946 2088.39 55.3493C2115.29 57.8872 2138.39 63.2271 2155.27 77.5548C2172.88 92.5075 2179.75 113.717 2182.9 137.795C2185.98 161.32 2185.98 191.981 2185.98 229.993V476.014H2143.24Z" fill="#EEBA44"/>
<path d="M2087.04 476.013V205.186C2087.04 165.146 2086.99 137.246 2084.32 116.783C2081.67 96.5476 2076.95 88.2248 2071.38 83.4904C2065.07 78.1299 2053.39 73.6225 2028.12 71.2365C2003.26 68.8899 1969.67 68.867 1922.82 68.867L0.911867 68.8661V26.084L1924.03 26.0848C1969.41 26.0846 2005.03 26.0844 2032.14 28.6437C2059.07 31.1862 2082.19 36.5356 2099.08 50.8889C2116.71 65.8683 2123.59 87.1161 2126.74 111.236C2129.82 134.803 2129.82 165.519 2129.82 203.6V476.013H2087.04Z" fill="#E68549"/>
<path d="M2030.9 476.012V179.847C2030.9 139.807 2030.86 111.907 2028.18 91.4446C2025.54 71.2089 2020.82 62.8861 2015.25 58.1517C2008.94 52.7912 1997.27 48.2838 1972.01 45.8978C1947.17 43.5512 1913.59 43.5283 1866.76 43.5283H2.54297V0.746098L1867.97 0.746098C1913.33 0.745884 1948.93 0.745731 1976.03 3.30503C2002.95 5.84748 2026.06 11.1969 2042.94 25.5502C2060.56 40.5296 2067.44 61.7774 2070.59 85.8977C2073.67 109.465 2073.67 140.18 2073.67 178.261V476.012H2030.9Z" fill="#E1564F"/>
<rect width="43.1437" height="43.1437" rx="21.5718" transform="matrix(1 0 0 -1 2311.3 534.223)" fill="#357C8E"/>
<rect width="43.1437" height="43.1437" rx="21.5718" transform="matrix(1 0 0 -1 2255.14 534.223)" fill="#4DB0B2"/>
<rect width="43.1437" height="43.1437" rx="21.5718" transform="matrix(1 0 0 -1 2198.99 534.223)" fill="#6AC2C0"/>
<rect width="43.1437" height="43.1437" rx="21.5718" transform="matrix(1 0 0 -1 2142.83 534.223)" fill="#EEBA44"/>
<rect width="43.1437" height="43.1437" rx="21.5718" transform="matrix(1 0 0 -1 2086.68 534.223)" fill="#E68549"/>
<rect width="43.1437" height="43.1437" rx="21.5718" transform="matrix(1 0 0 -1 2030.52 534.223)" fill="#E1564F"/>
</svg>
