<?xml version="1.0" encoding="utf-8"?>
<!-- Generator: Adobe Illustrator 26.1.0, SVG Export Plug-In . SVG Version: 6.00 Build 0)  -->
<svg version="1.1" id="Слой_1" xmlns="http://www.w3.org/2000/svg" xmlns:xlink="http://www.w3.org/1999/xlink" x="0px" y="0px"
	 viewBox="0 0 366.7 6" style="enable-background:new 0 0 366.7 6;" xml:space="preserve">
<style type="text/css">
	.st0{opacity:0.2;}
	.st1{fill:none;stroke:#357C8E;stroke-width:2;}
</style>
<g class="st0">
	<line class="st1" x1="371.7" y1="5" x2="367.4" y2="0.7"/>
	<line class="st1" x1="355" y1="5" x2="350.8" y2="0.7"/>
	<line class="st1" x1="338.4" y1="5" x2="334.1" y2="0.7"/>
	<line class="st1" x1="321.7" y1="5" x2="317.4" y2="0.7"/>
	<line class="st1" x1="305" y1="5" x2="300.8" y2="0.7"/>
	<line class="st1" x1="288.4" y1="5" x2="284.1" y2="0.7"/>
	<line class="st1" x1="271.7" y1="5" x2="267.4" y2="0.7"/>
	<line class="st1" x1="255" y1="5" x2="250.8" y2="0.7"/>
	<line class="st1" x1="238.4" y1="5" x2="234.1" y2="0.7"/>
	<line class="st1" x1="221.7" y1="5" x2="217.5" y2="0.7"/>
	<line class="st1" x1="205" y1="5" x2="200.8" y2="0.7"/>
	<line class="st1" x1="188.4" y1="5" x2="184.1" y2="0.7"/>
	<line class="st1" x1="171.7" y1="5" x2="167.5" y2="0.7"/>
	<line class="st1" x1="155" y1="5" x2="150.8" y2="0.7"/>
	<line class="st1" x1="138.4" y1="5" x2="134.1" y2="0.7"/>
	<line class="st1" x1="121.7" y1="5" x2="117.5" y2="0.7"/>
	<line class="st1" x1="105" y1="5" x2="100.8" y2="0.7"/>
	<line class="st1" x1="88.4" y1="5" x2="84.1" y2="0.7"/>
	<line class="st1" x1="71.7" y1="5" x2="67.5" y2="0.7"/>
	<line class="st1" x1="55" y1="5" x2="50.8" y2="0.7"/>
	<line class="st1" x1="38.4" y1="5" x2="34.1" y2="0.7"/>
	<line class="st1" x1="21.7" y1="5" x2="17.5" y2="0.7"/>
	<line class="st1" x1="5" y1="5" x2="0.8" y2="0.7"/>
</g>
</svg>
