<?xml version="1.0" encoding="utf-8"?>
<!-- Generator: Adobe Illustrator 26.1.0, SVG Export Plug-In . SVG Version: 6.00 Build 0)  -->
<svg version="1.1" id="Слой_1" xmlns="http://www.w3.org/2000/svg" xmlns:xlink="http://www.w3.org/1999/xlink" x="0px" y="0px"
	 viewBox="0 0 360 79.2" style="enable-background:new 0 0 360 79.2;" xml:space="preserve">
<style type="text/css">
	.st0{fill:#357C8E;}
	.st1{fill:#4DB0B2;}
	.st2{fill:#6AC2C0;}
	.st3{fill:#EEBA44;}
	.st4{fill:#E68549;}
	.st5{fill:#E1564F;}
</style>
<path class="st0" d="M551.5,220.1v-77.8c0-18.5,0-31.4-1.3-40.9c-1.2-9.4-3.4-13.2-6-15.4c-2.9-2.5-8.3-4.6-20-5.7
	c-11.5-1.1-27-1.1-48.7-1.1H-74.1V59.4h550.2c21,0,37.5,0,50,1.2c12.5,1.2,23.1,3.7,31,10.3c8.2,6.9,11.3,16.8,12.8,27.9
	c1.4,10.9,1.4,25.1,1.4,42.7v78.5H551.5z"/>
<path class="st1" d="M525.5,220.1v-89.5c0-18.5,0-31.4-1.3-40.9c-1.2-9.4-3.4-13.2-6-15.4c-2.9-2.5-8.3-4.6-20-5.7
	c-11.5-1.1-27-1.1-48.7-1.1h-549.7V47.7h550.2c21,0,37.5,0,50,1.2c12.5,1.2,23.1,3.7,31,10.3c8.2,6.9,11.3,16.8,12.8,27.9
	c1.4,10.9,1.4,25.1,1.4,42.7v90.2H525.5z"/>
<path class="st2" d="M499.5,220.1V118.9c0-18.5,0-31.4-1.3-40.9c-1.2-9.4-3.4-13.2-6-15.4c-2.9-2.5-8.3-4.6-20-5.7
	c-11.5-1.1-27-1.1-48.7-1.1h-549.7V36h550.2c21,0,37.5,0,50,1.2c12.5,1.2,23.1,3.7,31,10.3c8.2,6.9,11.3,16.8,12.8,27.9
	c1.4,10.9,1.4,25.1,1.4,42.7v102H499.5z"/>
<path class="st3" d="M473.6,220.1V107c0-18.5,0-31.4-1.3-40.8c-1.2-9.3-3.4-13.2-6-15.4c-2.9-2.5-8.3-4.6-20-5.7
	c-11.5-1.1-27-1.1-48.7-1.1h-549.4V24.3h549.9c21,0,37.4,0,50,1.2c12.4,1.2,23.1,3.6,30.9,10.3c8.1,6.9,11.3,16.7,12.8,27.9
	c1.4,10.9,1.4,25.1,1.4,42.7v113.8H473.6z"/>
<path class="st4" d="M447.6,220.1V94.8c0-18.5,0-31.4-1.3-40.9c-1.2-9.4-3.4-13.2-6-15.4c-2.9-2.5-8.3-4.6-20-5.7
	c-11.5-1.1-27-1.1-48.7-1.1h-549.9V11.9h550.5c21,0,37.5,0,50,1.2c12.5,1.2,23.2,3.7,31,10.3c8.2,6.9,11.3,16.8,12.8,27.9
	c1.4,10.9,1.4,25.1,1.4,42.7v126H447.6z"/>
<path class="st5" d="M421.6,220.1v-137c0-18.5,0-31.4-1.3-40.9c-1.2-9.4-3.4-13.2-6-15.4c-2.9-2.5-8.3-4.6-20-5.7
	c-11.5-1.1-27-1.1-48.7-1.1H-204V0.2h550.2c21,0,37.5,0,50,1.2c12.5,1.2,23.1,3.7,31,10.3c8.2,6.9,11.3,16.8,12.8,27.9
	c1.4,10.9,1.4,25.1,1.4,42.7v137.8H421.6z"/>
</svg>
