<svg width="1369" height="534" viewBox="0 0 1369 534" fill="none" xmlns="http://www.w3.org/2000/svg">
    <path
        d="M1325.72 475.999V307.896C1325.72 267.856 1325.67 239.956 1323 219.493C1320.35 199.258 1315.63 190.935 1310.06 186.201C1303.76 180.84 1292.08 176.333 1266.82 173.947C1241.98 171.6 1208.4 171.577 1161.58 171.577L-0.0434325 171.577V128.795L1162.78 128.795C1208.14 128.795 1243.75 128.795 1270.84 131.354C1297.76 133.896 1320.87 139.246 1337.75 153.599C1355.37 168.578 1362.25 189.826 1365.4 213.947C1368.48 237.513 1368.48 268.229 1368.48 306.31V475.999H1325.72Z"
        fill="#357C8E" />
    <path
        d="M1269.56 475.791V282.35C1269.56 242.309 1269.52 214.41 1266.84 193.947C1264.2 173.711 1259.48 165.388 1253.91 160.654C1247.6 155.294 1235.93 150.786 1210.67 148.4C1185.82 146.054 1152.25 146.031 1105.42 146.031L0.0170898 146.03V103.248L1106.63 103.248C1151.99 103.248 1187.59 103.248 1214.69 105.807C1241.6 108.35 1264.71 113.699 1281.6 128.053C1299.22 143.032 1306.09 164.28 1309.25 188.4C1312.33 211.967 1312.33 242.683 1312.33 280.763V475.791H1269.56Z"
        fill="#4DB0B2" />
    <path
        d="M1213.4 475.79V257.009C1213.4 216.969 1213.36 189.069 1210.69 168.607C1208.04 148.371 1203.32 140.048 1197.75 135.314C1191.45 129.953 1179.77 125.446 1154.51 123.06C1129.67 120.713 1096.09 120.69 1049.27 120.69H0.0371094V77.9082L1050.47 77.9082C1095.83 77.908 1131.43 77.9078 1158.53 80.4671C1185.45 83.0096 1208.56 88.359 1225.44 102.712C1243.06 117.692 1249.94 138.94 1253.09 163.06C1256.17 186.627 1256.17 217.343 1256.17 255.423V475.79H1213.4Z"
        fill="#6AC2C0" />
    <path
        d="M1157.27 475.791V231.354C1157.27 191.385 1157.23 163.535 1154.56 143.109C1151.91 122.909 1147.19 114.601 1141.63 109.876C1135.32 104.525 1123.66 100.025 1098.41 97.6435C1073.58 95.3011 1040.02 95.2782 993.215 95.2782L0.019043 95.2782V52.5723L994.42 52.5723C1039.76 52.5721 1075.34 52.5719 1102.43 55.1266C1129.33 57.6646 1152.43 63.0045 1169.31 77.3322C1186.92 92.2849 1193.79 113.495 1196.94 137.572C1200.02 161.097 1200.02 191.758 1200.02 229.771V475.791H1157.27Z"
        fill="#EEBA44" />
    <path
        d="M1101.07 475.79V204.963C1101.07 164.922 1101.03 137.022 1098.35 116.56C1095.71 96.3241 1090.98 88.0013 1085.41 83.2669C1079.1 77.9064 1067.42 73.399 1042.15 71.013C1017.3 68.6665 983.704 68.6435 936.856 68.6435L0.162796 68.6435V25.8613L938.061 25.8613C983.444 25.8611 1019.06 25.861 1046.17 28.4203C1073.1 30.9627 1096.22 36.3121 1113.12 50.6654C1130.75 65.6448 1137.62 86.8926 1140.78 111.013C1143.86 134.58 1143.86 165.296 1143.86 203.376V475.79H1101.07Z"
        fill="#E68549" />
    <path
        d="M1044.94 475.79V179.625C1044.94 139.584 1044.9 111.685 1042.22 91.222C1039.58 70.9862 1034.86 62.6634 1029.29 57.9291C1022.98 52.5685 1011.31 48.0611 986.046 45.6751C961.204 43.3286 927.627 43.3056 880.802 43.3056H0.0665371V0.523441L882.007 0.523441C927.367 0.523228 962.97 0.523075 990.066 3.08237C1016.98 5.62482 1040.09 10.9742 1056.98 25.3275C1074.6 40.3069 1081.47 61.5548 1084.63 85.6751C1087.71 109.242 1087.71 139.958 1087.7 178.038V475.79H1044.94Z"
        fill="#E1564F" />
    <rect width="43.1437" height="43.1437" rx="21.5718" transform="matrix(1 0 0 -1 1325.34 534)"
        fill="#357C8E" />
    <rect width="43.1437" height="43.1437" rx="21.5718" transform="matrix(1 0 0 -1 1269.18 534)"
        fill="#4DB0B2" />
    <rect width="43.1437" height="43.1437" rx="21.5718" transform="matrix(1 0 0 -1 1213.03 534)"
        fill="#6AC2C0" />
    <rect width="43.1437" height="43.1437" rx="21.5718" transform="matrix(1 0 0 -1 1156.87 534)"
        fill="#EEBA44" />
    <rect width="43.1437" height="43.1437" rx="21.5718" transform="matrix(1 0 0 -1 1100.72 534)"
        fill="#E68549" />
    <rect width="43.1437" height="43.1437" rx="21.5718" transform="matrix(1 0 0 -1 1044.56 534)"
        fill="#E1564F" />
</svg>
