<svg width="1353" height="398" viewBox="0 0 1353 398" fill="none" xmlns="http://www.w3.org/2000/svg">
    <path
        d="M8.82227 12.8867L1145.16 12.8872C1189.34 12.8872 1225.16 48.7044 1225.16 92.8872L1225.16 393.084"
        stroke="#357C8E" stroke-width="24" />
    <path
        d="M6.91992 31.0371L1167.05 31.0378C1211.24 31.0378 1247.05 66.855 1247.05 111.038L1247.05 392.371"
        stroke="#4DB0B2" stroke-width="24" />
    <path
        d="M4.0656 50.2598L1190.31 50.2606C1234.49 50.2607 1270.31 86.0778 1270.31 130.261L1270.31 395.047"
        stroke="#6AC2C0" stroke-width="24" />
    <path
        d="M2.16309 68.7598L1213.55 68.7623C1257.74 68.7624 1293.55 104.58 1293.55 148.762L1293.55 397.03"
        stroke="#EEBA44" stroke-width="24" />
    <path
        d="M2.16211 87.4297L1236.8 87.43C1280.98 87.43 1316.8 123.247 1316.8 167.43L1316.8 391.013"
        stroke="#E68549" stroke-width="24" />
    <path
        d="M0.258789 106.398L1260.04 106.399C1304.22 106.399 1340.04 142.216 1340.04 186.399L1340.04 393.004"
        stroke="#E1564F" stroke-width="24" />
</svg>
