<svg width="1353" height="398" viewBox="0 0 1353 398" fill="none" xmlns="http://www.w3.org/2000/svg">
    <path
        d="M1343.76 385.029L207.426 385.029C163.243 385.028 127.426 349.211 127.426 305.029L127.426 4.83143"
        stroke="#357C8E" stroke-width="24" />
    <path
        d="M1345.67 366.879L185.533 366.878C141.35 366.878 105.533 331.061 105.533 286.878L105.533 5.54462"
        stroke="#4DB0B2" stroke-width="24" />
    <path
        d="M1348.52 347.656L162.276 347.655C118.093 347.655 82.2758 311.838 82.2758 267.655L82.2759 2.86825"
        stroke="#6AC2C0" stroke-width="24" />
    <path
        d="M1350.42 329.156L139.032 329.153C94.8495 329.153 59.0324 293.336 59.0324 249.153L59.0325 0.885669"
        stroke="#EEBA44" stroke-width="24" />
    <path
        d="M1350.42 310.486L115.791 310.486C71.6082 310.486 35.791 274.669 35.791 230.486L35.7911 6.90309"
        stroke="#E68549" stroke-width="24" />
    <path
        d="M1352.33 291.518L92.5483 291.517C48.3655 291.517 12.5483 255.7 12.5484 211.517L12.5484 4.91215"
        stroke="#E1564F" stroke-width="24" />
</svg>
