<svg width="418" height="726" viewBox="0 0 418 726" fill="none" xmlns="http://www.w3.org/2000/svg">
<path fill-rule="evenodd" clip-rule="evenodd" d="M102 8.00001V17H396C400.418 17 404 20.5817 404 25V120H410C414.418 120 418 123.582 418 128V292C418 296.418 414.418 300 410 300H404V438H410C414.418 438 418 441.582 418 446V718C418 722.418 414.418 726 410 726H337C332.582 726 329 722.418 329 718V713H164V718C164 722.418 160.418 726 156 726H8.00001C3.58173 726 7.2797e-06 722.418 7.2797e-06 718V511C7.2797e-06 506.582 3.58173 503 8.00001 503H14V242H8C3.58172 242 -1.93129e-07 238.418 0 234L9.87877e-06 8C1.00719e-05 3.58172 3.58173 -1.93129e-07 8.00001 0L94 4.10887e-06C98.4183 4.10887e-06 102 3.58173 102 8.00001Z" fill="#F4A3DD"/>
</svg>