<svg width="419" height="727" viewBox="0 0 419 727" fill="none" xmlns="http://www.w3.org/2000/svg">
<mask id="path-1-inside-1_266_175" fill="white">
<path fill-rule="evenodd" clip-rule="evenodd" d="M419 107C419 111.418 415.418 115 411 115H404V563H411C415.418 563 419 566.582 419 571V719C419 723.418 415.418 727 411 727H263C258.582 727 255 723.418 255 719V714H102V719C102 723.418 98.4183 727 94 727H8C3.58172 727 -1.93129e-07 723.418 0 719L1.18895e-05 447C1.20826e-05 442.582 3.58174 439 8.00001 439H14V26C14 21.5817 17.5817 18 22 18H309V8C309 3.58172 312.582 -1.93129e-07 317 0L411 4.10887e-06C415.418 4.302e-06 419 3.58173 419 8.00001V107Z"/>
</mask>
<path fill-rule="evenodd" clip-rule="evenodd" d="M419 107C419 111.418 415.418 115 411 115H404V563H411C415.418 563 419 566.582 419 571V719C419 723.418 415.418 727 411 727H263C258.582 727 255 723.418 255 719V714H102V719C102 723.418 98.4183 727 94 727H8C3.58172 727 -1.93129e-07 723.418 0 719L1.18895e-05 447C1.20826e-05 442.582 3.58174 439 8.00001 439H14V26C14 21.5817 17.5817 18 22 18H309V8C309 3.58172 312.582 -1.93129e-07 317 0L411 4.10887e-06C415.418 4.302e-06 419 3.58173 419 8.00001V107Z" fill="#60E771"/>
<path d="M404 115V113H402V115H404ZM404 563H402V565H404V563ZM255 714H257V712H255V714ZM102 714V712H100V714H102ZM0 719H2H0ZM1.18895e-05 447H-1.99999H1.18895e-05ZM14 439V441H16V439H14ZM309 18V20H311V18H309ZM317 0V2V0ZM411 4.10887e-06V-2V4.10887e-06ZM411 117C416.523 117 421 112.523 421 107H417C417 110.314 414.314 113 411 113V117ZM404 117H411V113H404V117ZM406 563V115H402V563H406ZM411 561H404V565H411V561ZM421 571C421 565.477 416.523 561 411 561V565C414.314 565 417 567.686 417 571H421ZM421 719V571H417V719H421ZM411 729C416.523 729 421 724.523 421 719H417C417 722.314 414.314 725 411 725V729ZM263 729H411V725H263V729ZM253 719C253 724.523 257.477 729 263 729V725C259.686 725 257 722.314 257 719H253ZM253 714V719H257V714H253ZM102 716H255V712H102V716ZM104 719V714H100V719H104ZM94 729C99.5229 729 104 724.523 104 719H100C100 722.314 97.3137 725 94 725V729ZM8 729H94V725H8V729ZM-2 719C-2 724.523 2.47715 729 8 729V725C4.68629 725 2 722.314 2 719H-2ZM-1.99999 447L-2 719H2L2.00001 447H-1.99999ZM8.00001 437C2.47717 437 -1.99999 441.477 -1.99999 447H2.00001C2.00001 443.686 4.68631 441 8.00001 441V437ZM14 437H8.00001V441H14V437ZM12 26V439H16V26H12ZM22 16C16.4772 16 12 20.4772 12 26H16C16 22.6863 18.6863 20 22 20V16ZM309 16H22V20H309V16ZM307 8V18H311V8H307ZM317 -2C311.477 -2 307 2.47715 307 8H311C311 4.68629 313.686 2 317 2V-2ZM411 -2L317 -2V2L411 2V-2ZM421 8.00001C421 2.47716 416.523 -2 411 -2V2C414.314 2 417 4.6863 417 8.00001H421ZM421 107V8.00001H417V107H421Z" fill="#382D4D" mask="url(#path-1-inside-1_266_175)"/>
</svg>