<svg width="419" height="726" viewBox="0 0 419 726" fill="none" xmlns="http://www.w3.org/2000/svg">
<path fill-rule="evenodd" clip-rule="evenodd" d="M411 242C415.418 242 419 238.418 419 234V8.00001C419 3.58173 415.418 3.14722e-06 411 3.14722e-06L347 0C342.582 -1.93129e-07 339 3.58172 339 8V17H102V8.00001C102 3.58173 98.4183 6.80536e-06 94 6.61223e-06L31.0016 3.14722e-06H31H28H8C3.58172 3.14722e-06 0 3.58172 0 8V74C0 78.4183 3.58172 82 8 82H14V643H8C3.58172 643 0 646.582 0 651V718C0 722.418 3.58172 726 8 726H156C160.418 726 164 722.418 164 718V713H336V718C336 722.418 339.582 726 344 726H411C415.418 726 419 722.418 419 718V446C419 441.582 415.418 438 411 438H404V242H411Z" fill="#FCAC5D"/>
</svg>