<svg width="325" height="237" viewBox="0 0 325 237" fill="none" xmlns="http://www.w3.org/2000/svg">
<path fill-rule="evenodd" clip-rule="evenodd" d="M-3.49689e-07 229C-1.56561e-07 233.418 3.58172 237 8 237L189 237C193.418 237 197 233.418 197 229L197 184L316.02 184C320.439 184 324.02 180.418 324.02 176L324.02 8C324.02 3.58171 320.439 -1.40069e-05 316.02 -1.38138e-05L148.021 -6.47026e-06C143.603 -6.27713e-06 140.021 3.58172 140.021 7.99999L140.021 129L-4.7208e-06 129L-3.49689e-07 229ZM140.021 129L140.021 176C140.021 180.418 143.603 184 148.021 184L197 184L197 137C197 132.582 193.418 129 189 129L140.021 129Z" fill="#781AA8"/>
</svg>