<svg width="223" height="243" viewBox="0 0 223 243" fill="none" xmlns="http://www.w3.org/2000/svg">
<path d="M214.021 81C218.44 81 222.021 84.5817 222.021 89L222.021 113C222.021 117.418 218.44 121 214.021 121L182.021 121L182.021 89C182.021 84.5817 185.603 81 190.021 81L214.021 81Z" fill="#F4A3DD"/>
<path fill-rule="evenodd" clip-rule="evenodd" d="M8.02247 243C3.60419 243 0.0224712 239.418 0.0224712 235L0.0224712 129C0.0224712 128.995 0.0224762 128.99 0.0224861 128.984L0.0224804 0L52.0225 -2.27299e-06C56.4408 -2.46612e-06 60.0225 3.58172 60.0225 8L60.0225 121L182.021 121L182.021 235C182.021 239.418 178.44 243 174.021 243L8.02247 243ZM60.0225 121L60.0225 174C60.0225 178.418 56.4408 182 52.0225 182L8.02249 182C3.60421 182 0.0224882 178.418 0.022488 174L0.0224861 128.984C0.0308966 124.573 3.60939 121 8.02247 121L60.0225 121Z" fill="#F4A3DD"/>
</svg>
