<svg width="638" height="368" viewBox="0 0 638 368" fill="none" xmlns="http://www.w3.org/2000/svg" preserveAspectRatio="none">
    <path fill-rule="evenodd" clip-rule="evenodd" d="M212.667 8.00025C212.667 3.58197 209.085 0.000246634 204.667 0.000246581L8.00001 0.000244236C3.58174 0.000244183 1.13005e-05 3.58197 1.10545e-05 8.00024L8.03424e-06 62.2628C7.7883e-06 66.681 3.58173 70.2628 8.00001 70.2628L14.9401 70.2628L14.9401 278.415L8.00084 278.415C3.58256 278.415 0.000831955 281.997 0.000831709 286.415L0.000828633 341.685L0.000594888 341.747L0.00059467 360C0.000594618 364.418 3.58232 368 8.0006 368L64.0612 368C68.4795 368 72.0612 364.418 72.0612 360L72.0612 355.704L565.061 355.704L565.061 360C565.061 364.418 568.643 368 573.061 368L630.001 368C634.419 368 638.001 364.418 638.001 360L638.001 231.962C638.001 227.544 634.419 223.962 630.001 223.962L626.576 223.962L626.576 72.8976L630.001 72.8976C634.419 72.8976 638.001 69.3159 638.001 64.8976L638.001 8.00025C638.001 3.58198 634.419 0.000251706 630.001 0.000251653L392.91 0.000248826C388.491 0.000248773 384.91 3.58197 384.91 8.00025L384.91 13.1744L212.667 13.1743L212.667 8.00025Z" fill="#60E771" />
</svg>
