<svg width="638" height="368" viewBox="0 0 638 368" fill="none" xmlns="http://www.w3.org/2000/svg" preserveAspectRatio="none">
    <path fill-rule="evenodd" clip-rule="evenodd" d="M545.078 368C540.66 368 537.078 364.418 537.078 360L537.078 354.826L143.923 354.826L143.923 360C143.923 364.418 140.341 368 135.923 368L8.00023 368C3.58195 368 0.000228211 364.418 0.000228405 360L0.000234001 231.962C0.000234194 227.544 3.58196 223.962 8.00023 223.962L11.4083 223.962L11.4083 89.5847L8.00024 89.5847C3.58197 89.5847 0.000240381 86.003 0.000240574 81.5847L0.000243791 8C0.000243984 3.58172 3.58197 -3.67208e-08 8.00024 3.4969e-07L244.743 2.10547e-05C249.161 2.14411e-05 252.743 3.58174 252.743 8.00002L252.743 12.2961L614.203 12.2961C618.622 12.2961 622.203 15.8779 622.203 20.2961L622.203 271.389L630 271.389C634.418 271.389 638 274.971 638 279.389L638 360C638 364.418 634.418 368 630 368L545.078 368Z" fill="#9778DD" />
</svg>
