<svg width="638" height="368" viewBox="0 0 638 368" fill="none" xmlns="http://www.w3.org/2000/svg" preserveAspectRatio="none">
    <path fill-rule="evenodd" clip-rule="evenodd" d="M425.333 360C425.333 364.418 428.915 368 433.333 368L630 368C634.418 368 638 364.418 638 360L638 305.737C638 301.319 634.418 297.737 630 297.737L623.06 297.737L623.06 89.5847L629.999 89.5847C634.417 89.5847 637.999 86.003 637.999 81.5847L637.999 26.3143L637.999 26.253L637.999 8.00003C637.999 3.58175 634.418 2.77313e-05 629.999 2.75382e-05L573.939 2.50877e-05C569.521 2.48946e-05 565.939 3.58175 565.939 8.00002L565.939 12.2959L72.9387 12.2959L72.9387 8.00003C72.9387 3.58175 69.357 2.77697e-05 64.9387 2.75766e-05L7.99933 2.50877e-05C3.58105 2.48946e-05 -0.000671543 3.58175 -0.000671736 8.00003L-0.000677333 136.038C-0.000677526 140.456 3.58105 144.038 7.99932 144.038L11.4235 144.038L11.4235 295.102L7.99932 295.102C3.58104 295.102 -0.000684443 298.684 -0.000684636 303.102L-0.000687123 360C-0.000687316 364.418 3.58104 368 7.99931 368L245.09 368C249.508 368 253.09 364.418 253.09 360L253.09 354.826L425.333 354.826L425.333 360Z" fill="#FCAC5D" />
</svg>
