<svg width="638" height="368" viewBox="0 0 638 368" fill="none" xmlns="http://www.w3.org/2000/svg">
    <path fill-rule="evenodd" clip-rule="evenodd" d="M92.9216 1.10808e-06C97.3399 1.16077e-06 100.922 3.58173 100.922 8L100.922 13.1741L494.077 13.1741L494.077 7.99994C494.077 3.58164 497.658 -5.51006e-05 502.077 -5.5048e-05L630 -5.35225e-05C634.418 -5.34698e-05 638 3.58164 638 7.99995L638 136.038C638 140.456 634.418 144.038 630 144.038L626.592 144.038L626.592 278.415L630 278.415C634.418 278.415 638 281.997 638 286.415L638 360C638 364.418 634.418 368 630 368L393.257 368C388.839 368 385.257 364.418 385.257 360L385.257 355.704L23.7966 355.704C19.3783 355.704 15.7966 352.122 15.7966 347.704L15.7966 96.611L8.00001 96.611C3.58173 96.611 7.47437e-06 93.0292 7.72004e-06 88.6109L1.22021e-05 8C1.24478e-05 3.58173 3.58173 4.27116e-08 8.00001 9.53991e-08L92.9216 1.10808e-06Z" fill="#C859FF" />
</svg>
