<svg width="638" height="367" viewBox="0 0 638 367" fill="none" xmlns="http://www.w3.org/2000/svg" preserveAspectRatio="none">
    <path fill-rule="evenodd" clip-rule="evenodd" d="M8 277.445L14.9402 277.445L14.9402 20.292C14.9402 15.8737 18.5219 12.292 22.9402 12.292L105.456 12.292L105.456 8.00009C105.456 3.58182 109.037 9.2853e-05 113.456 9.29057e-05L255.637 9.46012e-05C260.056 9.46539e-05 263.637 3.58182 263.637 8.00009L263.637 12.292L384.91 12.292L384.91 8C384.91 3.5817 388.491 4.63271e-06 392.91 4.6854e-06L630.001 7.51268e-06C634.419 7.56537e-06 638.001 3.58173 638.001 8.00001L638.001 70.1412C638.001 74.5594 634.419 78.1412 630.001 78.1412L626.577 78.1412L626.577 223.01L630.001 223.01C634.419 223.01 638.001 226.591 638.001 231.01L638.001 359C638.001 363.418 634.419 367 630.001 367L450.031 367C445.613 367 442.031 363.418 442.031 359L442.031 354.708L212.667 354.708L212.667 359C212.667 363.418 209.085 367 204.667 367L8 367C3.58172 367 -1.50594e-07 363.418 9.54011e-08 359L4.19066e-06 285.445C4.43666e-06 281.027 3.58172 277.445 8 277.445Z" fill="#F4A3DD" />
</svg>
