<svg width="638" height="368" viewBox="0 0 638 368" fill="none" xmlns="http://www.w3.org/2000/svg">
    <path fill-rule="evenodd" clip-rule="evenodd" d="M630 89.7991L623.06 89.7991L623.06 347.674C623.06 352.093 619.478 355.674 615.06 355.674L532.544 355.674L532.544 360C532.544 364.418 528.963 368 524.544 368L382.363 368C377.944 368 374.363 364.418 374.363 360L374.363 355.674L253.09 355.674L253.09 360C253.09 364.418 249.509 368 245.09 368L7.99925 368C3.58098 368 -0.000748351 364.418 -0.000748158 360L-0.000745432 297.646C-0.000745239 293.228 3.58098 289.646 7.99925 289.646L11.4232 289.646L11.4232 144.383L7.99926 144.383C3.58099 144.383 -0.000738576 140.801 -0.000738383 136.383L-0.000732772 7.99997C-0.000732578 3.58169 3.58099 -2.77313e-05 7.99927 -2.75382e-05L187.969 -1.96715e-05C192.387 -1.94783e-05 195.969 3.5817 195.969 7.99998L195.969 12.3251L425.333 12.3252L425.333 8C425.333 3.58172 428.915 1.27655e-06 433.333 1.66317e-06L630 1.88719e-05C634.418 1.92585e-05 638 3.58174 638 8.00002L638 81.7991C638 86.2173 634.418 89.7991 630 89.7991Z" fill="#7360E6" />
</svg>
