<?xml version="1.0" encoding="utf-8"?>
<!-- Generator: Adobe Illustrator 26.1.0, SVG Export Plug-In . SVG Version: 6.00 Build 0)  -->
<svg version="1.1" id="Слой_1" xmlns="http://www.w3.org/2000/svg" xmlns:xlink="http://www.w3.org/1999/xlink" x="0px" y="0px"
	 viewBox="0 0 6 366.3" style="enable-background:new 0 0 6 366.3;" xml:space="preserve">
<style type="text/css">
	.st0{fill:none;stroke:#F5DDB7;stroke-width:2;}
</style>
<line class="st0" x1="4.9" y1="1.5" x2="0.7" y2="5.8"/>
<line class="st0" x1="4.9" y1="18.2" x2="0.7" y2="22.4"/>
<line class="st0" x1="4.9" y1="34.8" x2="0.7" y2="39.1"/>
<line class="st0" x1="4.9" y1="51.5" x2="0.7" y2="55.8"/>
<line class="st0" x1="4.9" y1="68.2" x2="0.7" y2="72.4"/>
<line class="st0" x1="4.9" y1="84.8" x2="0.7" y2="89.1"/>
<line class="st0" x1="4.9" y1="101.5" x2="0.7" y2="105.8"/>
<line class="st0" x1="4.9" y1="118.2" x2="0.7" y2="122.4"/>
<line class="st0" x1="4.9" y1="134.8" x2="0.7" y2="139.1"/>
<line class="st0" x1="4.9" y1="151.5" x2="0.7" y2="155.8"/>
<line class="st0" x1="4.9" y1="168.2" x2="0.7" y2="172.4"/>
<line class="st0" x1="4.9" y1="184.8" x2="0.7" y2="189.1"/>
<line class="st0" x1="4.9" y1="201.5" x2="0.7" y2="205.8"/>
<line class="st0" x1="4.9" y1="218.2" x2="0.7" y2="222.4"/>
<line class="st0" x1="4.9" y1="234.8" x2="0.7" y2="239.1"/>
<line class="st0" x1="4.9" y1="251.5" x2="0.7" y2="255.7"/>
<line class="st0" x1="4.9" y1="268.2" x2="0.7" y2="272.4"/>
<line class="st0" x1="4.9" y1="284.8" x2="0.7" y2="289.1"/>
<line class="st0" x1="4.9" y1="301.5" x2="0.7" y2="305.7"/>
<line class="st0" x1="4.9" y1="318.2" x2="0.7" y2="322.4"/>
<line class="st0" x1="4.9" y1="334.8" x2="0.7" y2="339.1"/>
<line class="st0" x1="4.9" y1="351.5" x2="0.7" y2="355.7"/>
<line class="st0" x1="4.9" y1="368.2" x2="0.7" y2="372.4"/>
</svg>
