<?xml version="1.0" encoding="utf-8"?>
<!-- Generator: Adobe Illustrator 26.1.0, SVG Export Plug-In . SVG Version: 6.00 Build 0)  -->
<svg version="1.1" id="Слой_1" xmlns="http://www.w3.org/2000/svg" xmlns:xlink="http://www.w3.org/1999/xlink" x="0px" y="0px"
	 viewBox="0 0 6.7 367" style="enable-background:new 0 0 6.7 367;" xml:space="preserve">
<style type="text/css">
	.st0{fill:none;stroke:#F5DDB7;stroke-width:2;}
	.st1{opacity:0.3;}
</style>
<line class="st0" x1="5.5" y1="0.9" x2="1.3" y2="5.1"/>
<line class="st0" x1="5.5" y1="17.5" x2="1.3" y2="21.8"/>
<line class="st0" x1="5.5" y1="34.2" x2="1.3" y2="38.4"/>
<line class="st0" x1="5.5" y1="50.9" x2="1.3" y2="55.1"/>
<line class="st0" x1="5.5" y1="67.5" x2="1.3" y2="71.8"/>
<line class="st0" x1="5.5" y1="84.2" x2="1.3" y2="88.4"/>
<line class="st0" x1="5.5" y1="100.9" x2="1.3" y2="105.1"/>
<line class="st0" x1="5.5" y1="117.5" x2="1.3" y2="121.8"/>
<line class="st0" x1="5.5" y1="134.2" x2="1.3" y2="138.4"/>
<line class="st0" x1="5.5" y1="150.9" x2="1.3" y2="155.1"/>
<line class="st0" x1="5.5" y1="167.5" x2="1.3" y2="171.8"/>
<line class="st0" x1="5.5" y1="184.2" x2="1.3" y2="188.4"/>
<line class="st0" x1="5.5" y1="200.9" x2="1.3" y2="205.1"/>
<line class="st0" x1="5.5" y1="217.5" x2="1.3" y2="221.8"/>
<line class="st0" x1="5.5" y1="234.2" x2="1.3" y2="238.4"/>
<line class="st0" x1="5.5" y1="250.9" x2="1.3" y2="255.1"/>
<line class="st0" x1="5.5" y1="267.5" x2="1.3" y2="271.8"/>
<line class="st0" x1="5.5" y1="284.2" x2="1.3" y2="288.4"/>
<line class="st0" x1="5.5" y1="300.9" x2="1.3" y2="305.1"/>
<line class="st0" x1="5.5" y1="317.5" x2="1.3" y2="321.8"/>
<line class="st0" x1="5.5" y1="334.2" x2="1.3" y2="338.4"/>
<line class="st0" x1="5.5" y1="350.9" x2="1.3" y2="355.1"/>
<line class="st0" x1="5.5" y1="367.5" x2="1.3" y2="371.8"/>
<line class="st0" x1="347.2" y1="0.9" x2="343" y2="5.1"/>
<line class="st0" x1="347.2" y1="17.5" x2="343" y2="21.8"/>
<line class="st0" x1="347.2" y1="34.2" x2="343" y2="38.4"/>
<line class="st0" x1="347.2" y1="50.9" x2="343" y2="55.1"/>
<line class="st0" x1="347.2" y1="67.5" x2="343" y2="71.8"/>
<line class="st0" x1="347.2" y1="84.2" x2="343" y2="88.4"/>
<line class="st0" x1="347.2" y1="100.9" x2="343" y2="105.1"/>
<line class="st0" x1="347.2" y1="117.5" x2="343" y2="121.8"/>
<line class="st0" x1="347.2" y1="134.2" x2="343" y2="138.4"/>
<line class="st0" x1="347.2" y1="150.9" x2="343" y2="155.1"/>
<line class="st0" x1="347.2" y1="167.5" x2="343" y2="171.8"/>
<line class="st0" x1="347.2" y1="184.2" x2="343" y2="188.4"/>
<line class="st0" x1="347.2" y1="200.9" x2="343" y2="205.1"/>
<line class="st0" x1="347.2" y1="217.5" x2="343" y2="221.8"/>
<line class="st0" x1="347.2" y1="234.2" x2="343" y2="238.4"/>
<line class="st0" x1="347.2" y1="250.9" x2="343" y2="255.1"/>
<line class="st0" x1="347.2" y1="267.5" x2="343" y2="271.8"/>
<line class="st0" x1="347.2" y1="284.2" x2="343" y2="288.4"/>
<line class="st0" x1="347.2" y1="300.9" x2="343" y2="305.1"/>
<line class="st0" x1="347.2" y1="317.5" x2="343" y2="321.8"/>
<line class="st0" x1="347.2" y1="334.2" x2="343" y2="338.4"/>
<line class="st0" x1="347.2" y1="350.9" x2="343" y2="355.1"/>
<line class="st0" x1="347.2" y1="367.5" x2="343" y2="371.8"/>
<line class="st0" x1="670.7" y1="0.9" x2="666.5" y2="5.1"/>
<line class="st0" x1="670.7" y1="17.5" x2="666.5" y2="21.8"/>
<line class="st0" x1="670.7" y1="34.2" x2="666.5" y2="38.4"/>
<line class="st0" x1="670.7" y1="50.9" x2="666.5" y2="55.1"/>
<line class="st0" x1="670.7" y1="67.5" x2="666.5" y2="71.8"/>
<line class="st0" x1="670.7" y1="84.2" x2="666.5" y2="88.4"/>
<line class="st0" x1="670.7" y1="100.9" x2="666.5" y2="105.1"/>
<line class="st0" x1="670.7" y1="117.5" x2="666.5" y2="121.8"/>
<line class="st0" x1="670.7" y1="134.2" x2="666.5" y2="138.4"/>
<line class="st0" x1="670.7" y1="150.9" x2="666.5" y2="155.1"/>
<line class="st0" x1="670.7" y1="167.5" x2="666.5" y2="171.8"/>
<line class="st0" x1="670.7" y1="184.2" x2="666.5" y2="188.4"/>
<line class="st0" x1="670.7" y1="200.9" x2="666.5" y2="205.1"/>
<line class="st0" x1="670.7" y1="217.5" x2="666.5" y2="221.8"/>
<line class="st0" x1="670.7" y1="234.2" x2="666.5" y2="238.4"/>
<line class="st0" x1="670.7" y1="250.9" x2="666.5" y2="255.1"/>
<line class="st0" x1="670.7" y1="267.5" x2="666.5" y2="271.8"/>
<line class="st0" x1="670.7" y1="284.2" x2="666.5" y2="288.4"/>
<line class="st0" x1="670.7" y1="300.9" x2="666.5" y2="305.1"/>
<line class="st0" x1="670.7" y1="317.5" x2="666.5" y2="321.8"/>
<line class="st0" x1="670.7" y1="334.2" x2="666.5" y2="338.4"/>
<line class="st0" x1="670.7" y1="350.9" x2="666.5" y2="355.1"/>
<line class="st0" x1="670.7" y1="367.5" x2="666.5" y2="371.8"/>
<g class="st1">
	<line class="st0" x1="6.7" y1="5.3" x2="2.4" y2="9.5"/>
	<line class="st0" x1="6.7" y1="21.9" x2="2.4" y2="26.2"/>
	<line class="st0" x1="6.7" y1="38.6" x2="2.4" y2="42.8"/>
	<line class="st0" x1="6.7" y1="55.3" x2="2.4" y2="59.5"/>
	<line class="st0" x1="6.7" y1="71.9" x2="2.4" y2="76.2"/>
	<line class="st0" x1="6.7" y1="88.6" x2="2.4" y2="92.8"/>
	<line class="st0" x1="6.7" y1="105.3" x2="2.4" y2="109.5"/>
	<line class="st0" x1="6.7" y1="121.9" x2="2.4" y2="126.2"/>
	<line class="st0" x1="6.7" y1="138.6" x2="2.4" y2="142.8"/>
	<line class="st0" x1="6.7" y1="155.3" x2="2.4" y2="159.5"/>
	<line class="st0" x1="6.7" y1="171.9" x2="2.4" y2="176.2"/>
	<line class="st0" x1="6.7" y1="188.6" x2="2.4" y2="192.8"/>
	<line class="st0" x1="6.7" y1="205.3" x2="2.4" y2="209.5"/>
	<line class="st0" x1="6.7" y1="221.9" x2="2.4" y2="226.2"/>
	<line class="st0" x1="6.7" y1="238.6" x2="2.4" y2="242.8"/>
	<line class="st0" x1="6.7" y1="255.2" x2="2.4" y2="259.5"/>
	<line class="st0" x1="6.7" y1="271.9" x2="2.4" y2="276.2"/>
	<line class="st0" x1="6.7" y1="288.6" x2="2.4" y2="292.8"/>
	<line class="st0" x1="6.7" y1="305.2" x2="2.4" y2="309.5"/>
	<line class="st0" x1="6.7" y1="321.9" x2="2.4" y2="326.2"/>
	<line class="st0" x1="6.7" y1="338.6" x2="2.4" y2="342.8"/>
	<line class="st0" x1="6.7" y1="355.2" x2="2.4" y2="359.5"/>
	<line class="st0" x1="6.7" y1="371.9" x2="2.4" y2="376.2"/>
	<line class="st0" x1="348.4" y1="5.3" x2="344.1" y2="9.5"/>
	<line class="st0" x1="348.4" y1="21.9" x2="344.1" y2="26.2"/>
	<line class="st0" x1="348.4" y1="38.6" x2="344.1" y2="42.8"/>
	<line class="st0" x1="348.4" y1="55.3" x2="344.1" y2="59.5"/>
	<line class="st0" x1="348.4" y1="71.9" x2="344.1" y2="76.2"/>
	<line class="st0" x1="348.4" y1="88.6" x2="344.1" y2="92.8"/>
	<line class="st0" x1="348.4" y1="105.3" x2="344.1" y2="109.5"/>
	<line class="st0" x1="348.4" y1="121.9" x2="344.1" y2="126.2"/>
	<line class="st0" x1="348.4" y1="138.6" x2="344.1" y2="142.8"/>
	<line class="st0" x1="348.4" y1="155.3" x2="344.1" y2="159.5"/>
	<line class="st0" x1="348.4" y1="171.9" x2="344.1" y2="176.2"/>
	<line class="st0" x1="348.4" y1="188.6" x2="344.1" y2="192.8"/>
	<line class="st0" x1="348.4" y1="205.3" x2="344.1" y2="209.5"/>
	<line class="st0" x1="348.4" y1="221.9" x2="344.1" y2="226.2"/>
	<line class="st0" x1="348.4" y1="238.6" x2="344.1" y2="242.8"/>
	<line class="st0" x1="348.4" y1="255.2" x2="344.1" y2="259.5"/>
	<line class="st0" x1="348.4" y1="271.9" x2="344.1" y2="276.2"/>
	<line class="st0" x1="348.4" y1="288.6" x2="344.1" y2="292.8"/>
	<line class="st0" x1="348.4" y1="305.2" x2="344.1" y2="309.5"/>
	<line class="st0" x1="348.4" y1="321.9" x2="344.1" y2="326.2"/>
	<line class="st0" x1="348.4" y1="338.6" x2="344.1" y2="342.8"/>
	<line class="st0" x1="348.4" y1="355.2" x2="344.1" y2="359.5"/>
	<line class="st0" x1="348.4" y1="371.9" x2="344.1" y2="376.2"/>
	<line class="st0" x1="671.8" y1="5.3" x2="667.6" y2="9.5"/>
	<line class="st0" x1="671.8" y1="21.9" x2="667.6" y2="26.2"/>
	<line class="st0" x1="671.8" y1="38.6" x2="667.6" y2="42.8"/>
	<line class="st0" x1="671.8" y1="55.3" x2="667.6" y2="59.5"/>
	<line class="st0" x1="671.8" y1="71.9" x2="667.6" y2="76.2"/>
	<line class="st0" x1="671.8" y1="88.6" x2="667.6" y2="92.8"/>
	<line class="st0" x1="671.8" y1="105.3" x2="667.6" y2="109.5"/>
	<line class="st0" x1="671.8" y1="121.9" x2="667.6" y2="126.2"/>
	<line class="st0" x1="671.8" y1="138.6" x2="667.6" y2="142.8"/>
	<line class="st0" x1="671.8" y1="155.3" x2="667.6" y2="159.5"/>
	<line class="st0" x1="671.8" y1="171.9" x2="667.6" y2="176.2"/>
	<line class="st0" x1="671.8" y1="188.6" x2="667.6" y2="192.8"/>
	<line class="st0" x1="671.8" y1="205.3" x2="667.6" y2="209.5"/>
	<line class="st0" x1="671.8" y1="221.9" x2="667.6" y2="226.2"/>
	<line class="st0" x1="671.8" y1="238.6" x2="667.6" y2="242.8"/>
	<line class="st0" x1="671.8" y1="255.2" x2="667.6" y2="259.5"/>
	<line class="st0" x1="671.8" y1="271.9" x2="667.6" y2="276.2"/>
	<line class="st0" x1="671.8" y1="288.6" x2="667.6" y2="292.8"/>
	<line class="st0" x1="671.8" y1="305.2" x2="667.6" y2="309.5"/>
	<line class="st0" x1="671.8" y1="321.9" x2="667.6" y2="326.2"/>
	<line class="st0" x1="671.8" y1="338.6" x2="667.6" y2="342.8"/>
	<line class="st0" x1="671.8" y1="355.2" x2="667.6" y2="359.5"/>
	<line class="st0" x1="671.8" y1="371.9" x2="667.6" y2="376.2"/>
</g>
</svg>
