<svg width="6" height="374" viewBox="0 0 6 374" fill="none" xmlns="http://www.w3.org/2000/svg">
    <line x1="4.94978" y1="1.5157" x2="0.707142" y2="5.75834" stroke="#F5DDB7" stroke-width="2" />
    <line x1="4.94978" y1="18.1817" x2="0.707142" y2="22.4244" stroke="#F5DDB7" stroke-width="2" />
    <line x1="4.94978" y1="34.8477" x2="0.707142" y2="39.0904" stroke="#F5DDB7" stroke-width="2" />
    <line x1="4.94978" y1="51.5137" x2="0.707142" y2="55.7564" stroke="#F5DDB7" stroke-width="2" />
    <line x1="4.94978" y1="68.1798" x2="0.707142" y2="72.4224" stroke="#F5DDB7" stroke-width="2" />
    <line x1="4.94978" y1="84.8458" x2="0.707142" y2="89.0884" stroke="#F5DDB7" stroke-width="2" />
    <line x1="4.94978" y1="101.512" x2="0.707142" y2="105.754" stroke="#F5DDB7" stroke-width="2" />
    <line x1="4.94978" y1="118.178" x2="0.707142" y2="122.42" stroke="#F5DDB7" stroke-width="2" />
    <line x1="4.94978" y1="134.844" x2="0.707142" y2="139.086" stroke="#F5DDB7" stroke-width="2" />
    <line x1="4.94978" y1="151.51" x2="0.707142" y2="155.752" stroke="#F5DDB7" stroke-width="2" />
    <line x1="4.94978" y1="168.176" x2="0.707142" y2="172.419" stroke="#F5DDB7" stroke-width="2" />
    <line x1="4.94978" y1="184.842" x2="0.707142" y2="189.085" stroke="#F5DDB7" stroke-width="2" />
    <line x1="4.94978" y1="201.508" x2="0.707142" y2="205.751" stroke="#F5DDB7" stroke-width="2" />
    <line x1="4.94978" y1="218.174" x2="0.707142" y2="222.417" stroke="#F5DDB7" stroke-width="2" />
    <line x1="4.94978" y1="234.84" x2="0.707142" y2="239.083" stroke="#F5DDB7" stroke-width="2" />
    <line x1="4.94978" y1="251.506" x2="0.707142" y2="255.749" stroke="#F5DDB7" stroke-width="2" />
    <line x1="4.94978" y1="268.172" x2="0.707142" y2="272.415" stroke="#F5DDB7" stroke-width="2" />
    <line x1="4.94978" y1="284.838" x2="0.707142" y2="289.081" stroke="#F5DDB7" stroke-width="2" />
    <line x1="4.94978" y1="301.504" x2="0.707142" y2="305.747" stroke="#F5DDB7" stroke-width="2" />
    <line x1="4.94978" y1="318.17" x2="0.707142" y2="322.413" stroke="#F5DDB7" stroke-width="2" />
    <line x1="4.94978" y1="334.836" x2="0.707142" y2="339.079" stroke="#F5DDB7" stroke-width="2" />
    <line x1="4.94978" y1="351.502" x2="0.707142" y2="355.745" stroke="#F5DDB7" stroke-width="2" />
    <line x1="4.94978" y1="368.168" x2="0.707142" y2="372.411" stroke="#F5DDB7" stroke-width="2" />
</svg>
