<svg width="271" height="322" viewBox="0 0 271 322" fill="none" xmlns="http://www.w3.org/2000/svg">
<path fill-rule="evenodd" clip-rule="evenodd" d="M64.0001 272C68.4183 272 72.0001 268.418 72.0001 264L72.0001 201.986L263 201.986C267.418 201.986 271 205.568 271 209.986V313.999C271 318.418 267.418 321.999 263 321.999H7.99999C3.58172 321.999 -1.93107e-07 318.418 0 313.999L4.89572e-06 209.986C4.89572e-06 209.976 2.19718e-05 209.967 5.60954e-05 209.957L5.13714e-05 264C5.09852e-05 268.418 3.58177 272 8.00005 272H64.0001ZM5.60954e-05 209.957L6.85917e-05 67C6.89779e-05 62.5817 3.58179 59 8.00007 59L64.0001 59C68.4184 59 72.0001 62.5817 72.0001 67L72.0001 201.986H8C3.59137 201.986 0.0156501 205.552 5.60954e-05 209.957Z" fill="#FCAC5D"/>
<path d="M108 -3.49691e-07C112.418 -1.56562e-07 116 3.58172 116 8L116 72C116 76.4183 112.418 80 108 80L44 80C39.5817 80 36 76.4183 36 72L36 8C36 3.58172 39.5817 -3.34035e-06 44 -3.14722e-06L108 -3.49691e-07Z" fill="#7360E6"/>
</svg>