<svg width="80" height="24" viewBox="0 0 80 24" fill="none" xmlns="http://www.w3.org/2000/svg">
<g clip-path="url(#clip0_1183_643)">
<path d="M58.15 0.737574C56.2882 0.0645345 54.3222 -0.274831 52.3425 -0.264926C45.95 -0.264926 41.4325 2.96507 41.405 7.58757C41.3525 10.9851 44.6075 12.9001 47.0675 14.0451C49.595 15.2176 50.44 15.9476 50.4275 16.9876C50.415 18.5901 48.4075 19.3051 46.56 19.3051C43.9925 19.3051 42.6 18.9551 40.4525 18.0551L39.655 17.6776L38.745 23.0176C40.3075 23.6551 43.1075 24.2151 45.9975 24.2676C52.8075 24.2676 57.2475 21.0651 57.2975 16.1276C57.35 13.4201 55.6075 11.3651 51.895 9.67007C49.655 8.57757 48.2525 7.83257 48.2525 6.71257C48.2525 5.72257 49.45 4.68257 51.95 4.68257C53.6091 4.64101 55.2585 4.94672 56.7925 5.58007L57.405 5.85257L58.3025 0.710075L58.15 0.737574ZM74.7675 0.177574H69.7675C68.205 0.177574 67.045 0.595073 66.355 2.14507L56.745 23.9276H63.5425L64.9125 20.3601L73.205 20.3726C73.4125 21.2051 73.9975 23.9251 73.9975 23.9251H80L74.7675 0.177574ZM32.2 -0.0174261H38.6725L34.6225 23.7426H28.15L32.2 -0.0299264V-0.0174261ZM15.7425 13.0676L16.405 16.3751L22.745 0.177574H29.6075L19.3975 23.8876H12.565L6.965 3.81007C6.9221 3.6433 6.84566 3.48701 6.74035 3.35076C6.63504 3.2145 6.50307 3.10113 6.3525 3.01757C4.34096 1.97134 2.20707 1.17943 0 0.660074L0.0775 0.162575H10.52C11.9275 0.215075 13.0725 0.660074 13.4625 2.17007L15.7425 13.0801V13.0676ZM66.7575 15.5026L69.35 8.85007C69.31 8.91257 69.8825 7.48257 70.2075 6.58257L70.65 8.62507L72.15 15.4876H66.7575V15.5026Z" fill="#808080"/>
</g>
<defs>
<clipPath id="clip0_1183_643">
<rect width="80" height="24" fill="white"/>
</clipPath>
</defs>
</svg>
