<svg width="81" height="24" viewBox="0 0 81 24" fill="none" xmlns="http://www.w3.org/2000/svg">
<g clip-path="url(#clip0_3912_26423)">
<path d="M58.6109 0.737086C56.7491 0.0640462 54.7832 -0.275319 52.8034 -0.265414C46.4109 -0.265414 41.8934 2.96458 41.8659 7.58708C41.8134 10.9846 45.0684 12.8996 47.5284 14.0446C50.0559 15.2171 50.9009 15.9471 50.8884 16.9871C50.8759 18.5896 48.8684 19.3046 47.0209 19.3046C44.4534 19.3046 43.0609 18.9546 40.9134 18.0546L40.1159 17.6771L39.2059 23.0171C40.7684 23.6546 43.5684 24.2146 46.4584 24.2671C53.2684 24.2671 57.7084 21.0646 57.7584 16.1271C57.8109 13.4196 56.0684 11.3646 52.3559 9.66958C50.1159 8.57708 48.7134 7.83209 48.7134 6.71209C48.7134 5.72209 49.9109 4.68209 52.4109 4.68209C54.07 4.64052 55.7194 4.94623 57.2534 5.57959L57.8659 5.85209L58.7634 0.709586L58.6109 0.737086ZM75.2284 0.177086H70.2284C68.6659 0.177086 67.5059 0.594585 66.8159 2.14458L57.2059 23.9271H64.0034L65.3734 20.3596L73.6659 20.3721C73.8734 21.2046 74.4584 23.9246 74.4584 23.9246H80.4609L75.2284 0.177086ZM32.6609 -0.0179144H39.1334L35.0834 23.7421H28.6109L32.6609 -0.0304147V-0.0179144ZM16.2034 13.0671L16.8659 16.3746L23.2059 0.177086H30.0684L19.8584 23.8871H13.0259L7.42594 3.80959C7.38303 3.64281 7.3066 3.48652 7.20129 3.35027C7.09598 3.21401 6.96401 3.10064 6.81344 3.01708C4.8019 1.97086 2.66801 1.17894 0.460938 0.659585L0.538438 0.162087H10.9809C12.3884 0.214587 13.5334 0.659586 13.9234 2.16959L16.2034 13.0796V13.0671ZM67.2184 15.5021L69.8109 8.84958C69.7709 8.91208 70.3434 7.48209 70.6684 6.58209L71.1109 8.62458L72.6109 15.4871H67.2184V15.5021Z" fill="#F5DDB7"/>
</g>
<defs>
<clipPath id="clip0_3912_26423">
<rect width="80" height="24" fill="white" transform="translate(0.460938)"/>
</clipPath>
</defs>
</svg>
