<svg width="271" height="313" viewBox="0 0 271 313" fill="none" xmlns="http://www.w3.org/2000/svg" preserveAspectRatio="none">
    <path fill-rule="evenodd" clip-rule="evenodd" d="M64 265C68.4183 265 72 261.418 72 257L72 192.986L263 192.986C267.418 192.986 271 196.568 271 200.986V304.999C271 309.418 267.418 312.999 263 312.999H8C3.58173 312.999 9.47066e-06 309.418 9.66377e-06 304.999L1.19224e-05 257.014C0.00754759 261.426 3.58638 265 8 265H64ZM1.45595e-05 200.986L1.19224e-05 257.014C3.97478e-06 257.009 -4.06513e-10 257.005 0 257L1.45595e-05 200.986ZM1.45595e-05 200.986L1.73952e-05 58C1.77814e-05 53.5817 3.58174 50 8.00002 50L64 50C68.4183 50 72 53.5817 72 58L72 192.986H8.00001C3.58174 192.986 1.45595e-05 196.568 1.45595e-05 200.986Z" fill="#F4A3DD" />
    <path d="M110 -3.49691e-07C114.418 -1.56562e-07 118 3.58172 118 8L118 64C118 68.4183 114.418 72 110 72L54 72C49.5817 72 46 68.4183 46 64L46 8C46 3.58172 49.5817 -2.99066e-06 54 -2.79753e-06L110 -3.49691e-07Z" fill="#C859FF" />
</svg>
