<svg width="420" height="421" viewBox="0 0 420 421" fill="none" xmlns="http://www.w3.org/2000/svg" preserveAspectRatio="none">
    <path fill-rule="evenodd" clip-rule="evenodd" d="M10 0C4.47716 0 7.4337e-06 4.47715 7.19228e-06 10L0 208C0 213.523 4.47715 218 10 218H17V327H10C4.47716 327 7.82617e-06 331.477 7.34335e-06 337L0 411C0 416.523 4.47715 421 10 421L198 421C203.523 421 208 416.523 208 411V404H319V411C319 416.523 323.477 421 329 421H407C412.523 421 417 416.523 417 411V337C417 331.477 412.523 327 407 327H404V182.093H409.377C414.9 182.093 419.377 177.616 419.377 172.093V59.8661C419.378 59.8247 419.379 59.7832 419.379 59.7417C419.38 59.7022 419.38 59.6626 419.38 59.6229V10C419.38 4.47717 414.903 6.20278e-06 409.38 5.96137e-06L283 0C277.477 0 273 4.47715 273 10V18H148V10C148 4.47716 143.523 6.27358e-06 138 6.03217e-06L10 0Z" fill="#FCAC5D" />
</svg>
