<svg width="312" height="192" viewBox="0 0 312 192" fill="none" xmlns="http://www.w3.org/2000/svg" preserveAspectRatio="none">
    <path fill-rule="evenodd" clip-rule="evenodd" d="M4.00001 0C1.79087 0 7.55111e-06 1.79086 7.45455e-06 4L4.08878e-06 81C3.99221e-06 83.2091 1.79086 85 4 85H10V122H4.00001C1.79087 122 5.9629e-06 123.791 5.76978e-06 126L0 188C0 190.209 1.79086 192 4 192L150 192C152.209 192 154 190.209 154 188V183H240V188C240 190.209 241.791 192 244 192H308C310.209 192 312 190.209 312 188V126C312 123.791 310.209 122 308 122H302V82H304.559C308.668 82 311.999 78.6692 311.999 74.5604V34.4396L311.999 34.3823L311.998 34.3293V7.43957C311.998 3.33081 308.667 4.24997e-06 304.559 4.07037e-06L211.44 0C207.331 0 204 3.33081 204 7.43957V10H63V4C63 1.79086 61.2092 2.67554e-06 59 2.57897e-06L4.00001 0Z" fill="#FCAC5D" />
</svg>
