<svg width="857" height="420" viewBox="0 0 857 420" fill="none" xmlns="http://www.w3.org/2000/svg" preserveAspectRatio="none">
    <path fill-rule="evenodd" clip-rule="evenodd" d="M10 94C4.47715 94 0 89.5228 0 84L7.34335e-06 9.99997C7.82617e-06 4.47712 4.47716 -3.01262e-05 10 -2.96433e-05L299 -4.37759e-06C304.523 -3.89476e-06 309 4.47715 309 10V17L748 17V9.99998C748 4.47714 752.477 -1.48674e-05 758 -1.43845e-05L847 -6.60374e-06C852.523 -6.12091e-06 857 4.47714 857 9.99999V122C857 127.523 852.523 132 847 132H840V288H847C852.523 288 857 292.477 857 298V410C857 415.523 852.523 420 847 420L558 420C552.477 420 548 415.523 548 410V404L199 404V410C199 415.523 194.523 420 189 420L10 420C4.47715 420 0 415.523 0 410L1.7659e-05 218C1.81418e-05 212.477 4.47717 208 10 208H17L17 94H10Z" fill="#F4A3DD" />
</svg>
