<svg width="312" height="193" viewBox="0 0 312 193" fill="none" xmlns="http://www.w3.org/2000/svg" preserveAspectRatio="none">
    <path fill-rule="evenodd" clip-rule="evenodd" d="M0 40C0 42.2091 1.79086 44 4 44H10V93H4.00001C1.79087 93 8.58553e-06 94.7909 8.3924e-06 97L0 189C0 191.209 1.79086 193 4 193L88 193C90.2091 193 92 191.209 92 189V183H168V189C168 191.209 169.791 193 172 193L308 193C310.209 193 312 191.209 312 189V137C312 134.791 310.209 133 308 133H302V60H308C310.209 60 312 58.2091 312 56V4C312 1.79087 310.209 4.21467e-06 308 4.02154e-06L266 0C263.791 0 262 1.79086 262 4V10H144V4.00001C144 1.79087 142.209 1.24326e-05 140 1.22395e-05L4.00001 0C1.79087 0 3.45154e-06 1.79086 3.25841e-06 4L0 40Z" fill="#F4A3DD" />
</svg>
