<svg width="419" height="422" viewBox="0 0 419 422" fill="none" xmlns="http://www.w3.org/2000/svg" preserveAspectRatio="none">
    <path fill-rule="evenodd" clip-rule="evenodd" d="M4.06516e-06 84C4.06516e-06 89.5229 4.47716 94 10 94H15V318H10C4.47716 318 4.06516e-06 322.477 4.06516e-06 328L0 411C-2.41411e-07 416.523 4.47715 421 10 421H116C121.523 421 126 416.523 126 411V404H236V411.377C236 416.9 240.477 421.377 246 421.377H358.228C358.309 421.379 358.39 421.38 358.471 421.38H408.094C413.617 421.38 418.094 416.903 418.094 411.38V285C418.094 279.477 413.617 275 408.094 275H402V94H408C413.523 94 418 89.5229 418 84V10C418 4.47717 413.523 1.43845e-05 408 1.43845e-05L340 7.62939e-06C334.477 7.14656e-06 330 4.47716 330 10V18H208V10C208 4.47717 203.523 1.69187e-05 198 1.64358e-05L10 0C4.47717 -4.82833e-07 1.18913e-05 4.47715 1.14085e-05 10L4.06516e-06 84Z" fill="#9778DD" />
</svg>
