<svg width="312" height="193" viewBox="0 0 312 193" fill="none" xmlns="http://www.w3.org/2000/svg" preserveAspectRatio="none">
    <path fill-rule="evenodd" clip-rule="evenodd" d="M4 69.9999C1.79086 69.9999 2.36042e-06 68.209 2.36042e-06 65.9999L8.13019e-06 3.99988C8.32332e-06 1.79074 1.79087 -0.00012207 4.00001 -0.00012207L79 -0.000115513C81.2091 -0.00011532 83 1.79075 83 3.99989V10H249V3.99988C249 1.79074 250.791 -0.000118449 253 -0.000118256L308 -0.000113447C310.209 -0.000113254 312 1.79075 312 3.99989V41.9999C312 44.209 310.209 45.9999 308 45.9999H302V115H304.535C308.658 115 312 118.342 312 122.465V185.27C312 189.393 308.658 192.735 304.535 192.735H284.566C284.208 192.735 283.854 192.789 283.503 192.858C283.033 192.951 282.546 193 282.049 193H204.465C200.342 193 197 189.658 197 185.535V183H94V189C94 191.209 92.2091 193 90 193H4C1.79086 193 0 191.209 0 189L2.36042e-06 139C2.36042e-06 136.791 1.79086 135 4 135H10V69.9999H4Z" fill="#9778DD" />
</svg>
