<svg width="419" height="861" viewBox="0 0 419 861" fill="none" xmlns="http://www.w3.org/2000/svg" preserveAspectRatio="none">
    <path fill-rule="evenodd" clip-rule="evenodd" d="M409 133H402V711H409C414.523 711 419 715.477 419 721V851C419 856.523 414.523 861 409 861H311C305.477 861 301 856.523 301 851V841H200V851C200 856.523 195.523 861 190 861H10C4.47715 861 0 856.523 0 851L2.22049e-05 607C2.26877e-05 601.477 4.47718 597 10 597H15V294H10C4.47715 294 0 289.523 0 284L2.48275e-05 10C2.53103e-05 4.47715 4.47718 0 10 0L80 6.99397e-06C85.5229 7.47681e-06 90 4.47717 90 10V18H233V9.99998C233 4.47714 237.477 -1.48674e-05 243 -1.43845e-05L409 0C414.523 0 419 4.47715 419 10V123C419 128.523 414.523 133 409 133Z" fill="#60E771" />
</svg>
