<svg width="313" height="194" viewBox="0 0 313 194" fill="none" xmlns="http://www.w3.org/2000/svg" preserveAspectRatio="none">
    <path fill-rule="evenodd" clip-rule="evenodd" d="M0 68.1074C0 70.8095 2.19049 73 4.8926 73H10V125H4.00001C1.79087 125 5.87549e-06 126.791 5.68236e-06 129L0 190C0 192.209 1.79086 194 4 194H68C70.2091 194 72 192.209 72 190V183H256V189C256 191.209 257.791 193 260 193H308C310.209 193 312 191.209 312 189V123C312 120.791 310.209 119 308 119H302V64H308.002C310.212 64 312.002 62.2092 312.002 60V4.00002C312.002 1.79088 310.212 1.5001e-05 308.002 1.48078e-05L225 7.20166e-06C222.791 7.20166e-06 221 1.79087 221 4.00001V10H44V4.8926C44 2.19049 41.8095 3.22745e-06 39.1074 2.99122e-06L4.89261 0C2.1905 0 6.19022e-06 2.19049 5.954e-06 4.8926L0 68.1074Z" fill="#60E771" />
</svg>
