<svg width="133" height="194" viewBox="0 0 133 194" fill="none" xmlns="http://www.w3.org/2000/svg">
    <path fill-rule="evenodd" clip-rule="evenodd" d="M-86 95L-86 194L40 194C44.4183 194 48 190.418 48 186L48 134L125 134C129.418 134 133 130.418 133 126L133 7.99999C133 3.58172 129.418 -9.41623e-06 125 -9.2231e-06L6.99999 -4.06516e-06C2.58172 -3.87203e-06 -1.00001 3.58172 -1.00001 8L-1 87L-78 87C-82.4183 87 -86 90.5817 -86 95ZM-1 87L-1 126C-1 130.418 2.58172 134 7 134L48 134L48 95C48 90.5817 44.4183 87 40 87L-1 87Z" fill="#FCAC5D" />
</svg>
