<svg width="572" height="745" viewBox="0 0 572 745" fill="none" xmlns="http://www.w3.org/2000/svg" preserveAspectRatio="none">
<path fill-rule="evenodd" clip-rule="evenodd" d="M191 737C191 741.418 194.582 745 199 745L492 745C496.418 745 500 741.418 500 737L500 678L572 678L572 373C572 368.582 568.418 365 564 365L380 365C375.582 365 372 368.582 372 373L372 611L199 611C194.582 611 191 614.582 191 619L191 737ZM372 611L372 670C372 674.418 375.582 678 380 678L500 678L500 619C500 614.582 496.418 611 492 611L372 611Z" fill="#7360E6"/>
<path fill-rule="evenodd" clip-rule="evenodd" d="M-1.3026e-05 117C-1.28329e-05 121.418 3.58171 125 7.99998 125L250 125L250 407C250 411.418 253.582 415 258 415L491 415C495.418 415 499 411.418 499 407L499 66C499 61.5817 495.418 58 491 58L438 58L438 7.99998C438 3.58171 434.418 -1.8989e-05 430 -1.87959e-05L7.99998 -3.49691e-07C3.5817 -1.56562e-07 -1.79837e-05 3.58173 -1.77905e-05 8L-1.3026e-05 117ZM438 58L258 58C253.582 58 250 61.5817 250 66L250 125L430 125C434.418 125 438 121.418 438 117L438 58Z" fill="#50E649"/>
</svg>
