<svg width="114" height="85" viewBox="0 0 114 85" fill="none" xmlns="http://www.w3.org/2000/svg">
    <path fill-rule="evenodd" clip-rule="evenodd" d="M114 4C114 1.79086 112.209 0 110 0H72C69.7909 0 68 1.79086 68 4V42C68 44.2091 69.7909 46 72 46H90L90 81C90 83.2091 91.7909 85 94 85H120C122.209 85 124 83.2091 124 81L124 27C124 24.7909 122.209 23 120 23H114V4ZM114 23L94 23C91.7909 23 90 24.7909 90 27V46H110C112.209 46 114 44.2091 114 42V23Z" fill="#60E771" />
    <rect x="74" width="21" height="74" rx="4" transform="rotate(90 74 0)" fill="#60E771" />
</svg>
