<svg width="271" height="313" viewBox="0 0 271 313" fill="none" xmlns="http://www.w3.org/2000/svg">
    <path fill-rule="evenodd" clip-rule="evenodd" d="M64 265C68.4183 265 72 261.418 72 257L72 192.986L263 192.986C267.418 192.986 271 196.568 271 200.986V304.999C271 309.418 267.418 312.999 263 312.999H7.99999C3.58172 312.999 -5.08882e-06 309.418 -4.89572e-06 304.999L-2.63713e-06 257.014C0.00753303 261.426 3.58637 265 7.99998 265H64ZM0 200.986L-2.63713e-06 257.014C-1.05847e-05 257.009 -1.45599e-05 257.005 -1.45595e-05 257L0 200.986ZM0 200.986L2.83569e-06 58C3.2219e-06 53.5817 3.58173 50 8 50L64 50C68.4183 50 72 53.5817 72 58L72 192.986H8C3.58173 192.986 0 196.568 0 200.986Z" fill="#60E771" />
    <path d="M110 -3.49691e-07C114.418 -1.56562e-07 118 3.58172 118 8L118 64C118 68.4183 114.418 72 110 72L54 72C49.5817 72 46 68.4183 46 64L46 8C46 3.58172 49.5817 -2.99066e-06 54 -2.79753e-06L110 -3.49691e-07Z" fill="#7360E6" />
</svg>
