<svg width="272" height="398" viewBox="0 0 272 398" fill="none" xmlns="http://www.w3.org/2000/svg">
<path fill-rule="evenodd" clip-rule="evenodd" d="M166 8C166 3.58172 169.582 0 174 0H272V70V278H200V97H8C3.58173 97 0 93.4183 0 89V45C0 40.5817 3.58172 37 8 37H166V62C166 66.4183 169.582 70 174 70H200V45C200 40.5817 196.418 37 192 37H166V8ZM200 278V323C200 327.418 203.582 331 208 331H272V390C272 394.418 268.418 398 264 398H147C142.582 398 139 394.418 139 390V286C139 281.582 142.582 278 147 278H200Z" fill="#7360E6"/>
</svg>