<svg width="214" height="244" viewBox="0 0 214 244" fill="none" xmlns="http://www.w3.org/2000/svg">
<path fill-rule="evenodd" clip-rule="evenodd" d="M162 8C162 3.58172 158.418 4.24688e-08 154 9.48572e-08L7.99609 1.82605e-06C3.57782 1.87844e-06 -0.00390621 3.58172 -0.00390615 8L-0.0039053 78.9881L-106.095 78.9881C-110.461 78.9881 -114 82.5272 -114 86.8928L-114 235.107C-114 239.473 -110.461 243.012 -106.095 243.012L44.0952 243.012C48.4609 243.012 52 239.473 52 235.107L52 130L162 130L162 8ZM52 130L52 86.8929C52 82.5272 48.4609 78.9881 44.0952 78.9881L-0.0039053 78.9881L-0.00390479 122C-0.00390473 126.418 3.57782 130 7.9961 130L52 130Z" fill="#7360E6"/>
<path d="M170 182C165.582 182 162 178.418 162 174L162 130L206 130C210.418 130 214 133.582 214 138L214 174C214 178.418 210.418 182 206 182L170 182Z" fill="#7360E6"/>
</svg>
