<svg width="218" height="246" viewBox="0 0 218 246" fill="none" xmlns="http://www.w3.org/2000/svg">
    <path fill-rule="evenodd" clip-rule="evenodd" d="M52 238C52 242.418 55.5817 246 60 246L210 246C214.418 246 218 242.418 218 238L218 166.769L324.03 166.769C328.431 166.769 332 163.201 332 158.799L332 7.96992C332 3.56829 328.431 8.19239e-05 324.03 8.15912e-05L172.788 7.01626e-05C168.387 6.983e-05 164.818 3.56828 164.818 7.9699L164.818 112L52 112L52 238ZM164.818 112L164.818 158.799C164.818 163.201 168.387 166.769 172.788 166.769L218 166.769L218 120C218 115.582 214.418 112 210 112L164.818 112Z" fill="#C859FF" />
    <path d="M44 60.0001C48.4183 60.0001 52 63.5818 52 68.0001L52 112L8 112C3.58172 112 -2.10379e-06 108.418 -1.91181e-06 104L-3.47602e-07 68.0001C-1.55627e-07 63.5818 3.58172 60.0001 8 60.0001L44 60.0001Z" fill="#C859FF" />
</svg>
