<svg width="247" height="267" viewBox="0 0 247 267" fill="none" xmlns="http://www.w3.org/2000/svg" preserveAspectRatio="none">
    <path d="M247 259C247 263.418 243.418 267 239 267L207 267C202.582 267 199 263.418 199 259L199 219L239 219C243.418 219 247 222.582 247 227L247 259Z" fill="#FCAC5D" />
    <path fill-rule="evenodd" clip-rule="evenodd" d="M80 8C80 3.58173 76.4183 3.14722e-06 72 3.14722e-06L8.00001 0C3.58173 -1.93129e-07 8.39258e-06 3.58173 8.39258e-06 8V147L0 192C-1.70977e-10 192.004 2.79799e-06 192.008 8.39258e-06 192.012V211C8.39258e-06 215.418 3.58173 219 8.00001 219H199V147C199 142.582 195.418 139 191 139H80L80 8Z" fill="#FCAC5D" />
</svg>
