<svg width="381" height="293" viewBox="0 0 381 293" fill="none" xmlns="http://www.w3.org/2000/svg" preserveAspectRatio="none">
    <path fill-rule="evenodd" clip-rule="evenodd" d="M381 8.00001C381 3.58173 377.418 6.73155e-06 373 6.73155e-06L227 0C222.582 -1.93129e-07 219 3.58172 219 8L219 152C219 156.418 222.582 160 227 160H309L309 285C309 289.418 312.582 293 317 293H421C425.418 293 429 289.418 429 285L429 96C429 91.5817 425.418 88 421 88H381V8.00001ZM381 88L317 88C312.582 88 309 91.5817 309 96V160H373C377.418 160 381 156.418 381 152V88Z" fill="#7360E6" />
    <rect x="254" width="67" height="254" rx="8" transform="rotate(90 254 0)" fill="#7360E6" />
</svg>
