<svg width="272" height="398" viewBox="0 0 272 398" fill="none" xmlns="http://www.w3.org/2000/svg">
    <path fill-rule="evenodd" clip-rule="evenodd" d="M152 8C152 3.58172 155.582 0 160 0H272V70V77V278H200V108H8C3.58173 108 0 104.418 0 100V38C0 33.5817 3.58172 30 8 30H152V69C152 73.4183 155.582 77 160 77H200L200 70L200 38C200 33.5817 196.418 30 192 30H152V8ZM200 278V323C200 327.418 203.582 331 208 331H272V390C272 394.418 268.418 398 264 398H147C142.582 398 139 394.418 139 390V286C139 281.582 142.582 278 147 278H200Z" fill="#FCAC5D" />
</svg>
