<svg width="218" height="246" viewBox="0 0 218 246" fill="none" xmlns="http://www.w3.org/2000/svg">
<path fill-rule="evenodd" clip-rule="evenodd" d="M166 8C166 3.58172 162.418 4.24692e-08 158 9.48576e-08L8 1.87344e-06C3.58173 1.92583e-06 4.29554e-08 3.58173 9.59436e-08 8L9.50212e-07 79.2309L-106.03 79.2309C-110.431 79.2309 -114 82.7991 -114 87.2007L-114 238.03C-114 242.432 -110.431 246 -106.03 246L45.2118 246C49.6134 246 53.1816 242.432 53.1816 238.03L53.1816 134L166 134L166 8ZM53.1816 134L53.1816 87.2007C53.1816 82.7991 49.6134 79.2309 45.2118 79.2309L9.50212e-07 79.2309L1.51111e-06 126C1.5641e-06 130.418 3.58173 134 8 134L53.1816 134Z" fill="#7360E6"/>
<path d="M174 186C169.582 186 166 182.418 166 178L166 134L210 134C214.418 134 218 137.582 218 142L218 178C218 182.418 214.418 186 210 186L174 186Z" fill="#7360E6"/>
</svg>