<svg width="230" height="232" viewBox="0 0 230 232" fill="none" xmlns="http://www.w3.org/2000/svg">
    <path d="M222 76C226.418 76 230 79.5817 230 84L230 116C230 120.418 226.418 124 222 124L182 124L182 84C182 79.5817 185.582 76 190 76L222 76Z" fill="#7360E6" />
    <path fill-rule="evenodd" clip-rule="evenodd" d="M8.00001 232C3.58173 232 9.79135e-06 228.418 9.79135e-06 224L9.79135e-06 132C9.79135e-06 131.995 1.47885e-05 131.99 2.47784e-05 131.984L1.90092e-05 0L64 -2.79753e-06C68.4183 -2.99066e-06 72 3.58172 72 8L72 124L182 124L182 224C182 228.418 178.418 232 174 232L8.00001 232ZM72 124L72 174C72 178.418 68.4183 182 64 182L8.00003 182C3.58175 182 2.68081e-05 178.418 2.6615e-05 174L2.47784e-05 131.984C0.0084723 127.573 3.58695 124 8.00001 124L72 124Z" fill="#7360E6" />
</svg>
