<svg width="134" height="194" viewBox="0 0 134 194" fill="none" xmlns="http://www.w3.org/2000/svg">
<path fill-rule="evenodd" clip-rule="evenodd" d="M-85 95L-85 194L41 194C45.4183 194 49 190.418 49 186L49 134L126 134C130.418 134 134 130.418 134 126L134 7.99999C134 3.58172 130.418 -9.41623e-06 126 -9.2231e-06L7.99999 -4.06516e-06C3.58172 -3.87203e-06 -8.32345e-06 3.58172 -8.13032e-06 8L-4.67712e-06 87L-77 87C-81.4183 87 -85 90.5817 -85 95ZM-4.67712e-06 87L-2.97237e-06 126C-2.77925e-06 130.418 3.58172 134 8 134L49 134L49 95C49 90.5817 45.4183 87 41 87L-4.67712e-06 87Z" fill="#F4A3DD"/>
</svg>