<svg width="199" height="219" viewBox="0 0 199 219" fill="none" xmlns="http://www.w3.org/2000/svg">
    <path fill-rule="evenodd" clip-rule="evenodd" d="M119 211C119 215.418 122.582 219 127 219L191 219C195.418 219 199 215.418 199 211L199 72L199 27C199 26.9961 199 26.9922 199 26.9883L199 8C199 3.58173 195.418 -3.13124e-07 191 -6.99382e-07L8.00002 -1.66978e-05C3.58175 -1.7084e-05 1.88325e-05 3.58171 1.84462e-05 7.99998L1.28511e-05 72C1.24649e-05 76.4183 3.58174 80 8.00001 80L119 80L119 211Z" fill="#7360E6" />
</svg>
