<svg width="168" height="179" viewBox="0 0 168 179" fill="none" xmlns="http://www.w3.org/2000/svg">
    <path fill-rule="evenodd" clip-rule="evenodd" d="M82.7064 174.964C82.7064 176.903 84.2789 178.476 86.2186 178.476L168 178.476L168 0.23193L86.2186 0.231934C84.2788 0.231934 82.7064 1.8044 82.7064 3.74413V41.1562L3.51219 41.1562C1.57246 41.1562 0 42.7287 0 44.6684L2.37925e-06 99.0344C2.46413e-06 100.974 1.57247 102.547 3.5122 102.547L82.7064 102.547L82.7064 174.964ZM82.7064 102.547H119.415C121.354 102.547 122.927 100.974 122.927 99.0344V44.6684C122.927 42.7287 121.354 41.1562 119.415 41.1562L82.7064 41.1562L82.7064 102.547Z" fill="#F4A3DD" />
</svg>
