<svg width="234" height="519" viewBox="0 0 234 519" fill="none" xmlns="http://www.w3.org/2000/svg" preserveAspectRatio="none">
    <path d="M234 295L201 295C196.582 295 193 291.418 193 287L193 221C193 216.582 196.582 213 201 213L234 213L234 295Z" fill="#60E771" />
    <path fill-rule="evenodd" clip-rule="evenodd" d="M178 213L234 213L234 118L234 7.99998C234 3.58171 230.418 -3.13124e-07 226 -6.99382e-07L84 -1.31134e-05C79.5817 -1.34997e-05 76 3.5817 76 7.99997L76 150.651C76 155.069 79.5817 158.651 84 158.651L170 158.651L170 205C170 209.418 173.582 213 178 213ZM170 158.651L234 158.651L234 118L178 118C173.582 118 170 121.582 170 126L170 158.651Z" fill="#C859FF" />
    <path fill-rule="evenodd" clip-rule="evenodd" d="M8 402H234V462V472V519H185C180.582 519 177 515.418 177 511V472H8C3.58172 472 0 468.418 0 464V410C0 405.582 3.58172 402 8 402Z" fill="#C859FF" />
</svg>
