<svg width="967" height="170" viewBox="0 0 967 170" fill="none" xmlns="http://www.w3.org/2000/svg" preserveAspectRatio="none">
    <rect y="15" width="954" height="140" rx="10" fill="#60E771" />
    <rect width="44.8182" height="72.0191" rx="8" transform="matrix(-1 -5.56111e-08 -5.56615e-08 1 44.8184 85)" fill="#60E771" />
    <rect width="212" height="70" rx="8" transform="matrix(-1 -5.56111e-08 -5.56615e-08 1 296.654 3)" fill="#60E771" />
    <rect width="43" height="72" rx="8" transform="matrix(1.19249e-08 -1 -1 -1.19249e-08 72 169)" fill="#60E771" />
    <rect width="253" height="72" rx="8" transform="matrix(-1 -5.56111e-08 -5.56615e-08 1 819 98)" fill="#60E771" />
    <rect width="91" height="291" rx="8" transform="matrix(1.1608e-08 -1 -1 -1.22504e-08 967 91)" fill="#60E771" />
</svg>
