<svg width="967" height="227" viewBox="0 0 967 227" fill="none" xmlns="http://www.w3.org/2000/svg" preserveAspectRatio="none">
    <rect y="13" width="955" height="199" rx="10" fill="#9778DD" />
    <path fill-rule="evenodd" clip-rule="evenodd" d="M877 219C877 223.418 880.582 227 885 227L959 227C963.418 227 967 223.418 967 219L967 138C967 133.582 963.418 130 959 130L885 130C880.582 130 877 133.582 877 138L877 219ZM0.669003 84.7924C0.238705 83.8104 -3.57566e-06 82.7255 -3.52635e-06 81.5847L-3.45787e-07 8C-1.54815e-07 3.58172 3.58173 1.58331e-07 8 3.53641e-07L241.92 2.13968e-05C246.338 2.17875e-05 249.92 3.58174 249.92 8.00002L249.92 81.5847C249.92 86.003 246.338 89.5847 241.92 89.5847L142 89.5847L142 216C142 220.418 138.418 224 134 224L7.99999 224C3.58172 224 -9.52719e-06 220.418 -9.33622e-06 216L-3.80365e-06 88C-3.75434e-06 86.8593 0.238705 85.7743 0.669003 84.7924Z" fill="#9778DD" />
</svg>
