<svg width="1440" height="1069" viewBox="0 0 1440 1069" fill="none" xmlns="http://www.w3.org/2000/svg" preserveAspectRatio="none">
    <path d="M110 906L110 862.491C110 858.354 113.354 855 117.491 855L161 855L161 906L110 906Z" fill="#781AA8" />
    <path fill-rule="evenodd" clip-rule="evenodd" d="M1440 885.995H1360.24C1364.55 885.874 1368.01 882.34 1368.01 877.998V268.999H1316C1311.58 268.999 1308 265.417 1308 260.999V158.589H1167V189.999C1167 194.417 1163.42 197.999 1159 197.999L846 197.999C841.582 197.999 838 194.417 838 189.999V158.589H766.012H738.014H654.012V60.5897C654.012 56.1714 650.43 52.5897 646.012 52.5897H302.012C300.195 52.5897 298.519 53.1956 297.176 54.2164C293.642 55.0462 291.012 58.2183 291.012 62.0047V184.005C291.012 188.423 294.594 192.005 299.012 192.005H363.012C367.43 192.005 371.012 188.423 371.012 184.005V158.59H654.012V243.947C654.012 248.365 657.594 251.947 662.012 251.947H730.014V630.238H663.012C658.594 630.238 655.012 633.82 655.012 638.238V805.999H570.012V877.999C570.012 882.327 573.449 885.853 577.742 885.995L0 885.995L8.07686e-05 0L1440 0.00012094L1440 142.999V260.999V885.995ZM570.011 734C570.011 729.582 566.429 726 562.011 726H498.011C493.593 726 490.011 729.582 490.011 734V798C490.011 802.418 493.593 806 498.011 806H570.011V734ZM820 938C820 942.418 816.418 946 812 946H740.652H740.643H718.219L452 946C447.582 946 444 942.418 444 938V894C444 889.582 447.582 886 452 886H702.219C706.637 886 710.219 882.418 710.219 878V836C710.219 831.582 713.801 828 718.219 828H812C816.418 828 820 831.582 820 836V938Z" fill="#781AA8" />
    <path fill-rule="evenodd" clip-rule="evenodd" d="M102 753.001C106.418 753.001 110 756.583 110 761.001V799.001L153 799.001C157.418 799.001 161 802.583 161 807.001V850.001H117C113.988 850.001 111.365 851.666 110 854.125L110 901H161V850.001L306 850.001C310.418 850.001 314 853.583 314 858.001V938.001C314 942.419 310.418 946.001 306 946.001H153.035C153.067 946.001 153.098 946 153.129 946H116.876C116.917 946.001 116.958 946.001 117 946.001H153.035L153 946.001H110V1001C110 1005.42 106.418 1009 102 1009H8C3.58171 1009 -3.4041e-06 1005.42 -3.21097e-06 1001L7.2797e-06 761.001C7.47283e-06 756.583 3.58173 753.001 8.00001 753.001L102 753.001Z" fill="#C859FF" />
    <path fill-rule="evenodd" clip-rule="evenodd" d="M1294 834C1294 829.582 1290.42 826 1286 826L1048 826C1043.58 826 1040 829.582 1040 834L1040 938C1040 942.418 1043.58 946 1048 946L1248 946L1286 946L1286.01 946L1368 946V1009H1316C1311.58 1009 1308 1012.58 1308 1017V1061C1308 1065.42 1311.58 1069 1316 1069H1360C1364.42 1069 1368 1065.42 1368 1061V1009H1432C1436.42 1009 1440 1005.42 1440 1001V938V874V874C1440 872.895 1439.78 871.843 1439.37 870.886C1438.16 868.014 1435.31 866 1432 866L1376 866C1375.97 866 1375.94 866 1375.91 866L1294 866V834Z" fill="#C859FF" />
</svg>
