<svg width="110" height="209" viewBox="0 0 110 209" fill="none" xmlns="http://www.w3.org/2000/svg">
    <path fill-rule="evenodd" clip-rule="evenodd" d="M-20 1.39876e-06C-24.4183 6.26248e-07 -28 3.58172 -28 8L-28 166C-28 170.418 -24.4183 174 -20 174L-2.00001 174L-2.00002 201C-2.00002 205.418 1.58171 209 5.99999 209L101.1 209C105.518 209 109.1 205.418 109.1 201L109.1 112.5C109.1 108.082 105.518 104.5 101.1 104.5L36 104.5L36 8.00001C36 3.58173 32.4183 1.05639e-05 28 9.79135e-06L-20 1.39876e-06ZM36 104.5L6 104.5C1.58172 104.5 -2 108.082 -2 112.5L-2.00001 174L28 174C32.4182 174 36 170.418 36 166L36 104.5Z" fill="#50E649" />
</svg>
