<svg width="178" height="190" viewBox="0 0 178 190" fill="none" xmlns="http://www.w3.org/2000/svg">
    <path fill-rule="evenodd" clip-rule="evenodd" d="M171.559 190C175.116 190 178 187.116 178 183.559L178 37.839C178 34.2819 175.116 31.3983 171.559 31.3983L149 31.3983L149 8.00001C149 3.58172 145.418 -2.84839e-06 141 -3.23464e-06L56 -1.06656e-05C51.5817 -1.10518e-05 48 3.58171 48 7.99999L48 95L120.506 95L120.506 183.559C120.506 187.116 123.39 190 126.947 190L171.559 190ZM120.506 95L141 95C145.418 95 149 91.4183 149 87L149 31.3983L126.947 31.3983C123.39 31.3983 120.506 34.2819 120.506 37.839L120.506 95Z" fill="#F4A3DD" />
    <path d="M0 103C0 98.5817 3.58172 95 8 95H48V135C48 139.418 44.4183 143 40 143H8C3.58172 143 0 139.418 0 135V103Z" fill="#F4A3DD" />
</svg>
