<svg width="182" height="194" viewBox="0 0 182 194" fill="none" xmlns="http://www.w3.org/2000/svg">
    <path fill-rule="evenodd" clip-rule="evenodd" d="M-37 95L-37 194L89 194C93.4183 194 97 190.418 97 186L97 134L174 134C178.418 134 182 130.418 182 126L182 7.99999C182 3.58172 178.418 -9.41623e-06 174 -9.2231e-06L56 -4.06516e-06C51.5817 -3.87203e-06 48 3.58172 48 8L48 87L-29 87C-33.4183 87 -37 90.5817 -37 95ZM48 87L48 126C48 130.418 51.5817 134 56 134L97 134L97 95C97 90.5817 93.4183 87 89 87L48 87Z" fill="#FCAC5D" />
</svg>
