<svg width="137" height="68" viewBox="0 0 137 68" fill="none" xmlns="http://www.w3.org/2000/svg">
    <path fill-rule="evenodd" clip-rule="evenodd" d="M3.05176e-05 8C3.05176e-05 3.58173 3.58176 3.26809e-06 8.00003 3.07456e-06L74 0C78.4183 0 82 3.58172 82 8V22L129 22C133.418 22 137 25.5817 137 30L137 60C137 64.4183 133.418 68 129 68L8.00002 68C3.58174 68 1.52588e-05 64.4183 1.52588e-05 60L3.05176e-05 40L1.52588e-05 30C1.52588e-05 29.9947 3.05176e-05 29.9895 3.05176e-05 29.9842V8Z" fill="#FCAC5D" />
</svg>
