<svg width="111" height="130" viewBox="0 0 111 130" fill="none" xmlns="http://www.w3.org/2000/svg">
    <path fill-rule="evenodd" clip-rule="evenodd" d="M106.865 130C109.299 130 111.271 128.027 111.271 125.593L111.271 25.8898C111.271 23.456 109.299 21.483 106.865 21.483L91.4408 21.483L91.4408 4.40677C91.4408 1.97297 89.4679 -1.90613e-06 87.0341 -2.1189e-06L26.4408 -7.41613e-06C24.007 -7.6289e-06 22.0341 1.97297 22.0341 4.40676L22.0341 65L71.6105 65L71.6105 125.593C71.6105 128.027 73.5835 130 76.0172 130L106.865 130ZM71.6105 65L87.0341 65C89.4679 65 91.4408 63.027 91.4408 60.5932L91.4408 21.483L76.0173 21.483C73.5835 21.483 71.6105 23.456 71.6105 25.8898L71.6105 65Z" fill="#F4A3DD" />
    <path d="M0 69.4068C0 66.973 1.97298 65 4.40678 65H22.0339V82.6271C22.0339 85.0609 20.0609 87.0339 17.6271 87.0339H4.40679C1.97299 87.0339 0 85.0609 0 82.6271V69.4068Z" fill="#F4A3DD" />
</svg>
