<svg width="164" height="174" viewBox="0 0 164 174" fill="none" xmlns="http://www.w3.org/2000/svg">
    <path fill-rule="evenodd" clip-rule="evenodd" d="M80.7373 166C80.7373 170.418 84.319 174 88.7373 174H164.001L164.001 0L88.7373 3.18453e-06C84.319 3.37148e-06 80.7373 3.58172 80.7373 8V39.9525L8 39.9525C3.58172 39.9525 -1.93359e-07 43.5342 0 47.9525L2.27258e-06 91.8811C2.27258e-06 96.2994 3.58172 99.8811 8 99.8811L80.7373 99.8811L80.7373 166ZM80.7373 99.8811H112C116.418 99.8811 120 96.2994 120 91.8811V47.9525C120 43.5342 116.418 39.9525 112 39.9525L80.7373 39.9525L80.7373 99.8811Z" fill="#7360E6" />
</svg>
