<svg width="446" height="236" viewBox="0 0 446 236" fill="none" xmlns="http://www.w3.org/2000/svg">
    <path fill-rule="evenodd" clip-rule="evenodd" d="M297 112H339V228C339 232.418 342.582 236 347 236H438C442.418 236 446 232.418 446 228V104V96.0001V8C446 3.58172 442.418 0 438 0L261 7.27949e-06C260.019 7.32241e-06 259.079 0.17668 258.21 0.499951L8 0.499961C3.58172 0.499962 0 4.08169 0 8.49996L3.90749e-06 97.9478C4.1005e-06 102.366 3.58175 105.948 8.00003 105.948L128 105.948V143C128 147.418 131.582 151 136 151H289C293.418 151 297 147.418 297 143V112ZM297 112L255 112C250.582 112 247 108.418 247 104V70.0001C247 65.5818 250.582 62.0001 255 62.0001L289 62.0001C293.418 62.0001 297 65.5818 297 70.0001V112Z" fill="#60E771" />
</svg>
