<svg width="98" height="471" viewBox="0 0 98 471" fill="none" xmlns="http://www.w3.org/2000/svg">
    <path fill-rule="evenodd" clip-rule="evenodd" d="M97.5356 236.513C97.5356 232.094 93.9538 228.513 89.5356 228.513L34.3697 228.513L34.3697 8.00017C34.3697 3.5819 37.9514 0.000169288 42.3697 0.000169675L188 0.000182406C192.418 0.000182792 196 3.58191 196 8.00018L196 253.024C196 257.442 192.418 261.024 188 261.024L97.5355 261.024L97.5356 236.513ZM97.5355 261.024L97.5355 462.958C97.5355 467.376 93.9538 470.958 89.5355 470.958L8.53554 470.958C4.11726 470.958 0.535538 467.376 0.535538 462.958L0.535558 236.513C0.535559 232.094 4.11727 228.513 8.53554 228.513L34.3697 228.513L34.3697 253.024C34.3697 257.442 37.9514 261.024 42.3697 261.024L97.5355 261.024Z" fill="#FCAC5D" />
</svg>
