<svg width="174" height="507" viewBox="0 0 174 507" fill="none" xmlns="http://www.w3.org/2000/svg">
    <path fill-rule="evenodd" clip-rule="evenodd" d="M69.0001 254C69.0001 249.582 65.4184 246 61.0001 246L2.28173e-05 246L2.83652e-05 7.99998C2.87514e-05 3.58171 3.58176 -1.48984e-05 8.00003 -1.45122e-05L166 -6.99382e-07C170.418 -3.13124e-07 174 3.58173 174 8L174 273C174 277.418 170.418 281 166 281L69.0001 281L69.0001 254ZM69.0001 281L69.0001 499C69.0001 503.418 65.4184 507 61.0001 507L-27.9999 507C-32.4182 507 -35.9999 503.418 -35.9999 499L-35.9999 254C-35.9999 249.582 -32.4182 246 -27.9999 246L2.28173e-05 246L2.04569e-05 273C2.00707e-05 277.418 3.58175 281 8.00002 281L69.0001 281Z" fill="#F4A3DD" />
</svg>
