<svg width="186" height="267" viewBox="0 0 186 267" fill="none" xmlns="http://www.w3.org/2000/svg">
    <path fill-rule="evenodd" clip-rule="evenodd" d="M186 259V181V147V8C186 3.58172 182.418 0 178 0L98 3.97069e-06C93.5817 3.97069e-06 90 3.58173 90 8.00001L90 139H8C3.58172 139 0 142.582 0 147L5.24537e-06 259C5.24537e-06 263.418 3.58173 267 8.00001 267H178C182.418 267 186 263.418 186 259ZM90 139L90 181C90 185.418 93.5817 189 98 189H132C136.418 189 140 185.418 140 181V147C140 142.582 136.418 139 132 139H90Z" fill="#F4A3DD" />
</svg>
