<svg width="123" height="78" viewBox="0 0 123 78" fill="none" xmlns="http://www.w3.org/2000/svg">
    <path fill-rule="evenodd" clip-rule="evenodd" d="M56 0.000488281C58.2091 0.000488281 60 1.79135 60 4.00049V20.0005L38.0002 20.0005C35.791 20.0005 34.0002 21.7913 34.0002 24.0005V42.0005C34.0002 44.2096 35.791 46.0005 38.0002 46.0005H56.0002C58.2093 46.0005 60.0002 44.2096 60.0002 42.0005V20.0005L119 20.0005C121.209 20.0005 123 21.7914 123 24.0005V74.0005C123 76.2096 121.209 78.0005 119 78.0005H4.00034C1.7912 78.0005 0.000333236 76.2096 0.000333333 74.0005L0.000334205 54.0527C0.000111627 54.0354 0 54.0179 0 54.0005L3.63985e-06 4.00049C3.73642e-06 1.79135 1.79086 0.000488281 4 0.000488281H56Z" fill="#60E771" />
</svg>
