<svg width="134" height="194" viewBox="0 0 134 194" fill="none" xmlns="http://www.w3.org/2000/svg">
<path fill-rule="evenodd" clip-rule="evenodd" d="M134 8C134 3.58172 130.418 -1.56562e-07 126 -3.49691e-07L8 -5.50763e-06C3.58173 -5.70076e-06 -1.56562e-07 3.58171 -3.49691e-07 7.99999L-2.62268e-06 60L-77 60C-81.4183 60 -85 63.5817 -85 68L-85 186C-85 190.418 -81.4183 194 -77 194L41 194C45.4183 194 49 190.418 49 186L49 107L126 107C130.418 107 134 103.418 134 99L134 8ZM49 107L49 68C49 63.5817 45.4183 60 41 60L-2.62268e-06 60L-4.32743e-06 99C-4.52056e-06 103.418 3.58172 107 8 107L49 107Z" fill="#60E771"/>
</svg>
