<svg width="383" height="429" viewBox="0 0 383 429" fill="none" xmlns="http://www.w3.org/2000/svg" preserveAspectRatio="none">
<path d="M0.964844 297C0.964844 292.582 4.54657 289 8.96484 289H140.965V421C140.965 425.418 137.383 429 132.965 429H8.96484C4.54657 429 0.964844 425.418 0.964844 421V297Z" fill="#F4A3DD"/>
<path d="M208.964 8C208.964 3.58172 212.546 0 216.964 0H250.964C255.382 0 258.964 3.58172 258.964 8V50H216.964C212.546 50 208.964 46.4183 208.964 42V8Z" fill="#F4A3DD"/>
<path fill-rule="evenodd" clip-rule="evenodd" d="M382.963 58C382.963 53.5817 379.381 50 374.963 50L258.963 50L258.963 109L148.963 109C144.545 109 140.963 112.582 140.963 117L140.963 289L258.963 289L258.963 421C258.963 425.418 262.545 429 266.963 429L382.963 429L382.963 58ZM258.963 289L312.963 289C317.381 289 320.963 285.418 320.963 281L320.963 117C320.963 112.582 317.381 109 312.963 109L258.963 109L258.963 289Z" fill="#F4A3DD"/>
</svg>
