<svg width="94" height="32" viewBox="0 0 94 32" fill="none" xmlns="http://www.w3.org/2000/svg">
<path d="M33.2484 0.306812C33.2484 0.251775 33.2484 0.188876 33.2484 0.133839C33.1992 0.125977 33.1746 0.125977 33.15 0.125977C31.9781 0.125977 30.8062 0.125977 29.6342 0.125977C29.5687 0.125977 29.5113 0.141701 29.4457 0.157426C28.2328 0.503372 27.0281 0.85718 25.8152 1.20313C25.5038 1.28961 25.1924 1.39969 24.8564 1.39969C17.12 1.39182 9.37547 1.39182 1.63912 1.39182C1.56536 1.39182 1.4916 1.39182 1.40145 1.39182C1.40145 1.47831 1.40145 1.54121 1.40145 1.60411C1.40145 4.72548 1.40145 7.85472 1.40145 10.9761C1.40145 11.0704 1.39326 11.1727 1.36048 11.2513C0.967103 12.1869 0.565534 13.1147 0.163965 14.0346C0.114793 14.1525 0.0574261 14.2626 0.114793 14.412C0.467191 15.2768 0.803198 16.1496 1.1474 17.0066C1.30311 17.3997 1.40145 17.7849 1.40145 18.2174C1.38506 22.2901 1.39326 26.3628 1.39326 30.4356C1.39326 30.5063 1.39326 30.5771 1.39326 30.6793C1.47521 30.6793 1.54077 30.6793 1.59814 30.6793C2.61436 30.6793 3.63057 30.6793 4.64679 30.6793C4.73694 30.6793 4.82709 30.7029 4.90904 30.7422C5.70398 31.1196 6.49073 31.5048 7.28567 31.8822C7.37582 31.9216 7.48236 31.953 7.5807 31.953C9.19518 31.9609 10.8096 31.953 12.4241 31.953C16.8496 31.953 21.275 31.953 25.7005 31.953C25.7988 31.953 25.9136 31.9373 26.0037 31.898C26.7905 31.5206 27.569 31.1353 28.3558 30.7579C28.4541 30.7107 28.577 30.6872 28.6836 30.6793C29.6916 30.6714 30.7078 30.6793 31.7158 30.6793C31.7732 30.6793 31.8388 30.6793 31.9125 30.6793C31.9125 30.5928 31.9125 30.522 31.9125 30.4591C31.9125 27.3378 31.9125 24.2085 31.9125 21.0872C31.9125 21.0007 31.9125 20.9063 31.9453 20.8277C32.3141 19.9707 32.6829 19.1216 33.0517 18.2567C33.1336 18.068 33.232 17.8714 33.232 17.6749C33.2484 11.8803 33.2484 6.09354 33.2484 0.306812Z" fill="#382D4D" fill-opacity="0.4"/>
<path d="M52.7129 13.6098H50.4182L49.4348 11.314H42.5262L41.5427 13.6098H39.248L44.5012 1.38379H47.4597L52.7129 13.6098ZM48.6644 9.53711L46.2796 3.99411C46.1731 3.75037 46.1239 3.49878 46.1157 3.23932L46.1075 2.6575H45.8207L45.8289 3.18428C45.8289 3.45946 45.7797 3.72679 45.665 3.97838L43.2801 9.53711H48.6644Z" fill="#382D4D" fill-opacity="0.4"/>
<path d="M57.417 12.0845V13.8693H56.0893C54.3273 13.8693 52.9014 12.7292 52.9014 11.3219V1.38379H55.0239V11.3219C55.0239 11.7464 55.4993 12.0845 56.0893 12.0845H57.417Z" fill="#382D4D" fill-opacity="0.4"/>
<path d="M58.0645 3.93138V1.89502H60.187V3.93138H58.0645ZM58.0645 13.61V4.44244H60.187V13.61H58.0645Z" fill="#382D4D" fill-opacity="0.4"/>
<path d="M72.5052 4.44238L67.7437 13.61H65.4818L60.7285 4.44238H62.8019L66.2521 11.0861C66.3997 11.3692 66.4734 11.6758 66.4734 11.9903V12.3362H66.7603V11.9903C66.7603 11.6758 66.834 11.3613 66.9815 11.0861L70.4318 4.44238H72.5052Z" fill="#382D4D" fill-opacity="0.4"/>
<path d="M83.2403 9.78847H74.1354C74.5369 11.1093 75.9383 12.0843 77.6102 12.0843C78.6674 12.0843 79.6262 11.6912 80.2818 11.0622H82.7896C81.8799 12.7133 79.9049 13.8612 77.6102 13.8612C74.455 13.8612 71.9062 11.6912 71.9062 9.02581C71.9062 6.36045 74.4632 4.19043 77.6102 4.19043C80.4539 4.19043 82.8142 5.95161 83.2485 8.26316C83.2977 8.51475 83.3223 8.76635 83.3223 9.02581C83.3141 9.28527 83.2895 9.54473 83.2403 9.78847ZM74.8402 8.26316H81.0768C80.6752 6.94227 79.2738 5.9752 77.602 5.9752C76.0285 5.9752 74.7008 6.84006 74.2091 8.03515C74.1518 8.16881 74.0862 8.29461 74.0042 8.41254L73.6273 8.95505L73.8649 9.10444L74.2419 8.56979C74.3812 8.37323 74.6025 8.26316 74.8402 8.26316Z" fill="#382D4D" fill-opacity="0.4"/>
<path d="M53.9093 18.4531V30.6792H51.7867V21.1263C51.7867 20.8669 51.8359 20.6074 51.9424 20.3716L52.1883 19.7819L51.926 19.6797L51.6965 20.2222C51.6638 20.3008 51.6228 20.3794 51.5818 20.4502L48.1726 26.347H45.8287L42.4686 20.5367C42.4277 20.4659 42.3867 20.3873 42.3539 20.3087L42.0917 19.6797L41.8294 19.7819L42.0753 20.3716C42.1736 20.6153 42.231 20.8669 42.231 21.1263V30.6792H40.1084V18.4531H43.3947L46.5991 24.004C46.7712 24.3028 46.8695 24.6487 46.8695 24.9946V25.3327H47.1563V24.9711C47.1563 24.6251 47.2465 24.287 47.4268 23.9804L50.623 18.4531H53.9093Z" fill="#382D4D" fill-opacity="0.4"/>
<path d="M66.2023 26.8656H57.0973C57.4989 28.1865 58.9002 29.1614 60.5721 29.1614C61.6293 29.1614 62.5881 28.7683 63.2438 28.1393H65.7515C64.8418 29.7904 62.8668 30.9383 60.5721 30.9383C57.4169 30.9383 54.8682 28.7683 54.8682 26.103C54.8682 23.4376 57.4251 21.2676 60.5721 21.2676C63.4159 21.2676 65.7761 23.0288 66.2104 25.3403C66.2596 25.5919 66.2842 25.8435 66.2842 26.103C66.276 26.3624 66.2514 26.614 66.2023 26.8656ZM57.8021 25.3324H64.0387C63.6371 24.0116 62.2357 23.0445 60.5639 23.0445C58.9904 23.0445 57.6628 23.9093 57.171 25.1044C57.1137 25.2381 57.0481 25.3639 56.9662 25.4818L56.5892 26.0243L56.8268 26.1737L57.2038 25.6391C57.3431 25.4504 57.5644 25.3324 57.8021 25.3324Z" fill="#382D4D" fill-opacity="0.4"/>
<path d="M78.1592 18.4609V30.687H76.0366V26.1032C76.0366 24.4128 74.4304 23.0447 72.4553 23.0447C70.4802 23.0447 68.8739 24.4128 68.8739 26.1032C68.8739 27.7936 69.9393 29.1617 71.267 29.1617C72.5864 29.1617 73.6518 28.0216 73.6518 26.6143H75.7744C75.7744 29.0044 73.7501 30.9464 71.2588 30.9464C68.7674 30.9464 66.7432 28.7764 66.7432 26.1111C66.7432 23.4457 69.3001 21.2757 72.4471 21.2757C73.3486 21.2757 74.2009 21.4565 74.963 21.771C75.4548 21.9754 75.8399 22.345 76.0612 22.8167L76.4382 23.6265L76.7004 23.5165L76.2251 22.4865C76.1022 22.227 76.0448 21.944 76.0448 21.6609V18.4767H78.1592V18.4609Z" fill="#382D4D" fill-opacity="0.4"/>
<path d="M79.4707 21.0007V18.9644H81.5933V21.0007H79.4707ZM79.4707 30.6793V21.5118H81.5933V30.6793H79.4707Z" fill="#382D4D" fill-opacity="0.4"/>
<path d="M93.9102 21.5191V30.6867H91.7876V26.1029C91.7876 24.4125 90.1813 23.0444 88.2063 23.0444C86.2312 23.0444 84.6249 24.4125 84.6249 26.1029C84.6249 27.7933 85.6903 29.1614 87.0179 29.1614C88.3374 29.1614 89.4028 28.0213 89.4028 26.614H91.5253C91.5253 29.0041 89.5011 30.9461 87.0097 30.9461C84.5184 30.9461 82.4941 28.7761 82.4941 26.1108C82.4941 23.4454 85.0511 21.2754 88.1981 21.2754C89.0995 21.2754 89.9518 21.4562 90.714 21.7707C91.2057 21.9751 91.5909 22.3447 91.8122 22.8164L92.1892 23.6262L92.4514 23.5162L91.9761 22.4862C91.8532 22.2267 91.7958 21.9437 91.7958 21.6606V21.5348H93.9102V21.5191Z" fill="#382D4D" fill-opacity="0.4"/>
</svg>
