<svg width="178" height="38" viewBox="0 0 178 38" fill="none" xmlns="http://www.w3.org/2000/svg">
<path d="M17.2569 17.0627C15.1009 18.2983 12.6455 18.9455 10.1302 18.8866C7.49509 19.0043 4.86 18.0629 2.88368 16.2978C0.967245 14.5327 -0.110748 12.0027 0.0090287 9.41389C0.0090287 6.47205 1.02713 4.11858 3.06334 2.41231C5.03966 0.823716 7.55498 0 10.6093 0C12.8851 0 15.1009 0.529532 17.1371 1.47092V5.76601C15.2806 4.53044 13.1246 3.88323 10.9087 3.82439C9.29174 3.76556 7.73464 4.29509 6.53687 5.29532C5.39899 6.41322 4.80011 7.88414 4.86 9.47273C4.80011 11.0025 5.3391 12.4734 6.4171 13.5913C7.55498 14.6504 9.05219 15.1799 10.5494 15.1211C13.0048 15.0622 15.3405 14.2385 17.2569 12.8264V17.0627Z" fill="#382D4D" fill-opacity="0.5"/>
<path d="M31.1495 18.5929H27.1969V11.2972C27.1969 9.59091 26.598 8.76719 25.4002 8.76719C24.3222 8.76719 23.364 9.4144 22.5854 10.7088V18.5929H18.6328V0.353516H22.5854V7.76696C23.7233 6.64906 25.2205 6.00186 26.8375 6.00186C29.7122 6.00186 31.0896 7.59045 31.0896 10.7676V18.5929H31.1495Z" fill="#382D4D" fill-opacity="0.5"/>
<path d="M43.1289 6.94261L42.0509 10.4728C41.452 9.94329 40.7334 9.6491 39.9548 9.59027C39.0565 9.59027 38.2181 10.061 37.739 10.8258C37.2 11.5319 36.7807 12.3556 36.6011 13.2382V18.5335H32.6484V6.17773H36.6011V9.47259C37.8587 7.11912 39.1763 5.94238 40.5537 5.94238C41.5119 6.06006 42.3504 6.35424 43.1289 6.94261Z" fill="#382D4D" fill-opacity="0.5"/>
<path d="M56.3636 6.17822L47.9193 24.653H43.787L47.5001 16.5923L42.709 6.23706H46.9611L49.5363 12.2973L52.1714 6.17822H56.3636Z" fill="#382D4D" fill-opacity="0.5"/>
<path d="M65.3454 14.8853C65.4053 16.1209 64.8064 17.2976 63.7883 18.0037C62.7103 18.6509 61.4526 18.9451 60.195 18.8274C58.6379 18.8274 57.1407 18.5332 55.7632 17.886V15.1207C56.961 15.7679 58.3384 16.1209 59.7159 16.2386C60.9735 16.2386 61.6323 15.9444 61.6323 15.2972C61.6323 14.9442 61.3928 14.65 61.0933 14.4735C60.6142 14.1793 60.1351 13.9439 59.656 13.7674C58.6379 13.3556 57.6198 12.8849 56.6616 12.2965C55.883 11.6493 55.5237 10.7668 55.5836 9.76653C55.5237 8.58979 56.1226 7.47189 57.0808 6.82469C58.0989 6.17748 59.2368 5.82446 60.4345 5.8833C61.9318 5.8833 63.429 6.23632 64.7465 6.88353V9.59002C63.5487 8.88398 62.1713 8.41328 60.734 8.35445C59.7159 8.35445 59.2368 8.70747 59.2368 9.29584C59.2368 9.64886 59.5362 9.94304 60.1351 10.2372C60.734 10.5314 61.6323 10.8844 62.7702 11.3551C64.4471 12.12 65.3454 13.2967 65.3454 14.8853Z" fill="#382D4D" fill-opacity="0.5"/>
<path d="M79.2391 12.4152C79.3588 14.1803 78.6402 15.9454 77.2627 17.1221C75.8853 18.2989 74.0887 18.8872 72.292 18.8284C70.4954 18.8872 68.6987 18.2989 67.3812 17.1221C66.0636 15.9454 65.3449 14.1803 65.4048 12.4152C65.3449 10.6501 66.0636 8.9438 67.3812 7.76706C70.2558 5.41358 74.448 5.41358 77.3226 7.76706C78.5803 8.9438 79.299 10.6501 79.2391 12.4152ZM75.1068 12.4152C75.1068 11.5915 74.8672 10.7677 74.448 10.0617C73.6694 8.88496 72.0525 8.59077 70.8547 9.35565C70.6151 9.53216 70.3756 9.76751 70.1959 10.0029C69.7168 10.7089 69.4772 11.5326 69.5371 12.3563C69.5371 13.18 69.7168 14.0038 70.1959 14.7098C71.0343 15.8865 72.7112 16.1807 73.909 15.2982C74.1486 15.1217 74.3881 14.9452 74.5079 14.7098C74.9271 14.0038 75.1068 13.2389 75.1068 12.4152Z" fill="#382D4D" fill-opacity="0.5"/>
<path d="M89.124 14.8853C89.1839 16.1209 88.585 17.2976 87.5669 18.0037C86.4889 18.6509 85.2313 18.9451 83.9736 18.8274C82.4165 18.8274 80.9193 18.5332 79.5419 17.886V15.1207C80.7396 15.7679 82.1171 16.1209 83.4346 16.2386C84.6923 16.2386 85.351 15.9444 85.351 15.2972C85.351 14.9442 85.1115 14.65 84.8121 14.4735C84.3329 14.1793 83.8538 13.9439 83.3747 13.7674C82.3566 13.4144 81.3385 12.8849 80.3803 12.2965C79.6018 11.6493 79.2424 10.7668 79.3023 9.76653C79.2424 8.58979 79.8413 7.47189 80.7995 6.82469C81.8176 6.17748 82.9555 5.82446 84.1533 5.8833C85.6505 5.8833 87.1477 6.23632 88.4652 6.88353V9.59002C87.2675 8.88398 85.89 8.41328 84.4527 8.35445C83.4346 8.35445 82.9555 8.70747 82.9555 9.29584C82.9555 9.64886 83.2549 9.94304 83.8538 10.2372C84.4527 10.5314 85.351 10.8844 86.4889 11.3551C88.2856 12.12 89.124 13.2967 89.124 14.8853Z" fill="#382D4D" fill-opacity="0.5"/>
<path d="M98.7051 18.1806C97.5074 18.6513 96.1898 18.8867 94.8723 18.8278C93.1355 18.8278 91.9377 18.3571 91.2191 17.3569C90.6801 16.5332 90.3806 15.2388 90.3806 13.4148V8.88441H88.584V8.06069L93.7344 2.58887H94.3333V6.17792H98.6452V8.88441H94.3333V13.4148C94.2734 14.0032 94.3932 14.5916 94.6327 15.1211C94.992 15.5918 95.6508 15.8272 96.2497 15.7683C97.0881 15.7095 97.9266 15.533 98.6452 15.18L98.7051 18.1806Z" fill="#382D4D" fill-opacity="0.5"/>
<path d="M112.361 12.4152C112.481 14.1803 111.762 15.9454 110.385 17.1221C109.007 18.2989 107.211 18.8872 105.414 18.8284C103.617 18.8872 101.821 18.2989 100.503 17.1221C99.1857 15.9454 98.467 14.1803 98.5269 12.4152C98.467 10.6501 99.1857 8.9438 100.503 7.76706C103.378 5.41358 107.57 5.41358 110.445 7.76706C111.762 8.9438 112.481 10.6501 112.361 12.4152ZM108.289 12.4152C108.289 11.5915 108.049 10.7677 107.63 10.0617C106.851 8.88496 105.234 8.59077 104.037 9.35565C103.737 9.53216 103.498 9.76751 103.318 10.0617C102.839 10.7677 102.599 11.5915 102.659 12.4152C102.659 13.2389 102.839 14.0626 103.318 14.7686C104.156 15.9454 105.833 16.2396 107.031 15.357C107.271 15.1805 107.51 15.004 107.63 14.7686C108.049 14.0626 108.289 13.2389 108.289 12.4152Z" fill="#382D4D" fill-opacity="0.5"/>
<path d="M134.16 18.593H130.208V11.2973C130.208 9.591 129.609 8.76728 128.411 8.76728C127.333 8.76728 126.375 9.41449 125.596 10.7089V18.593H121.763V11.2973C121.763 9.591 121.164 8.76728 119.967 8.76728C118.889 8.76728 117.93 9.41449 117.152 10.7089V18.593H113.199V6.2373H117.152V7.76706C118.23 6.64916 119.787 6.00195 121.404 6.00195C123.26 6.00195 124.518 6.76683 125.117 8.29659C126.554 6.76683 128.171 6.00195 129.908 6.00195C132.783 6.00195 134.16 7.59055 134.16 10.7677V18.593Z" fill="#382D4D" fill-opacity="0.5"/>
<path d="M139.609 18.5926H135.656V6.23682H139.609V18.5926Z" fill="#382D4D" fill-opacity="0.5"/>
<path d="M153.921 18.5929H150.149V17.5927C147.693 19.5343 144.16 19.2401 142.064 17.0043C140.986 15.7099 140.447 14.1213 140.506 12.4739C140.447 10.8265 140.986 9.17904 142.064 7.88463C143.142 6.59022 144.759 5.94301 146.495 6.00185C147.753 5.94301 149.011 6.41371 149.969 7.17859V0.353516H153.921V18.5929ZM149.909 15.0627V9.76741C149.31 9.29671 148.532 9.00253 147.753 9.00253C146.855 8.94369 146.016 9.29671 145.417 9.94392C144.818 10.65 144.579 11.5325 144.579 12.4151C144.519 13.2976 144.818 14.1213 145.357 14.8274C145.896 15.5334 146.735 15.8864 147.633 15.8276C148.472 15.8276 149.31 15.5334 149.909 15.0627Z" fill="#382D4D" fill-opacity="0.5"/>
<path d="M167.818 13.0618H158.895C158.835 14.0032 159.254 14.9446 160.033 15.5329C160.811 16.0625 161.77 16.3566 162.728 16.2978C164.465 16.239 166.141 15.6506 167.519 14.6504V17.2392C165.782 18.2983 163.806 18.8866 161.77 18.8278C159.614 18.8278 157.937 18.2394 156.679 17.1215C155.421 15.9448 154.822 14.3562 154.822 12.2381C154.703 10.5318 155.361 8.82553 156.619 7.64879C157.937 6.47205 159.673 5.88368 161.41 5.94252C163.207 5.82485 165.004 6.58973 166.201 7.94297C167.339 9.35506 167.938 11.1202 167.818 12.9441V13.0618ZM163.866 11.179C163.806 10.5318 163.566 9.94343 163.207 9.41389C162.788 8.88436 162.129 8.59018 161.47 8.64901C159.973 8.64901 159.134 9.53157 158.955 11.2378L163.866 11.179Z" fill="#382D4D" fill-opacity="0.5"/>
<path d="M177.996 14.8853C178.056 16.1209 177.457 17.2976 176.439 18.0037C175.361 18.6509 174.103 18.9451 172.845 18.8274C171.288 18.8274 169.791 18.5332 168.413 17.886V15.1207C169.611 15.7679 170.989 16.1209 172.306 16.2386C173.564 16.2386 174.223 15.9444 174.223 15.2972C174.223 14.9442 173.983 14.65 173.684 14.4735C173.205 14.1793 172.725 13.9439 172.186 13.7674C171.168 13.4144 170.15 12.8849 169.192 12.2965C168.473 11.6493 168.054 10.7668 168.114 9.76653C168.054 8.58979 168.653 7.47189 169.611 6.82469C170.629 6.17748 171.767 5.82446 172.965 5.8833C174.462 5.8833 175.959 6.17748 177.337 6.82469V9.53118C176.139 8.82514 174.762 8.35445 173.324 8.29561C172.306 8.29561 171.827 8.64863 171.827 9.237C171.827 9.59002 172.127 9.8842 172.725 10.1784C173.324 10.4726 174.223 10.8256 175.361 11.2963C177.097 12.12 177.996 13.2967 177.996 14.8853Z" fill="#382D4D" fill-opacity="0.5"/>
<path d="M139.727 2.17837C139.727 2.7079 139.548 3.29627 139.128 3.64929C138.29 4.41417 136.972 4.41417 136.134 3.64929C135.715 3.23743 135.535 2.7079 135.535 2.17837C135.535 1.64884 135.715 1.06047 136.134 0.707448C136.972 -0.0574307 138.29 -0.0574307 139.128 0.707448C139.548 1.11931 139.727 1.64884 139.727 2.17837Z" fill="#382D4D" fill-opacity="0.5"/>
<path d="M7.01428 35.1847L6.53518 33.7137H3.54075L3.06164 35.1847H1.38477L4.43908 27.0063H5.69674L8.75105 35.1847H7.01428ZM5.09785 29.4187L4.01986 32.3605H6.11596L5.09785 29.4187Z" fill="#382D4D" fill-opacity="0.5"/>
<path d="M13.4839 35.1842V34.5958C13.3043 34.8312 13.0647 34.9488 12.8252 35.0665C12.5856 35.1842 12.2862 35.243 11.9867 35.1842C11.6873 35.1842 11.3878 35.1253 11.1483 35.0665C10.9087 35.0077 10.6692 34.8312 10.4895 34.6546C10.3697 34.4781 10.25 34.3016 10.1302 34.1251C10.0703 33.9486 9.95051 33.7133 9.95051 33.5367C9.89063 33.3014 9.89062 33.066 9.89062 32.8307C9.89062 32.5954 9.89062 32.36 9.89062 32.1247C9.89062 31.8893 9.89062 31.654 9.89062 31.4186C9.89062 31.1833 9.89063 30.9479 9.95051 30.7126C10.0104 30.4772 10.0703 30.3007 10.1302 30.0654C10.1901 29.8889 10.3098 29.7123 10.4895 29.5358C10.6692 29.3593 10.9087 29.2417 11.1483 29.124C11.3878 29.0063 11.6873 29.0063 11.9867 29.0063C12.2862 29.0063 12.5257 29.0651 12.8252 29.124C13.0647 29.2417 13.3043 29.3593 13.4839 29.5947V26.8882H14.9811V35.0665H13.4839V35.1842ZM13.424 32.1835C13.424 31.9481 13.424 31.7128 13.3642 31.4775C13.3642 31.3009 13.3043 31.1244 13.2444 30.9479C13.1845 30.8302 13.0647 30.6537 12.9449 30.5949C12.5856 30.4184 12.1664 30.4184 11.8669 30.5949C11.7472 30.6537 11.6274 30.8302 11.5675 30.9479C11.5076 31.1244 11.4477 31.3009 11.4477 31.4775C11.3878 31.9481 11.3878 32.36 11.4477 32.8307C11.4477 33.0072 11.5076 33.1837 11.5675 33.3602C11.6274 33.5367 11.7472 33.6544 11.8669 33.7133C12.2263 33.8898 12.5856 33.8898 12.9449 33.7133C13.0647 33.5956 13.1845 33.4779 13.2444 33.3602C13.3043 33.1837 13.3642 33.0072 13.3642 32.8307C13.424 32.5954 13.424 32.4188 13.424 32.1835Z" fill="#382D4D" fill-opacity="0.5"/>
<path d="M19.8336 35.1835H18.6358L16.4199 29.1821H18.0369L19.2347 32.8889L20.4325 29.1821H22.0494L19.8336 35.1835Z" fill="#382D4D" fill-opacity="0.5"/>
<path d="M28.2172 32.184C28.2172 32.6547 28.2172 33.1254 28.0974 33.5373C27.9776 33.8903 27.7979 34.2433 27.5584 34.5375C27.3188 34.7728 27.0793 34.9493 26.8397 35.067C26.4804 35.2435 26.0612 35.3024 25.7018 35.3024C25.2826 35.3024 24.9233 35.2435 24.564 35.067C24.2645 34.9493 24.025 34.7728 23.8453 34.5375C23.6057 34.2433 23.3662 33.9491 23.3063 33.5373C23.1865 33.0666 23.1865 32.6547 23.1865 32.184C23.1865 31.7133 23.2464 31.3015 23.3063 30.8308C23.4261 30.4778 23.6057 30.1247 23.8453 29.8894C24.0849 29.654 24.3244 29.4775 24.564 29.3599C24.9233 29.1833 25.3425 29.1245 25.7018 29.1245C26.1211 29.1245 26.4804 29.1833 26.8397 29.3599C27.1392 29.4775 27.3787 29.654 27.5584 29.8894C27.7979 30.1836 28.0375 30.4778 28.0974 30.8308C28.2172 31.2426 28.2172 31.7133 28.2172 32.184ZM26.7199 32.184C26.7199 31.8898 26.7199 31.5957 26.6601 31.3603C26.6002 31.125 26.5403 30.9484 26.3606 30.7719C26.181 30.5954 25.9414 30.4778 25.642 30.4778C25.4024 30.4778 25.103 30.5366 24.9233 30.7719C24.7436 30.9484 24.6837 31.125 24.6238 31.3603C24.6238 31.6545 24.6238 31.9487 24.6238 32.184C24.6238 32.4782 24.6238 32.7724 24.6837 33.0666C24.7436 33.3019 24.8035 33.4784 24.9832 33.6549C25.1628 33.8314 25.4024 33.9491 25.7018 33.9491C25.9414 33.9491 26.2408 33.8903 26.4205 33.6549C26.6002 33.4784 26.6601 33.3019 26.7199 33.0666C26.7199 32.7136 26.7199 32.4782 26.7199 32.184Z" fill="#382D4D" fill-opacity="0.5"/>
<path d="M34.5652 34.4198C34.3256 34.6552 34.0262 34.8905 33.6668 35.0082C33.3075 35.1259 32.9482 35.1847 32.529 35.1847C32.2295 35.1847 31.8702 35.1259 31.5707 35.067C31.2713 34.9494 30.912 34.8317 30.6724 34.5963C30.373 34.3021 30.1933 34.008 30.0136 33.6549C29.6543 32.6547 29.6543 31.6545 30.0136 30.6543C30.1334 30.3012 30.373 30.0071 30.6724 29.7129C30.912 29.4775 31.2114 29.301 31.5707 29.2422C31.8702 29.1245 32.1696 29.1245 32.529 29.1245C32.8883 29.1245 33.3075 29.1833 33.6668 29.301C34.0262 29.4187 34.3256 29.654 34.5652 29.8894L33.5471 30.8896C33.4273 30.7719 33.2476 30.5954 33.068 30.5366C32.8883 30.4778 32.7086 30.4189 32.529 30.4189C32.1696 30.4189 31.8702 30.5366 31.6905 30.8308C31.5707 31.0073 31.451 31.1838 31.451 31.3603C31.3911 31.5957 31.3911 31.8898 31.3911 32.1252C31.3312 32.5959 31.451 33.0666 31.7504 33.4784C31.9301 33.7138 32.2894 33.8903 32.5888 33.8903C32.7685 33.8903 32.9482 33.8315 33.1278 33.7726C33.3075 33.6549 33.4273 33.5373 33.607 33.4196L34.5652 34.4198Z" fill="#382D4D" fill-opacity="0.5"/>
<path d="M39.4172 35.1848V34.6552C39.2375 34.8317 38.998 35.0082 38.7584 35.0671C38.459 35.1848 38.2194 35.2436 37.92 35.1848C37.381 35.2436 36.7821 35.0671 36.3629 34.6552C36.1832 34.4787 36.0635 34.3022 36.0036 34.0669C35.9437 33.8315 35.8838 33.5962 35.8838 33.302C35.8838 33.0666 35.9437 32.8313 36.0036 32.5959C36.0635 32.3606 36.2431 32.1841 36.3629 32.0664C36.5426 31.8899 36.7821 31.7722 37.0217 31.7134C37.3211 31.5957 37.6206 31.5957 37.92 31.5957H39.3573V31.3015C39.4172 31.0073 39.2974 30.772 39.1178 30.5366C38.8782 30.3601 38.5788 30.3013 38.2194 30.3013C37.9799 30.3013 37.7403 30.3601 37.5607 30.419C37.381 30.5366 37.2013 30.6543 37.0816 30.8308L36.1233 29.8894C36.3629 29.5953 36.7222 29.3599 37.0816 29.2422C37.5008 29.1246 37.92 29.0657 38.3392 29.0657C38.998 29.0069 39.7167 29.1834 40.2557 29.5953C40.7348 30.0071 40.9743 30.5955 40.9144 31.1838V35.1259L39.4172 35.1848ZM39.4172 32.6548H38.2194C37.9799 32.6548 37.8002 32.7136 37.6206 32.8313C37.4409 32.949 37.381 33.1255 37.381 33.302C37.381 33.4785 37.4409 33.655 37.6206 33.7727C37.8002 33.8903 38.0398 33.9492 38.2793 33.9492C38.459 33.9492 38.6387 33.9492 38.8183 33.8903C38.998 33.8315 39.1178 33.7727 39.2375 33.655C39.4172 33.4196 39.4771 33.1255 39.4172 32.8901V32.6548Z" fill="#382D4D" fill-opacity="0.5"/>
<path d="M44.8663 35.1842C44.5668 35.1842 44.3273 35.1254 44.0877 35.0665C43.8481 34.9488 43.6685 34.8312 43.5487 34.6547C43.4289 34.4782 43.3091 34.3016 43.2493 34.1251C43.1894 33.9486 43.1295 33.7133 43.1295 33.4779V30.5361H42.4707V29.3593H43.1295V27.5942H44.6267V29.3593H45.7047V30.4772H44.6267V33.3603C44.6267 33.7133 44.8064 33.8898 45.1657 33.8898H45.7047V35.1842H44.8663Z" fill="#382D4D" fill-opacity="0.5"/>
<path d="M48.6375 32.6544C48.6375 33.0074 48.7573 33.3605 48.9969 33.5958C49.2364 33.8312 49.5957 34.0077 50.015 33.9488C50.3144 33.9488 50.554 33.89 50.7935 33.8312C51.0331 33.7135 51.2127 33.5958 51.3924 33.4193L52.2907 34.3019C52.1709 34.4195 51.9913 34.596 51.8116 34.7137C51.6319 34.8314 51.5122 34.9491 51.3325 35.0079C51.1528 35.0667 50.9133 35.1256 50.7336 35.1844C50.4941 35.2432 50.2545 35.2432 50.015 35.2432C49.6556 35.2432 49.2963 35.1844 48.937 35.1256C48.5776 35.0667 48.2782 34.8902 48.0386 34.6549C47.7392 34.4195 47.5595 34.0665 47.4398 33.7135C47.2601 33.2428 47.2002 32.7133 47.2002 32.2426C47.2002 31.8307 47.2601 31.36 47.3799 30.9482C47.4996 30.5951 47.6793 30.2421 47.9189 30.0068C48.1584 29.7714 48.4579 29.5361 48.7573 29.4184C49.476 29.1242 50.2545 29.1242 50.9732 29.4184C51.2726 29.5361 51.5721 29.7714 51.8116 30.0068C52.0512 30.2421 52.2308 30.5951 52.3506 30.8893C52.4704 31.2423 52.5303 31.6542 52.5303 32.0072V32.6544H48.6375ZM50.9133 31.5954C50.9133 31.4777 50.9133 31.36 50.8534 31.2423C50.8534 31.1247 50.7935 31.007 50.7336 30.9482C50.6737 30.7716 50.4941 30.5951 50.3743 30.4775C50.1946 30.3598 49.9551 30.3009 49.7155 30.3009C49.476 30.3009 49.2963 30.3598 49.0567 30.4775C48.8771 30.5951 48.7573 30.7716 48.6974 30.9482C48.6375 31.0658 48.6375 31.1247 48.5776 31.2423C48.5776 31.36 48.5177 31.4777 48.5177 31.5954H50.9133Z" fill="#382D4D" fill-opacity="0.5"/>
<path d="M58.9388 33.3009C58.9388 33.5951 58.8789 33.8893 58.7591 34.1247C58.6394 34.36 58.4597 34.5365 58.2201 34.713C57.9806 34.8895 57.6812 35.0072 57.3817 35.0661C57.0823 35.1249 56.7229 35.1837 56.3636 35.1837C56.1241 35.1837 55.8845 35.1837 55.6449 35.1837C55.4054 35.1837 55.2257 35.1249 54.9862 35.0661C54.7466 35.0072 54.567 34.8895 54.3274 34.8307C54.0878 34.713 53.9082 34.5365 53.7285 34.36L54.7466 33.3598C54.9862 33.5951 55.2856 33.7716 55.5851 33.8305C55.8246 33.8893 56.1241 33.9482 56.3636 33.9482C56.4834 33.9482 56.6032 33.9482 56.7828 33.8893C56.9026 33.8893 57.0224 33.8305 57.1422 33.7716C57.2619 33.7128 57.3218 33.654 57.3817 33.5951C57.4416 33.5363 57.5015 33.4186 57.5015 33.3009C57.5015 33.1833 57.4416 33.0068 57.3817 32.8891C57.2619 32.7714 57.0823 32.7126 56.9026 32.7126L55.9444 32.5949C55.4653 32.5949 55.0461 32.4184 54.6268 32.1242C54.2675 31.83 54.0878 31.3593 54.1477 30.8886C54.1477 30.3003 54.3873 29.7707 54.8664 29.4766C55.106 29.3 55.3455 29.1824 55.5851 29.1235C55.8845 29.0647 56.1839 29.0059 56.4834 29.0059C56.9026 29.0059 57.3817 29.0647 57.8009 29.1235C58.1603 29.2412 58.5196 29.4177 58.819 29.6531L57.8608 30.5945C57.6812 30.4179 57.4416 30.3003 57.202 30.3003C56.9625 30.2414 56.6631 30.2414 56.4235 30.2414C56.1839 30.2414 55.9444 30.3003 55.7647 30.4179C55.6449 30.5356 55.5851 30.6533 55.5851 30.8298C55.5851 30.9475 55.6449 31.0652 55.7048 31.124C55.8246 31.2417 56.0043 31.3005 56.2438 31.3005L57.202 31.4182C57.6812 31.4182 58.2201 31.6535 58.5795 31.9477C58.819 32.4184 58.9987 32.8303 58.9388 33.3009Z" fill="#382D4D" fill-opacity="0.5"/>
<path d="M69.2425 35.1836L68.6436 34.4775C68.5238 34.5364 68.4639 34.654 68.2843 34.7129C68.1645 34.8306 67.9848 34.8894 67.865 34.9482C67.6854 35.0071 67.4458 35.1247 67.2662 35.1247C67.0266 35.1836 66.7272 35.1836 66.4876 35.1836C65.7091 35.2424 64.9904 35.0071 64.3915 34.5364C63.9124 34.0657 63.6729 33.3596 63.6729 32.7124C63.6729 32.4771 63.7327 32.2417 63.7926 32.0064C63.9124 31.771 63.9723 31.5945 64.152 31.418C64.2717 31.2415 64.4514 31.065 64.6311 30.9473C64.8107 30.8296 64.9904 30.6531 65.1701 30.5355L64.8706 30.2413C64.7508 30.1236 64.691 30.0059 64.6311 29.8294C64.5712 29.6529 64.4514 29.5352 64.4514 29.3587C64.3915 29.1822 64.3915 29.0057 64.3915 28.8292C64.3915 28.5939 64.4514 28.2997 64.5113 28.0643C64.6311 27.829 64.7508 27.6525 64.9305 27.476C65.1102 27.2994 65.3497 27.1818 65.6492 27.0641C65.9486 26.9464 66.2481 26.8876 66.6074 26.9464C66.9068 26.9464 67.2063 27.0053 67.5057 27.0641C67.7453 27.1818 67.9848 27.2994 68.1645 27.476C68.3442 27.6525 68.4639 27.829 68.5837 28.0643C68.7035 28.2997 68.7035 28.5939 68.7035 28.8292C68.7035 29.1234 68.6436 29.4176 68.4639 29.6529C68.2843 29.8883 68.1046 30.0648 67.865 30.2413L67.7453 30.3001L67.5057 30.4766L67.2662 30.6531L68.6436 32.3594C68.7634 32.1829 68.8832 31.9475 68.943 31.7122C69.0029 31.4769 69.0628 31.1827 69.0628 30.8885H70.5001C70.5001 31.3592 70.3804 31.8299 70.2606 32.3006C70.1408 32.7124 69.9013 33.0654 69.6018 33.4185L71.099 35.1836H69.2425ZM66.0085 31.4769C65.769 31.6534 65.5893 31.8299 65.4096 32.0064C65.23 32.1829 65.1701 32.4771 65.1701 32.7124C65.1701 33.0066 65.2898 33.3596 65.5294 33.5361C65.6492 33.6538 65.769 33.7127 65.9486 33.7715C66.1283 33.8303 66.2481 33.8303 66.4277 33.8303C66.6673 33.8303 66.9068 33.7715 67.0865 33.7127C67.3261 33.595 67.5057 33.4773 67.6854 33.3596L66.0085 31.4769ZM67.3261 28.8292C67.3261 28.4762 67.0266 28.1232 66.6074 28.1232C66.2481 28.1232 65.8887 28.4173 65.8887 28.8292C65.8887 29.0057 65.9486 29.1234 66.0684 29.2999C66.1882 29.4176 66.3079 29.5941 66.4876 29.7706L66.8469 29.5352C66.9667 29.4764 67.0865 29.3587 67.2063 29.2411C67.2662 29.1234 67.3261 28.9469 67.3261 28.8292Z" fill="#382D4D" fill-opacity="0.5"/>
<path d="M76.0664 35.1847V27.0063H77.6834V33.7726H81.4564V35.1847H76.0664Z" fill="#382D4D" fill-opacity="0.5"/>
<path d="M84.3917 32.6544C84.3917 33.0074 84.5115 33.3605 84.7511 33.5958C84.9906 33.8312 85.35 34.0077 85.7093 33.9488C86.0087 33.9488 86.2483 33.89 86.4878 33.8312C86.7274 33.7135 86.9071 33.5958 87.0867 33.4193L88.0449 34.3019C87.9252 34.4195 87.7455 34.596 87.5658 34.7137C87.3862 34.8314 87.2664 34.9491 87.0268 35.0079C86.8472 35.0667 86.6076 35.1256 86.4279 35.1844C86.1884 35.2432 85.9488 35.2432 85.7093 35.2432C85.35 35.2432 84.9906 35.1844 84.6313 35.1256C84.272 35.0667 83.9725 34.8902 83.733 34.6549C83.4934 34.3607 83.2539 34.0665 83.1341 33.7135C82.9544 33.2428 82.8945 32.7133 82.8945 32.2426C82.8945 31.8307 82.9544 31.36 83.0742 30.9482C83.194 30.5951 83.3736 30.2421 83.6132 30.0068C83.8527 29.7714 84.1522 29.5361 84.4516 29.4184C85.1703 29.1242 85.9488 29.1242 86.6675 29.4184C86.9669 29.5361 87.2664 29.7714 87.5059 30.0068C87.7455 30.3009 87.9252 30.5951 88.0449 30.8893C88.1647 31.2423 88.2246 31.6542 88.2246 32.0072V32.6544H84.3917ZM86.7274 31.5954C86.7274 31.4777 86.7274 31.36 86.6675 31.2423C86.6675 31.1247 86.6076 31.007 86.5477 30.9482C86.4878 30.7716 86.3082 30.5951 86.1884 30.4775C86.0087 30.3598 85.7692 30.3009 85.5296 30.3009C85.2901 30.3009 85.1104 30.3598 84.8709 30.4775C84.6912 30.5951 84.5714 30.7716 84.5115 30.9482C84.4516 31.0658 84.4516 31.1247 84.3917 31.2423C84.3917 31.36 84.3319 31.4777 84.3319 31.5954H86.7274Z" fill="#382D4D" fill-opacity="0.5"/>
<path d="M94.8138 34.9494C94.8138 35.3024 94.7539 35.6554 94.6342 35.9496C94.5144 36.2438 94.3347 36.5379 94.0952 36.7145C93.8556 36.9498 93.5562 37.1263 93.2567 37.244C92.8974 37.3617 92.5381 37.4205 92.1188 37.4205C91.6996 37.4205 91.2804 37.3617 90.9211 37.244C90.5617 37.1263 90.2024 36.891 89.903 36.6556L90.8612 35.7142C91.0409 35.8319 91.2205 36.0084 91.4002 36.0673C91.6397 36.1261 91.8194 36.1849 92.059 36.1849C92.2386 36.1849 92.4782 36.1849 92.6579 36.0673C92.7776 36.0084 92.9573 35.8907 93.0172 35.7731C93.137 35.6554 93.1968 35.5377 93.2567 35.3612C93.3166 35.1847 93.3166 35.067 93.3166 34.8905V34.3021C93.137 34.4787 92.8974 34.6552 92.6579 34.7728C92.4183 34.8905 92.1189 34.8905 91.8793 34.8905C91.5799 34.8905 91.3403 34.8317 91.0409 34.7728C90.8013 34.714 90.5618 34.5375 90.3821 34.361C90.2623 34.2433 90.1425 34.0668 90.0228 33.8903C89.9629 33.7138 89.903 33.5373 89.8431 33.3608C89.7832 33.1254 89.7832 32.9489 89.7832 32.7136C89.7832 32.4782 89.7832 32.2429 89.7832 32.0075C89.7832 31.7722 89.7832 31.478 89.7832 31.3015C89.7832 31.0661 89.8431 30.8896 89.8431 30.6543C89.903 30.4778 89.9629 30.3012 90.0228 30.1247C90.1425 29.9482 90.2024 29.7717 90.3821 29.654C90.5618 29.4775 90.8013 29.3599 91.0409 29.2422C91.2804 29.1245 91.5799 29.1245 91.8793 29.1245C92.1787 29.1245 92.4183 29.1833 92.7177 29.2422C92.9573 29.3599 93.1968 29.5364 93.3765 29.7129V29.1245H94.8737L94.8138 34.9494ZM93.3166 32.0075C93.3166 31.831 93.3166 31.5957 93.2567 31.4191C93.2567 31.2426 93.1968 31.0661 93.137 30.9485C93.0771 30.8308 92.9573 30.7131 92.8375 30.5954C92.4782 30.4189 92.1189 30.4189 91.7595 30.5954C91.6397 30.6543 91.52 30.7719 91.4601 30.9485C91.4002 31.125 91.3403 31.3015 91.3403 31.4191C91.3403 31.5957 91.3403 31.831 91.3403 32.0075C91.3403 32.184 91.3403 32.4194 91.3403 32.5959C91.3403 32.7724 91.4002 32.9489 91.4601 33.0666C91.52 33.1843 91.6397 33.3019 91.7595 33.4196C92.1189 33.5961 92.4782 33.5961 92.8375 33.4196C92.9573 33.3608 93.0771 33.2431 93.137 33.0666C93.1968 32.8901 93.2567 32.7136 93.2567 32.5959C93.3166 32.4194 93.3166 32.184 93.3166 32.0075Z" fill="#382D4D" fill-opacity="0.5"/>
<path d="M100.083 35.1838V34.6542C99.9035 34.8308 99.664 35.0073 99.4244 35.0661C99.125 35.1838 98.8854 35.2426 98.586 35.1838C97.9871 35.2426 97.4481 35.0073 97.0289 34.6542C96.8492 34.4777 96.7295 34.3012 96.6696 34.0659C96.5498 33.8305 96.5498 33.5952 96.5498 33.301C96.5498 33.0657 96.6097 32.8303 96.6696 32.6538C96.7295 32.4184 96.9091 32.2419 97.0289 32.1243C97.2086 31.9478 97.4481 31.8301 97.6877 31.7712C97.9871 31.6536 98.2866 31.5947 98.586 31.6536H100.023V31.3594C100.023 31.0652 99.9634 30.8299 99.7838 30.6533C99.5442 30.4768 99.2448 30.418 98.9453 30.418C98.7058 30.418 98.4662 30.4768 98.2866 30.5357C98.1069 30.6533 97.9272 30.771 97.8075 30.9475L96.8492 30.0061C97.0888 29.712 97.3882 29.4766 97.7476 29.3589C98.1668 29.2413 98.586 29.1824 99.0052 29.1824C99.7239 29.1236 100.383 29.3001 100.922 29.712C101.401 30.1238 101.64 30.7122 101.58 31.3005V35.2426H100.083V35.1838ZM100.083 32.6538H98.8854C98.6459 32.6538 98.4063 32.7126 98.2267 32.8303C98.047 32.948 97.9871 33.1245 97.9871 33.301C97.9871 33.4775 98.047 33.654 98.2267 33.7717C98.4063 33.8894 98.6459 33.9482 98.8854 33.9482C99.0651 33.9482 99.2448 33.9482 99.4244 33.8894C99.6041 33.8305 99.7239 33.7717 99.8437 33.654C100.023 33.4187 100.083 33.1833 100.083 32.8891V32.6538Z" fill="#382D4D" fill-opacity="0.5"/>
<path d="M105.295 35.1847C104.995 35.1847 104.756 35.1258 104.456 35.067C104.217 34.9493 104.037 34.8316 103.917 34.6551C103.797 34.4786 103.678 34.3021 103.618 34.1256C103.558 33.9491 103.498 33.7137 103.498 33.4784V27.0063H104.995V33.3607C104.995 33.4784 105.055 33.6549 105.115 33.7726C105.235 33.8903 105.355 33.9491 105.534 33.8903H106.133V35.1847H105.295Z" fill="#382D4D" fill-opacity="0.5"/>
<path d="M116.251 34.3016C115.952 34.5958 115.652 34.8311 115.293 35.0077C114.874 35.1842 114.395 35.3018 113.976 35.243C113.556 35.243 113.137 35.1842 112.718 35.0077C112.359 34.8311 111.999 34.5958 111.7 34.3605C111.52 34.1839 111.34 33.9486 111.221 33.7132C111.101 33.4779 111.041 33.2426 110.981 32.9484C110.921 32.6542 110.921 32.36 110.861 32.0658C110.861 31.7716 110.861 31.4186 110.861 31.0656C110.861 30.7126 110.861 30.3596 110.861 30.0654C110.861 29.7712 110.921 29.477 110.921 29.1828C110.981 28.9475 111.041 28.6533 111.161 28.4179C111.281 28.1826 111.46 27.9472 111.64 27.7707C111.939 27.4766 112.239 27.2412 112.658 27.1235C113.077 26.947 113.496 26.8882 113.916 26.8882C114.395 26.8882 114.814 26.947 115.233 27.1235C115.593 27.3 115.952 27.5354 116.251 27.8296L115.173 28.8886L114.934 28.6533C114.874 28.5945 114.754 28.5356 114.694 28.4768C114.574 28.4179 114.515 28.4179 114.395 28.3591C114.275 28.3003 114.155 28.3003 114.035 28.3003C113.856 28.3003 113.616 28.3591 113.437 28.4179C113.197 28.5356 112.957 28.771 112.838 29.0063C112.778 29.124 112.718 29.2417 112.718 29.4182C112.658 29.6535 112.658 29.83 112.658 30.0654C112.658 30.3007 112.658 30.6537 112.658 31.0656C112.658 31.4775 112.658 31.7716 112.658 32.0658C112.658 32.3012 112.718 32.4777 112.718 32.713C112.718 32.8307 112.778 33.0072 112.838 33.1249C112.957 33.3602 113.197 33.5956 113.437 33.7132C113.616 33.7721 113.856 33.8309 114.035 33.8309C114.155 33.8309 114.275 33.8309 114.395 33.7721C114.515 33.7721 114.634 33.7132 114.694 33.6544C114.814 33.5956 114.874 33.5367 114.934 33.4779C114.994 33.4191 115.113 33.3602 115.173 33.2426L116.251 34.3016Z" fill="#382D4D" fill-opacity="0.5"/>
<path d="M122.839 32.1828C122.839 32.6535 122.779 33.1242 122.719 33.5361C122.6 33.8891 122.42 34.2421 122.18 34.5363C121.941 34.7716 121.701 34.9481 121.462 35.0658C121.102 35.2423 120.683 35.3012 120.324 35.3012C119.905 35.3012 119.545 35.2423 119.186 35.0658C118.887 34.9481 118.647 34.7716 118.467 34.5363C118.168 34.2421 117.988 33.9479 117.928 33.5949C117.809 33.1242 117.809 32.7123 117.809 32.2416C117.809 31.7709 117.868 31.3591 117.928 30.8884C118.048 30.5354 118.228 30.1824 118.467 29.947C118.707 29.7117 118.946 29.5352 119.186 29.4175C119.545 29.241 119.965 29.1821 120.324 29.1821C120.743 29.1821 121.102 29.241 121.462 29.4175C121.761 29.5352 122.001 29.7117 122.18 29.947C122.42 30.2412 122.66 30.5354 122.719 30.8884C122.779 31.2414 122.839 31.7121 122.839 32.1828ZM121.342 32.1828C121.342 31.8886 121.342 31.5944 121.282 31.3591C121.222 31.1237 121.162 30.9472 120.983 30.7707C120.803 30.5942 120.563 30.4765 120.264 30.4765C120.024 30.4765 119.725 30.5354 119.545 30.7707C119.366 30.9472 119.306 31.1237 119.246 31.3591C119.186 31.6533 119.186 31.9475 119.186 32.1828C119.186 32.477 119.186 32.7712 119.246 33.0654C119.306 33.3007 119.366 33.4772 119.545 33.6537C119.725 33.8302 119.965 33.9479 120.264 33.9479C120.504 33.9479 120.803 33.8891 120.983 33.6537C121.162 33.4772 121.222 33.3007 121.282 33.0654C121.282 32.7123 121.342 32.477 121.342 32.1828Z" fill="#382D4D" fill-opacity="0.5"/>
<path d="M128.229 35.1849V31.5371C128.229 31.3605 128.229 31.184 128.169 31.0075C128.11 30.8899 128.05 30.7722 127.93 30.6545C127.81 30.5957 127.75 30.5368 127.631 30.478C127.511 30.4192 127.391 30.4192 127.271 30.4192C127.151 30.4192 127.032 30.4192 126.912 30.478C126.792 30.5368 126.672 30.5957 126.612 30.6545C126.493 30.7722 126.433 30.8899 126.373 31.0075C126.313 31.184 126.253 31.3605 126.253 31.5371V35.1849H124.756V29.1836H126.253V29.7131C126.433 29.5366 126.672 29.3601 126.972 29.2424C127.211 29.1248 127.511 29.0659 127.81 29.0659C128.11 29.0659 128.349 29.1248 128.649 29.1836C128.888 29.3013 129.068 29.4189 129.247 29.5954C129.487 29.8308 129.667 30.0661 129.727 30.3603C129.786 30.6545 129.846 30.9487 129.846 31.3017V35.1261H128.229V35.1849Z" fill="#382D4D" fill-opacity="0.5"/>
<path d="M136.434 33.3009C136.434 33.5951 136.374 33.8893 136.254 34.1247C136.134 34.36 135.955 34.5365 135.715 34.713C135.475 34.8895 135.176 35.0072 134.877 35.0661C134.517 35.1249 134.218 35.1837 133.858 35.1837C133.619 35.1837 133.379 35.1837 133.14 35.1837C132.9 35.1837 132.721 35.1249 132.481 35.0661C132.301 35.0072 132.062 34.8895 131.882 34.8307C131.643 34.713 131.463 34.5365 131.283 34.36L132.301 33.3598C132.541 33.5951 132.84 33.7716 133.14 33.8305C133.379 33.8893 133.679 33.9482 133.918 33.9482C134.038 33.9482 134.158 33.9482 134.278 33.8893C134.397 33.8893 134.517 33.8305 134.637 33.7716C134.757 33.7128 134.817 33.654 134.877 33.5951C134.936 33.5363 134.996 33.4186 134.936 33.3009C134.936 33.1244 134.877 33.0068 134.757 32.8891C134.637 32.7714 134.457 32.7126 134.278 32.7126L133.319 32.5949C132.84 32.5949 132.421 32.4184 132.002 32.1242C131.643 31.83 131.463 31.3593 131.523 30.8886C131.523 30.5945 131.583 30.3003 131.702 30.0649C131.822 29.8296 132.002 29.6531 132.241 29.4766C132.481 29.3 132.721 29.1824 132.96 29.1235C133.26 29.0647 133.559 29.0059 133.858 29.0059C134.278 29.0059 134.757 29.0647 135.176 29.1235C135.535 29.2412 135.895 29.4177 136.194 29.6531L135.236 30.5945C135.056 30.4179 134.817 30.3003 134.577 30.3003C134.338 30.2414 134.098 30.2414 133.799 30.2414C133.559 30.2414 133.319 30.3003 133.14 30.4179C133.02 30.5356 132.96 30.6533 132.96 30.8298C132.96 30.9475 133.02 31.0652 133.08 31.124C133.2 31.2417 133.379 31.3005 133.619 31.3005L134.577 31.4182C135.056 31.4182 135.535 31.6535 135.955 31.9477C136.314 32.3596 136.494 32.8303 136.434 33.3009Z" fill="#382D4D" fill-opacity="0.5"/>
<path d="M141.644 35.184V34.6544C141.464 34.8309 141.225 35.0075 140.925 35.1251C140.686 35.2428 140.386 35.3016 140.087 35.3016C139.788 35.3016 139.548 35.2428 139.249 35.184C139.009 35.1251 138.829 34.9486 138.65 34.7721C138.41 34.5368 138.23 34.3014 138.171 34.0072C138.111 33.713 138.051 33.4189 138.051 33.1247V29.3003H139.548V32.9482C139.548 33.1247 139.548 33.3012 139.608 33.4777C139.668 33.5954 139.728 33.7131 139.847 33.8307C139.967 33.8896 140.027 34.0072 140.147 34.0072C140.267 34.0661 140.386 34.0661 140.506 34.0661C140.626 34.0661 140.746 34.0661 140.866 34.0072C140.985 33.9484 141.105 33.8896 141.165 33.8307C141.285 33.7131 141.345 33.6542 141.405 33.4777C141.464 33.3012 141.524 33.1247 141.524 32.9482V29.3003H143.022V35.3016H141.644V35.184Z" fill="#382D4D" fill-opacity="0.5"/>
<path d="M146.975 35.1847C146.676 35.1847 146.436 35.1258 146.137 35.067C145.897 34.9493 145.718 34.8316 145.598 34.6551C145.478 34.4786 145.358 34.3021 145.298 34.1256C145.239 33.9491 145.179 33.7137 145.179 33.4784V27.0063H146.676V33.3607C146.676 33.4784 146.736 33.6549 146.796 33.7726C146.915 33.8903 147.035 33.9491 147.215 33.8903H147.814V35.1847H146.975Z" fill="#382D4D" fill-opacity="0.5"/>
<path d="M151.287 35.1842C150.988 35.1842 150.748 35.1254 150.509 35.0665C150.269 34.9488 150.089 34.8312 149.97 34.6547C149.85 34.4782 149.73 34.3016 149.67 34.1251C149.61 33.9486 149.55 33.7133 149.55 33.4779V30.5361H148.892V29.3593H149.55V27.5942H151.048V29.3593H152.126V30.4772H151.048V33.3603C151.048 33.7133 151.227 33.8898 151.587 33.8898H152.126V35.1842H151.287Z" fill="#382D4D" fill-opacity="0.5"/>
<path d="M157.156 35.1838V34.6542C156.977 34.8308 156.737 35.0073 156.498 35.0661C156.198 35.1838 155.959 35.2426 155.659 35.1838C155.06 35.2426 154.521 35.0073 154.102 34.6542C153.923 34.4777 153.803 34.3012 153.743 34.0659C153.683 33.8305 153.623 33.5952 153.623 33.301C153.623 33.0657 153.683 32.8303 153.743 32.6538C153.803 32.4184 153.982 32.2419 154.102 32.1243C154.282 31.9478 154.521 31.8301 154.761 31.7712C155.06 31.6536 155.36 31.5947 155.659 31.6536H157.097V31.3594C157.097 31.0652 157.037 30.8299 156.857 30.6533C156.617 30.4768 156.318 30.418 155.959 30.418C155.719 30.418 155.48 30.4768 155.3 30.5357C155.12 30.6533 154.941 30.771 154.821 30.9475L153.863 30.0061C154.102 29.712 154.461 29.4766 154.821 29.3589C155.24 29.2413 155.659 29.1824 156.078 29.1824C156.797 29.1236 157.456 29.3001 157.995 29.712C158.474 30.1238 158.714 30.7122 158.654 31.3005V35.2426L157.156 35.1838ZM157.097 32.6538H155.899C155.659 32.6538 155.42 32.7126 155.24 32.8303C155.06 32.948 155 33.1245 155 33.301C155 33.4775 155.06 33.654 155.24 33.7717C155.42 33.8894 155.659 34.007 155.899 33.9482C156.078 33.9482 156.258 33.9482 156.438 33.8894C156.617 33.8305 156.737 33.7717 156.857 33.654C157.037 33.4187 157.097 33.1833 157.097 32.8891V32.6538Z" fill="#382D4D" fill-opacity="0.5"/>
<path d="M164.164 35.1849V31.5371C164.164 31.3605 164.164 31.184 164.104 31.0075C164.044 30.8899 163.984 30.7722 163.865 30.6545C163.745 30.5957 163.685 30.5368 163.565 30.478C163.445 30.4192 163.326 30.4192 163.206 30.4192C163.086 30.4192 162.966 30.4192 162.846 30.478C162.727 30.5368 162.607 30.5957 162.547 30.6545C162.427 30.7722 162.367 30.8899 162.307 31.0075C162.248 31.184 162.188 31.3605 162.188 31.5371V35.1849H160.69V29.1836H162.188V29.7131C162.367 29.5366 162.607 29.3601 162.906 29.2424C163.146 29.1248 163.445 29.0659 163.745 29.0659C164.044 29.0659 164.284 29.1248 164.583 29.1836C164.823 29.3013 165.002 29.4189 165.182 29.5954C165.422 29.8308 165.601 30.0661 165.661 30.3603C165.721 30.6545 165.781 30.9487 165.781 31.3017V35.1261H164.164V35.1849Z" fill="#382D4D" fill-opacity="0.5"/>
<path d="M169.673 35.1842C169.373 35.1842 169.134 35.1254 168.894 35.0665C168.715 34.9488 168.475 34.8312 168.355 34.6547C168.236 34.4782 168.116 34.3016 168.056 34.1251C167.996 33.9486 167.936 33.7133 167.936 33.4779V30.5361H167.277V29.3593H167.936V27.5942H169.433V29.3593H170.511V30.4772H169.433V33.3603C169.433 33.7133 169.613 33.8898 169.972 33.8898H170.511V35.1842H169.673Z" fill="#382D4D" fill-opacity="0.5"/>
<path d="M177.098 33.3022C177.098 33.8905 176.858 34.4201 176.379 34.7731C176.139 34.9496 175.84 35.0673 175.541 35.1261C175.181 35.185 174.882 35.2438 174.522 35.2438C174.283 35.2438 174.043 35.2438 173.804 35.2438C173.564 35.2438 173.325 35.185 173.145 35.1261C172.965 35.0673 172.726 34.9496 172.546 34.8908C172.307 34.7731 172.127 34.5966 171.947 34.4201L172.965 33.4198C173.205 33.6552 173.504 33.8317 173.804 33.8905C174.043 33.9494 174.343 34.0082 174.582 34.0082C174.702 34.0082 174.822 34.0082 174.942 33.9494C175.061 33.9494 175.181 33.8905 175.301 33.8317C175.421 33.7729 175.481 33.714 175.541 33.6552C175.6 33.5964 175.66 33.4787 175.66 33.361C175.66 33.2433 175.6 33.0668 175.541 32.9491C175.421 32.8315 175.241 32.7726 175.061 32.7726L174.103 32.655C173.624 32.655 173.205 32.4785 172.786 32.1843C172.426 31.8901 172.247 31.4194 172.307 30.9487C172.307 30.6545 172.366 30.3603 172.486 30.125C172.606 29.8896 172.786 29.7131 173.025 29.5366C173.265 29.3601 173.504 29.2424 173.744 29.1836C174.043 29.1248 174.343 29.0659 174.642 29.0659C175.061 29.0659 175.541 29.1248 175.96 29.1836C176.319 29.3013 176.678 29.4778 176.978 29.7131L176.02 30.6545C175.84 30.478 175.6 30.4192 175.361 30.3603C175.121 30.3015 174.822 30.3015 174.582 30.3015C174.343 30.3015 174.103 30.3603 173.924 30.478C173.804 30.5957 173.744 30.7133 173.744 30.8899C173.744 31.0075 173.804 31.1252 173.864 31.184C173.983 31.3017 174.163 31.3606 174.403 31.3606L175.361 31.4782C175.84 31.4782 176.379 31.7136 176.738 32.0078C176.978 32.4196 177.098 32.8315 177.098 33.3022Z" fill="#382D4D" fill-opacity="0.5"/>
</svg>
