<svg width="139" height="25" viewBox="0 0 139 25" fill="none" xmlns="http://www.w3.org/2000/svg">
<g clip-path="url(#clip0_266_321)">
<path d="M131.597 21.4625C131.597 19.5286 133.264 17.9248 135.274 17.9248C137.284 17.9248 138.951 19.5286 138.951 21.4625C138.951 23.3965 137.284 25.0003 135.274 25.0003C133.264 25.0003 131.597 23.3965 131.597 21.4625Z" fill="#382D4D" fill-opacity="0.4"/>
<path d="M21.1319 11.8393C21.1319 15.9431 20.0042 19.0563 17.6998 21.2733C15.3954 23.4903 12.2085 24.5752 8.04092 24.5752H0V0.046875H8.62928C12.6007 0.046875 15.6896 1.03744 17.8959 3.06574C20.0042 5.14121 21.1319 8.01857 21.1319 11.8393ZM14.1206 12.0752C14.1206 9.81103 13.6794 8.16008 12.7478 7.07518C11.8653 5.99027 10.4924 5.4714 8.62928 5.4714H6.66808V19.1978H8.18801C10.2473 19.1978 11.7182 18.6318 12.6988 17.4525C13.6794 16.2733 14.1206 14.4808 14.1206 12.0752Z" fill="#382D4D" fill-opacity="0.4"/>
<path d="M49.8145 0H43.3916V24.6226H49.8145V0Z" fill="#382D4D" fill-opacity="0.4"/>
<path d="M70.799 15.4249C70.799 18.3966 69.9654 20.7551 68.3475 22.406C66.7295 24.057 64.4251 24.906 61.4833 24.906C58.6886 24.906 56.4332 24.057 54.7662 22.3588C53.0991 20.6607 52.2656 18.3494 52.2656 15.4249C52.2656 12.4532 53.0991 10.1419 54.7171 8.49092C56.3351 6.83997 58.6395 6.03809 61.5813 6.03809C63.3954 6.03809 65.0134 6.41544 66.4353 7.17016C67.8572 7.92488 68.8868 9.00978 69.6713 10.472C70.4558 11.84 70.799 13.5381 70.799 15.4249ZM58.7866 15.4249C58.7866 16.9815 58.9827 18.2079 59.424 19.0098C59.8653 19.8117 60.5517 20.2362 61.5813 20.2362C62.5619 20.2362 63.2974 19.8117 63.6896 19.0098C64.0819 18.2079 64.327 16.9815 64.327 15.4249C64.327 13.8683 64.1309 12.689 63.6896 11.8871C63.2974 11.0853 62.5619 10.7079 61.5813 10.7079C60.6007 10.7079 59.9143 11.0853 59.473 11.8871C59.0318 12.689 58.7866 13.8683 58.7866 15.4249Z" fill="#382D4D" fill-opacity="0.4"/>
<path d="M79.7716 6.3208H73.3486V24.6227H79.7716V6.3208Z" fill="#382D4D" fill-opacity="0.4"/>
<path d="M79.7716 0H73.3486V4.10377H79.7716V0Z" fill="#382D4D" fill-opacity="0.4"/>
<path d="M92.7158 19.9532C93.5984 19.9532 94.628 19.7645 95.8047 19.34V23.9626C94.9222 24.34 94.1377 24.5758 93.3532 24.7645C92.5687 24.906 91.6372 25.0004 90.6076 25.0004C88.4502 25.0004 86.9303 24.4815 85.9497 23.4438C85.0181 22.406 84.5278 20.8023 84.5278 18.6796V11.1324H82.2725V6.41546H84.5278V1.65131L90.9998 0.566406V6.32112H95.0693V11.0381H90.9998V18.1607C90.9998 19.34 91.5882 19.9532 92.7158 19.9532Z" fill="#382D4D" fill-opacity="0.4"/>
<path d="M107.572 19.9528C108.455 19.9528 109.484 19.7641 110.661 19.3396V23.9622C109.779 24.3396 108.994 24.5754 108.21 24.7641C107.425 24.9056 106.494 25 105.464 25C103.307 25 101.787 24.4811 100.806 23.4434C99.8746 22.4056 99.3843 20.8019 99.3843 18.6792V11.132H97.1289V6.41507H99.3843V1.69809L105.856 0.70752V6.46224H109.926V11.1792H105.856V18.3019C105.807 19.3396 106.396 19.9528 107.572 19.9528Z" fill="#382D4D" fill-opacity="0.4"/>
<path d="M127.772 8.16053C126.252 6.74544 124.095 5.99072 121.3 5.99072C118.358 5.99072 116.103 6.79261 114.534 8.44355C112.965 10.0945 112.181 12.453 112.181 15.5662C112.181 18.5379 113.014 20.8492 114.73 22.5002C116.446 24.1039 118.849 24.9058 121.938 24.9058C123.409 24.9058 124.683 24.8115 125.762 24.6228C126.841 24.4341 127.87 24.1039 128.851 23.5851L127.87 19.4813C127.135 19.7643 126.448 20.0002 125.811 20.1417C124.879 20.3304 123.85 20.4719 122.722 20.4719C121.496 20.4719 120.516 20.1888 119.78 19.6228C119.045 19.0568 118.702 18.2549 118.653 17.2171H130.077V14.4341C130.028 11.6511 129.292 9.57563 127.772 8.16053ZM118.751 13.2077C118.849 12.2171 119.143 11.4624 119.633 10.9907C120.124 10.519 120.761 10.2832 121.545 10.2832C122.379 10.2832 123.016 10.5662 123.507 11.0851C123.997 11.6039 124.242 12.3115 124.291 13.2077H118.751Z" fill="#382D4D" fill-opacity="0.4"/>
<path d="M38.6355 8.16053C37.1156 6.74544 34.9582 5.99072 32.1635 5.99072C29.2217 5.99072 26.9663 6.79261 25.3974 8.44355C23.8284 10.0945 23.0439 12.453 23.0439 15.5662C23.0439 18.5379 23.8775 20.8492 25.5935 22.5002C27.3096 24.1039 29.712 24.9058 32.8009 24.9058C34.2718 24.9058 35.5466 24.8115 36.6253 24.6228C37.7039 24.4341 38.7335 24.1039 39.7141 23.5851L38.7335 19.4813C37.9981 19.7643 37.3117 20.0002 36.6743 20.1417C35.7427 20.3304 34.7131 20.4719 33.5854 20.4719C32.3596 20.4719 31.379 20.1888 30.6436 19.6228C29.9081 19.0568 29.5649 18.2549 29.5159 17.2171H40.9399V14.4341C40.9399 11.6511 40.1554 9.57563 38.6355 8.16053ZM29.614 13.2077C29.712 12.2171 30.0062 11.4624 30.4965 10.9907C30.9868 10.519 31.6242 10.2832 32.4087 10.2832C33.2422 10.2832 33.8796 10.5662 34.3699 11.0851C34.8602 11.6039 35.1053 12.3115 35.1544 13.2077H29.614Z" fill="#382D4D" fill-opacity="0.4"/>
</g>
<defs>
<clipPath id="clip0_266_321">
<rect width="139" height="25" fill="white"/>
</clipPath>
</defs>
</svg>
