<svg width="25" height="32" viewBox="0 0 25 32" fill="none" xmlns="http://www.w3.org/2000/svg">
<g clip-path="url(#clip0_266_317)">
<path d="M25.0003 11.0948V10.0602C25.0003 3.92419 22.0562 0 15.9735 0C9.87861 0 6.93457 3.9123 6.93457 10.0602V21.9517C6.93457 28.0877 9.87861 32 15.9613 32C22.0441 32 24.9881 28.0877 24.9881 21.9517V14.3174H15.9613V19.6923H17.92V22.7603C17.92 24.7224 17.3725 25.6381 16.1195 25.6381C14.8664 25.6381 14.319 24.7224 14.319 22.7603V9.21591C14.319 7.25381 14.7083 6.33816 15.9735 6.33816C17.2265 6.33816 17.628 7.25381 17.628 9.21591V11.0948H25.0003Z" fill="#382D4D" fill-opacity="0.4"/>
<path d="M0 26.6011C0 29.5858 2.46959 31.9998 5.52311 31.9998V21.1904C2.46959 21.2023 0 23.6163 0 26.6011Z" fill="#382D4D" fill-opacity="0.4"/>
</g>
<defs>
<clipPath id="clip0_266_317">
<rect width="25" height="32" fill="white"/>
</clipPath>
</defs>
</svg>
