<svg width="110" height="33" viewBox="0 0 110 33" fill="none" xmlns="http://www.w3.org/2000/svg">
<g clip-path="url(#clip0_266_309)">
<path fill-rule="evenodd" clip-rule="evenodd" d="M100.265 15.6838C99.8423 15.6838 99.419 15.6409 98.9958 15.5549C94.975 14.6526 93.4513 10.0549 95.3982 6.87525C97.8107 2.79322 104.075 3.35182 105.641 7.9065C106.91 11.5588 104.413 15.6838 100.265 15.6838ZM75.1251 12.6331H80.1616C79.2305 15.2112 76.4794 15.9417 74.0246 15.512C71.5698 15.0823 69.8769 13.4924 69.4536 11.0003C68.9458 8.12135 70.5117 5.07057 73.4321 4.38307C74.7865 4.03932 75.8022 4.16822 77.1143 4.59791C77.8338 4.85572 78.511 5.28541 79.0612 5.844C79.2305 5.97291 79.3575 6.18775 79.4844 6.35963L83.0396 4.38307C82.2778 3.00807 81.0504 1.97682 79.696 1.24635C78.2147 0.47291 76.5641 0.0861914 74.9134 0.0861914C74.8288 0.0861914 74.7865 0.0861914 74.7018 0.0861914C71.4005 0.215098 68.6918 1.63307 66.8719 4.42604C64.7557 7.64869 64.7557 12.3753 66.9565 15.5549C69.0304 18.5198 72.3317 19.8518 75.8446 19.7229C77.9184 19.637 80.4156 18.7346 81.8969 17.2307C83.2936 15.7698 84.0977 14.2659 84.394 12.2034C84.521 11.1292 84.521 9.92604 84.521 8.85182H75.0827V12.6331H75.1251ZM100.265 19.7659C106.318 19.7659 110.677 14.5237 109.915 8.55104C109.069 2.01979 102.509 -1.54662 96.7526 0.644785C90.0654 3.22291 88.4994 12.0315 93.409 16.9299C95.2289 18.7346 97.6837 19.7659 100.223 19.7659H100.265ZM15.3213 0.558848H0V4.55494H5.50212V19.2073H9.90381V4.55494H15.3636V0.558848H15.3213ZM54.9365 0.558848V10.9573L46.7257 0.558848H43.5937V19.2073H47.7414V8.76588L55.9523 19.2073H59.1266V0.558848H54.9365ZM26.3678 15.2112V11.9885H34.7903V8.03541H26.3678V4.55494H35.8907V0.558848H22.2201V19.2073H36.1024V15.2112H26.3678Z" fill="#382D4D" fill-opacity="0.4"/>
<path d="M3.89445 32.3555C3.47121 32.7852 2.921 33 2.28614 33C1.65128 33 1.10107 32.7852 0.677828 32.3555C0.254589 31.9258 0.0429688 31.3672 0.0429688 30.7227C0.0429688 30.0781 0.254589 29.5195 0.677828 29.0898C1.10107 28.6602 1.65128 28.4453 2.28614 28.4453C2.921 28.4453 3.47121 28.6602 3.89445 29.0898C4.31769 29.5195 4.52931 30.0781 4.52931 30.7227C4.52931 31.3672 4.31769 31.9258 3.89445 32.3555ZM1.05874 31.9688C1.39734 32.3125 1.77825 32.4844 2.24382 32.4844C2.70938 32.4844 3.13262 32.3125 3.42889 31.9688C3.76748 31.625 3.93677 31.2383 3.93677 30.7656C3.93677 30.25 3.76748 29.8633 3.42889 29.5195C3.09029 29.1758 2.70938 29.0039 2.24382 29.0039C1.77825 29.0039 1.35501 29.1758 1.05874 29.5195C0.720152 29.8633 0.550856 30.25 0.550856 30.7656C0.550856 31.1953 0.720152 31.625 1.05874 31.9688ZM11.3011 28.5313V32.9141H10.7509V29.0898H8.97333V32.9141H8.42311V29.0898H6.64551V32.9141H6.0953V29.0898H5.37579V28.5313H6.0953V28.3594C6.0953 27.8008 6.26459 27.3711 6.56086 27.0703C6.85713 26.7695 7.32269 26.6406 7.91523 26.6836V27.2422C7.49199 27.1992 7.19572 27.2852 6.9841 27.457C6.77248 27.6289 6.68783 27.9297 6.68783 28.3594V28.5313H8.46544V28.2734C8.46544 27.1563 9.05797 26.5977 10.2854 26.5977C10.5393 26.5977 10.7933 26.6406 11.1318 26.6836V27.1992C10.8356 27.1563 10.5816 27.1133 10.2854 27.1133C9.86213 27.1133 9.52354 27.1992 9.35424 27.3711C9.14262 27.543 9.05797 27.8437 9.05797 28.2305V28.4883H11.3011V28.5313ZM14.941 33C14.3061 33 13.7559 32.7852 13.3327 32.3555C12.9095 31.9258 12.6978 31.3672 12.6978 30.7227C12.6978 30.0781 12.9095 29.5195 13.3327 29.0898C13.7559 28.6602 14.3061 28.4453 14.941 28.4453C15.3642 28.4453 15.7452 28.5313 16.0838 28.7461C16.4223 28.9609 16.6763 29.2188 16.8456 29.5625L16.38 29.8633C16.253 29.6055 16.0838 29.3906 15.8298 29.2188C15.5759 29.0898 15.2796 29.0039 14.9833 29.0039C14.5178 29.0039 14.0945 29.1758 13.7983 29.5195C13.4597 29.8633 13.2904 30.25 13.2904 30.7656C13.2904 31.2383 13.4597 31.668 13.7983 31.9688C14.1369 32.3125 14.5178 32.4844 14.9833 32.4844C15.3219 32.4844 15.5759 32.3984 15.8298 32.2695C16.0838 32.1406 16.2954 31.9258 16.4223 31.625L16.8879 31.9258C16.7186 32.2695 16.4647 32.5703 16.1261 32.7852C15.7452 32.9141 15.3642 33 14.941 33ZM20.0622 28.4453C20.6971 28.4453 21.205 28.6602 21.5859 29.1328C22.0091 29.5625 22.1784 30.1211 22.1784 30.7656C22.1784 30.8086 22.1784 30.8945 22.1784 31.0234H18.4116C18.4539 31.4531 18.6232 31.7969 18.9618 32.0977C19.2581 32.3555 19.6813 32.4844 20.1045 32.4844C20.4431 32.4844 20.6971 32.3984 20.951 32.2695C21.1626 32.1406 21.3743 31.9688 21.5012 31.7109L22.0091 32.0117C21.7975 32.3125 21.5435 32.5703 21.2473 32.7422C20.9087 32.9141 20.5278 33 20.1045 33C19.4273 33 18.8771 32.7852 18.4539 32.3555C18.0307 31.9258 17.819 31.3672 17.819 30.7227C17.819 30.0781 18.0307 29.5195 18.4539 29.0898C18.8348 28.6602 19.385 28.4453 20.0622 28.4453ZM20.0622 29.0039C19.5966 29.0039 19.2157 29.1328 18.9195 29.3906C18.6232 29.6914 18.4116 30.0352 18.3692 30.4648H21.5859C21.5012 29.9922 21.3319 29.6484 21.0357 29.3906C20.7817 29.1328 20.4431 29.0039 20.0622 29.0039ZM30.0083 28.5313H30.5586V32.9141H30.0083V32.0547C29.5851 32.6992 29.0349 33 28.2731 33C27.6382 33 27.1303 32.7852 26.7071 32.3555C26.2838 31.9258 26.0722 31.3672 26.0722 30.7227C26.0722 30.0781 26.2838 29.5195 26.7071 29.0898C27.1303 28.6602 27.6805 28.4453 28.2731 28.4453C29.0349 28.4453 29.6274 28.7461 30.0083 29.3906V28.5313ZM27.1303 31.9688C27.4689 32.3125 27.8498 32.4844 28.3154 32.4844C28.7809 32.4844 29.1619 32.3125 29.5005 31.9688C29.839 31.625 30.0083 31.2383 30.0083 30.7656C30.0083 30.25 29.839 29.8633 29.5005 29.5195C29.1619 29.1758 28.7809 29.0039 28.3154 29.0039C27.8075 29.0039 27.4266 29.1758 27.1303 29.5195C26.7917 29.8633 26.6224 30.25 26.6224 30.7656C26.6224 31.1953 26.7917 31.625 27.1303 31.9688ZM34.2407 28.4453C34.7486 28.4453 35.1719 28.6172 35.4681 28.918C35.7644 29.2617 35.8914 29.6914 35.8914 30.207V32.9141H35.3412V30.207C35.3412 29.8203 35.2565 29.5195 35.0449 29.3047C34.8333 29.0898 34.537 29.0039 34.1984 29.0039C33.7752 29.0039 33.4366 29.1328 33.1826 29.3906C32.9287 29.6484 32.8017 30.0781 32.8017 30.5938V32.8711H32.2515V28.5313H32.8017V29.2188C33.098 28.7031 33.6059 28.4453 34.2407 28.4453ZM41.1819 26.8125H41.7321V32.9141H41.1819V32.0547C40.7586 32.6992 40.2084 33 39.4466 33C38.8117 33 38.3038 32.7852 37.8806 32.3555C37.4574 31.9258 37.2457 31.3672 37.2457 30.7227C37.2457 30.0781 37.4574 29.5195 37.8806 29.0898C38.3038 28.6602 38.854 28.4453 39.4466 28.4453C40.2084 28.4453 40.801 28.7461 41.1819 29.3906V26.8125ZM38.2615 31.9688C38.6001 32.3125 38.981 32.4844 39.4466 32.4844C39.9121 32.4844 40.2931 32.3125 40.6317 31.9688C40.9702 31.625 41.1395 31.2383 41.1395 30.7656C41.1395 30.25 40.9702 29.8633 40.6317 29.5195C40.2931 29.1758 39.9121 29.0039 39.4466 29.0039C38.9387 29.0039 38.5578 29.1758 38.2615 29.5195C37.9229 29.8633 37.7536 30.25 37.7536 30.7656C37.7536 31.1953 37.9229 31.625 38.2615 31.9688ZM48.1653 28.4453C48.7155 28.4453 49.0965 28.6172 49.3927 28.918C49.689 29.2617 49.8583 29.6914 49.8583 30.207V32.9141H49.3081V30.207C49.3081 29.8203 49.2234 29.5195 49.0118 29.3047C48.8002 29.0898 48.5039 29.0039 48.1653 29.0039C47.7421 29.0039 47.4035 29.1328 47.1496 29.3906C46.8956 29.6484 46.7686 30.0781 46.7686 30.5938V32.8711H46.2184V26.8125H46.7686V29.2188C47.0226 28.7031 47.5305 28.4453 48.1653 28.4453ZM55.0218 32.3555C54.5986 32.7852 54.0484 33 53.4135 33C52.7786 33 52.2707 32.7852 51.8052 32.3555C51.3819 31.9258 51.128 31.3672 51.128 30.7227C51.128 30.0781 51.3396 29.5195 51.8052 29.0898C52.2284 28.6602 52.7786 28.4453 53.4135 28.4453C54.0484 28.4453 54.5986 28.6602 55.0218 29.0898C55.445 29.5195 55.6567 30.0781 55.6567 30.7227C55.6567 31.3672 55.445 31.9258 55.0218 32.3555ZM52.1861 31.9688C52.5247 32.3125 52.9056 32.4844 53.3712 32.4844C53.8791 32.4844 54.26 32.3125 54.5562 31.9688C54.8525 31.625 55.0641 31.2383 55.0641 30.7656C55.0641 30.25 54.8948 29.8633 54.5562 29.5195C54.2176 29.1758 53.8367 29.0039 53.3712 29.0039C52.9056 29.0039 52.4824 29.1758 52.1861 29.5195C51.8475 29.8633 51.6782 30.25 51.6782 30.7656C51.6782 31.1953 51.8475 31.625 52.1861 31.9688ZM61.6243 28.4453C62.0899 28.4453 62.4708 28.6172 62.7671 28.918C63.0634 29.2188 63.2327 29.6484 63.2327 30.207V32.9141H62.6824V30.207C62.6824 29.8203 62.5978 29.5195 62.3862 29.3477C62.1746 29.1328 61.9629 29.0469 61.6243 29.0469C61.2858 29.0469 60.9895 29.1758 60.7779 29.3906C60.5662 29.6055 60.4393 29.9922 60.4393 30.5078V32.957H59.8891V30.25C59.8891 29.8633 59.8044 29.5625 59.5928 29.3477C59.4235 29.1328 59.1696 29.0469 58.8733 29.0469C58.5347 29.0469 58.2384 29.1758 57.9845 29.3906C57.7305 29.6484 57.6459 30.0352 57.6459 30.5078V32.957H57.0957V28.5313H57.6459V29.1758C57.9422 28.6602 58.4077 28.4453 58.9579 28.4453C59.5928 28.4453 60.016 28.7031 60.27 29.2188C60.5239 28.7031 60.9895 28.4453 61.6243 28.4453ZM66.7455 28.4453C67.3804 28.4453 67.8883 28.6602 68.3115 29.1328C68.6924 29.5625 68.9041 30.1211 68.9041 30.7656C68.9041 30.8086 68.9041 30.8945 68.9041 31.0234H65.1372C65.1796 31.4531 65.3912 31.7969 65.6874 32.0977C65.9837 32.3555 66.407 32.4844 66.8302 32.4844C67.1688 32.4844 67.4227 32.3984 67.6767 32.2695C67.9306 32.1406 68.0999 31.9688 68.2269 31.7109L68.7348 32.0117C68.5231 32.3125 68.2692 32.5703 67.9729 32.7422C67.6767 32.9141 67.2534 33 66.8302 33C66.153 33 65.6028 32.7852 65.1796 32.3555C64.7563 31.9258 64.5447 31.3672 64.5447 30.7227C64.5447 30.0781 64.7563 29.5195 65.1796 29.0898C65.5605 28.6602 66.0684 28.4453 66.7455 28.4453ZM66.7455 29.0039C66.28 29.0039 65.8991 29.1328 65.6028 29.3906C65.3065 29.6914 65.0949 30.0352 65.0526 30.4648H68.2692C68.1846 29.9922 68.0576 29.6484 67.7613 29.3906C67.5074 29.1328 67.1265 29.0039 66.7455 29.0039ZM73.4751 29.6914C73.4751 29.9063 73.5597 30.0352 73.729 30.1641C73.8983 30.293 74.1099 30.3789 74.3639 30.4648C74.6178 30.5078 74.8717 30.5938 75.1257 30.6797C75.3796 30.7656 75.5913 30.8945 75.7606 31.0664C75.9298 31.2383 76.0145 31.4961 76.0145 31.7969C76.0145 32.1406 75.8875 32.4844 75.5913 32.6992C75.295 32.9141 74.9141 33.043 74.4485 33.043C74.0253 33.043 73.6867 32.957 73.3904 32.7422C73.0941 32.5703 72.8825 32.3125 72.7979 32.0117L73.2634 31.7109C73.3481 31.9258 73.4751 32.0977 73.6867 32.2266C73.8983 32.3555 74.1522 32.4414 74.4485 32.4414C74.7448 32.4414 74.9564 32.3984 75.168 32.2695C75.3796 32.1406 75.4643 31.9688 75.4643 31.7539C75.4643 31.5391 75.3796 31.4102 75.2103 31.2813C75.041 31.1523 74.8294 31.0664 74.5755 31.0234C74.3215 30.9375 74.0676 30.8945 73.856 30.8086C73.602 30.7227 73.3904 30.5938 73.2211 30.4219C73.0518 30.25 72.9672 29.9922 72.9672 29.6914C72.9672 29.3477 73.0941 29.0469 73.3904 28.7891C73.6867 28.5313 74.0253 28.4453 74.4485 28.4453C74.7871 28.4453 75.0834 28.5313 75.3796 28.7031C75.6336 28.832 75.8452 29.0469 75.9722 29.3477L75.5066 29.6484C75.3373 29.2188 74.9987 29.0469 74.4908 29.0469C74.2369 29.0469 74.0253 29.0898 73.856 29.2188C73.5597 29.3047 73.4751 29.4766 73.4751 29.6914ZM80.8394 32.3555C80.4162 32.7852 79.866 33 79.2311 33C78.5963 33 78.0884 32.7852 77.6228 32.3555C77.1996 31.9258 76.9456 31.3672 76.9456 30.7227C76.9456 30.0781 77.1572 29.5195 77.6228 29.0898C78.046 28.6602 78.5963 28.4453 79.2311 28.4453C79.866 28.4453 80.4162 28.6602 80.8394 29.0898C81.2627 29.5195 81.4743 30.0781 81.4743 30.7227C81.4743 31.3672 81.2627 31.9258 80.8394 32.3555ZM78.0037 31.9688C78.3423 32.3125 78.7232 32.4844 79.1888 32.4844C79.6544 32.4844 80.0776 32.3125 80.3739 31.9688C80.7124 31.625 80.8818 31.2383 80.8818 30.7656C80.8818 30.25 80.7124 29.8633 80.3739 29.5195C80.0353 29.1758 79.6544 29.0039 79.1888 29.0039C78.7232 29.0039 78.3 29.1758 78.0037 29.5195C77.6651 29.8633 77.4958 30.25 77.4958 30.7656C77.5382 31.1953 77.7075 31.625 78.0037 31.9688ZM82.871 32.9141V26.5547H83.4212V32.957H82.871V32.9141ZM88.1191 28.5313H88.6694V32.9141H88.1191V32.2266C87.7806 32.7422 87.315 33 86.6801 33C86.1722 33 85.749 32.8281 85.4527 32.5273C85.1565 32.1836 84.9872 31.7539 84.9872 31.2383V28.5313H85.5374V31.2383C85.5374 31.625 85.622 31.9258 85.8337 32.1406C86.0453 32.3555 86.3415 32.4414 86.7225 32.4414C87.1457 32.4414 87.4843 32.3125 87.6959 32.0547C87.9499 31.7969 88.0768 31.3672 88.0768 30.8516V28.5313H88.1191ZM92.6055 29.0898H91.3358V31.7539C91.3358 32.0117 91.3781 32.1836 91.4627 32.2695C91.5474 32.3555 91.6744 32.4414 91.886 32.4414C92.0976 32.4414 92.3092 32.4414 92.6055 32.4414V32.957C92.013 33.043 91.5474 33 91.2511 32.8281C90.9549 32.6563 90.8279 32.3125 90.8279 31.7969V29.1328H89.8968V28.5742H90.8279V27.5L91.3781 27.3281V28.5313H92.6478V29.0898H92.6055ZM94.5524 27.5C94.4677 27.5859 94.3831 27.6289 94.2561 27.6289C94.1292 27.6289 94.0445 27.5859 93.9599 27.5C93.8752 27.4141 93.8329 27.3281 93.8329 27.1992C93.8329 27.0703 93.8752 26.9844 93.9599 26.8984C94.0445 26.8125 94.1292 26.7695 94.2561 26.7695C94.3831 26.7695 94.4677 26.8125 94.5524 26.8984C94.637 26.9844 94.6794 27.0703 94.6794 27.1992C94.6794 27.3281 94.5947 27.4141 94.5524 27.5ZM93.9599 32.9141V28.5313H94.5101V32.9141H93.9599ZM99.7582 32.3555C99.335 32.7852 98.7848 33 98.1499 33C97.5151 33 96.9649 32.7852 96.5416 32.3555C96.1184 31.9258 95.9068 31.3672 95.9068 30.7227C95.9068 30.0781 96.1184 29.5195 96.5416 29.0898C96.9649 28.6602 97.5151 28.4453 98.1499 28.4453C98.7848 28.4453 99.2927 28.6602 99.7582 29.0898C100.181 29.5195 100.435 30.0781 100.435 30.7227C100.435 31.3672 100.224 31.9258 99.7582 32.3555ZM96.9649 31.9688C97.3035 32.3125 97.6844 32.4844 98.1499 32.4844C98.6155 32.4844 99.0387 32.3125 99.335 31.9688C99.6736 31.625 99.8429 31.2383 99.8429 30.7656C99.8429 30.25 99.6736 29.8633 99.335 29.5195C98.9964 29.1758 98.6155 29.0039 98.1499 29.0039C97.642 29.0039 97.2611 29.1758 96.9649 29.5195C96.6263 29.8633 96.457 30.25 96.457 30.7656C96.457 31.1953 96.6686 31.625 96.9649 31.9688ZM103.821 28.4453C104.329 28.4453 104.752 28.6172 105.049 28.918C105.345 29.2617 105.472 29.6914 105.472 30.207V32.9141H104.964V30.207C104.964 29.8203 104.837 29.5195 104.668 29.3047C104.456 29.0898 104.16 29.0039 103.821 29.0039C103.398 29.0039 103.06 29.1328 102.806 29.3906C102.552 29.6484 102.425 30.0781 102.425 30.5938V32.8711H101.874V28.5313H102.425V29.2188C102.721 28.7031 103.186 28.4453 103.821 28.4453ZM107.504 29.6914C107.504 29.9063 107.588 30.0352 107.757 30.1641C107.927 30.293 108.138 30.3789 108.392 30.4648C108.646 30.5078 108.9 30.5938 109.112 30.6797C109.366 30.7656 109.577 30.8945 109.747 31.0664C109.916 31.2383 110.001 31.4961 110.001 31.7969C110.001 32.1406 109.874 32.4844 109.577 32.6992C109.281 32.9141 108.9 33.043 108.435 33.043C108.011 33.043 107.673 32.957 107.377 32.7422C107.08 32.5703 106.869 32.3125 106.784 32.0117L107.25 31.7109C107.334 31.9258 107.461 32.0977 107.673 32.2266C107.884 32.3555 108.138 32.4414 108.435 32.4414C108.731 32.4414 108.943 32.3984 109.154 32.2695C109.366 32.1406 109.45 31.9688 109.45 31.7539C109.45 31.5391 109.366 31.4102 109.196 31.2813C109.027 31.1523 108.816 31.0664 108.562 31.0234C108.308 30.9375 108.054 30.8945 107.842 30.8086C107.588 30.7227 107.377 30.5938 107.207 30.4219C107.038 30.25 106.953 29.9922 106.953 29.6914C106.953 29.3477 107.08 29.0469 107.377 28.7891C107.673 28.5313 108.011 28.4453 108.435 28.4453C108.773 28.4453 109.07 28.5313 109.366 28.7031C109.62 28.832 109.831 29.0469 109.958 29.3477L109.493 29.6484C109.323 29.2188 108.985 29.0469 108.477 29.0469C108.223 29.0469 108.011 29.0898 107.842 29.2188C107.588 29.3047 107.504 29.4766 107.504 29.6914Z" fill="#382D4D" fill-opacity="0.4"/>
</g>
<defs>
<clipPath id="clip0_266_309">
<rect width="110" height="33" fill="white"/>
</clipPath>
</defs>
</svg>
