<svg width="136" height="48" viewBox="0 0 136 48" fill="none" xmlns="http://www.w3.org/2000/svg">
<path d="M136 25.2415V14.3214C136 5.08047 125.452 0.0430083 116.825 0.0430083C110.821 0.453689 105.117 2.51064 100.523 5.92192C98.5437 4.09325 96.1665 2.63055 93.5315 1.62018C90.8964 0.609813 88.057 0.0722662 85.1809 0.0392872C79.1179 0.220452 73.3321 2.30878 68.883 5.92192C67.2618 3.94419 65.0879 2.36453 62.5696 1.33444C60.0513 0.304347 57.2732 -0.141627 54.5016 0.0392872C51.6396 -0.154626 48.7747 0.383055 46.2545 1.58714C43.7343 2.79122 41.6669 4.60999 40.3031 6.82292L27.6557 31.9619L13.6058 3.76247C12.8554 2.25868 11.4568 1.07583 9.71488 0.471827C7.973 -0.132171 6.02918 -0.108314 4.30729 0.538193C3.43485 0.864956 2.64605 1.34166 1.98754 1.94013C1.32903 2.53859 0.814182 3.24666 0.473439 4.02246C0.132697 4.79827 -0.0270218 5.62605 0.00372832 6.45687C0.0344785 7.28769 0.255073 8.10467 0.652467 8.85951L18.0639 42.0405C18.0639 42.0405 20.941 47.9231 26.691 47.9231C28.4566 48.1525 30.2594 47.8653 31.8198 47.106C33.3803 46.3467 34.6114 45.1578 35.3223 43.7234C36.6483 41.9735 46.716 23.432 52.7805 12.188C53.0157 11.7545 53.4123 11.4039 53.9051 11.194C54.3979 10.9841 54.9576 10.9273 55.4921 11.033C56.0266 11.1387 56.5042 11.4006 56.8463 11.7756C57.1884 12.1506 57.3747 12.6164 57.3745 13.0965V40.972C57.3487 42.7064 58.0725 44.3853 59.4006 45.6717C60.7288 46.9582 62.563 47.7571 64.5354 47.9083C65.5834 47.9694 66.6346 47.8414 67.6238 47.5321C68.613 47.2228 69.5191 46.7389 70.2861 46.1102C71.0531 45.4816 71.6645 44.7216 72.0826 43.8775C72.5006 43.0333 72.7163 42.123 72.7163 41.2028V18.1004C72.7649 16.2352 73.6448 14.4608 75.1677 13.1567C76.6907 11.8526 78.7357 11.1224 80.8653 11.1224C82.9949 11.1224 85.0399 11.8526 86.5628 13.1567C88.0857 14.4608 88.9656 16.2352 89.0143 18.1004V41.2028C89.0143 42.9851 89.8224 44.6945 91.261 45.9548C92.6996 47.2151 94.6507 47.9231 96.6851 47.9231C98.7196 47.9231 100.671 47.2151 102.109 45.9548C103.548 44.6945 104.356 42.9851 104.356 41.2028V18.1004C104.356 16.2065 105.215 14.3902 106.743 13.051C108.272 11.7117 110.345 10.9594 112.507 10.9594C114.669 10.9594 116.742 11.7117 118.271 13.051C119.799 14.3902 120.658 16.2065 120.658 18.1004V41.2028C120.658 42.9851 121.466 44.6945 122.905 45.9548C124.344 47.2151 126.295 47.9231 128.329 47.9231C130.364 47.9231 132.315 47.2151 133.753 45.9548C135.192 44.6945 136 42.9851 136 41.2028V25.2415Z" fill="#382D4D" fill-opacity="0.5"/>
</svg>
